<?xml version="1.0" encoding="utf-8"?>
<svg xmlns="http://www.w3.org/2000/svg" xmlns:xlink="http://www.w3.org/1999/xlink" width="672" height="480" viewBox="0 0 2688 1920">
<defs>
  <clipPath id="clip060">
    <rect x="0" y="0" width="2688" height="1920"/>
  </clipPath>
</defs>
<path clip-path="url(#clip060)" d="M0 1920 L2688 1920 L2688 0 L0 0  Z" fill="#ffffff" fill-rule="evenodd" fill-opacity="1"/>
<defs>
  <clipPath id="clip061">
    <rect x="537" y="0" width="1883" height="1883"/>
  </clipPath>
</defs>
<path clip-path="url(#clip060)" d="M210.724 1734.12 L2640.76 1734.12 L2640.76 47.2441 L210.724 47.2441  Z" fill="#ffffff" fill-rule="evenodd" fill-opacity="1"/>
<defs>
  <clipPath id="clip062">
    <rect x="210" y="47" width="2431" height="1688"/>
  </clipPath>
</defs>
<polyline clip-path="url(#clip062)" style="stroke:#000000; stroke-linecap:round; stroke-linejoin:round; stroke-width:2; stroke-opacity:0.1; fill:none" points="268.836,1734.12 268.836,47.2441 "/>
<polyline clip-path="url(#clip062)" style="stroke:#000000; stroke-linecap:round; stroke-linejoin:round; stroke-width:2; stroke-opacity:0.1; fill:none" points="979.683,1734.12 979.683,47.2441 "/>
<polyline clip-path="url(#clip062)" style="stroke:#000000; stroke-linecap:round; stroke-linejoin:round; stroke-width:2; stroke-opacity:0.1; fill:none" points="1690.53,1734.12 1690.53,47.2441 "/>
<polyline clip-path="url(#clip062)" style="stroke:#000000; stroke-linecap:round; stroke-linejoin:round; stroke-width:2; stroke-opacity:0.1; fill:none" points="2401.38,1734.12 2401.38,47.2441 "/>
<polyline clip-path="url(#clip060)" style="stroke:#000000; stroke-linecap:round; stroke-linejoin:round; stroke-width:4; stroke-opacity:1; fill:none" points="210.724,1734.12 2640.76,1734.12 "/>
<polyline clip-path="url(#clip060)" style="stroke:#000000; stroke-linecap:round; stroke-linejoin:round; stroke-width:4; stroke-opacity:1; fill:none" points="268.836,1734.12 268.836,1715.22 "/>
<polyline clip-path="url(#clip060)" style="stroke:#000000; stroke-linecap:round; stroke-linejoin:round; stroke-width:4; stroke-opacity:1; fill:none" points="979.683,1734.12 979.683,1715.22 "/>
<polyline clip-path="url(#clip060)" style="stroke:#000000; stroke-linecap:round; stroke-linejoin:round; stroke-width:4; stroke-opacity:1; fill:none" points="1690.53,1734.12 1690.53,1715.22 "/>
<polyline clip-path="url(#clip060)" style="stroke:#000000; stroke-linecap:round; stroke-linejoin:round; stroke-width:4; stroke-opacity:1; fill:none" points="2401.38,1734.12 2401.38,1715.22 "/>
<path clip-path="url(#clip060)" d="M268.836 1767.34 Q265.225 1767.34 263.396 1770.9 Q261.59 1774.45 261.59 1781.58 Q261.59 1788.68 263.396 1792.25 Q265.225 1795.79 268.836 1795.79 Q272.47 1795.79 274.276 1792.25 Q276.104 1788.68 276.104 1781.58 Q276.104 1774.45 274.276 1770.9 Q272.47 1767.34 268.836 1767.34 M268.836 1763.64 Q274.646 1763.64 277.701 1768.24 Q280.78 1772.83 280.78 1781.58 Q280.78 1790.3 277.701 1794.91 Q274.646 1799.49 268.836 1799.49 Q263.026 1799.49 259.947 1794.91 Q256.891 1790.3 256.891 1781.58 Q256.891 1772.83 259.947 1768.24 Q263.026 1763.64 268.836 1763.64 Z" fill="#000000" fill-rule="nonzero" fill-opacity="1" /><path clip-path="url(#clip060)" d="M924.209 1794.89 L931.848 1794.89 L931.848 1768.52 L923.538 1770.19 L923.538 1765.93 L931.801 1764.26 L936.477 1764.26 L936.477 1794.89 L944.116 1794.89 L944.116 1798.82 L924.209 1798.82 L924.209 1794.89 Z" fill="#000000" fill-rule="nonzero" fill-opacity="1" /><path clip-path="url(#clip060)" d="M963.561 1767.34 Q959.949 1767.34 958.121 1770.9 Q956.315 1774.45 956.315 1781.58 Q956.315 1788.68 958.121 1792.25 Q959.949 1795.79 963.561 1795.79 Q967.195 1795.79 969 1792.25 Q970.829 1788.68 970.829 1781.58 Q970.829 1774.45 969 1770.9 Q967.195 1767.34 963.561 1767.34 M963.561 1763.64 Q969.371 1763.64 972.426 1768.24 Q975.505 1772.83 975.505 1781.58 Q975.505 1790.3 972.426 1794.91 Q969.371 1799.49 963.561 1799.49 Q957.75 1799.49 954.672 1794.91 Q951.616 1790.3 951.616 1781.58 Q951.616 1772.83 954.672 1768.24 Q957.75 1763.64 963.561 1763.64 Z" fill="#000000" fill-rule="nonzero" fill-opacity="1" /><path clip-path="url(#clip060)" d="M993.722 1767.34 Q990.111 1767.34 988.283 1770.9 Q986.477 1774.45 986.477 1781.58 Q986.477 1788.68 988.283 1792.25 Q990.111 1795.79 993.722 1795.79 Q997.357 1795.79 999.162 1792.25 Q1000.99 1788.68 1000.99 1781.58 Q1000.99 1774.45 999.162 1770.9 Q997.357 1767.34 993.722 1767.34 M993.722 1763.64 Q999.533 1763.64 1002.59 1768.24 Q1005.67 1772.83 1005.67 1781.58 Q1005.67 1790.3 1002.59 1794.91 Q999.533 1799.49 993.722 1799.49 Q987.912 1799.49 984.834 1794.91 Q981.778 1790.3 981.778 1781.58 Q981.778 1772.83 984.834 1768.24 Q987.912 1763.64 993.722 1763.64 Z" fill="#000000" fill-rule="nonzero" fill-opacity="1" /><path clip-path="url(#clip060)" d="M1023.88 1767.34 Q1020.27 1767.34 1018.44 1770.9 Q1016.64 1774.45 1016.64 1781.58 Q1016.64 1788.68 1018.44 1792.25 Q1020.27 1795.79 1023.88 1795.79 Q1027.52 1795.79 1029.32 1792.25 Q1031.15 1788.68 1031.15 1781.58 Q1031.15 1774.45 1029.32 1770.9 Q1027.52 1767.34 1023.88 1767.34 M1023.88 1763.64 Q1029.69 1763.64 1032.75 1768.24 Q1035.83 1772.83 1035.83 1781.58 Q1035.83 1790.3 1032.75 1794.91 Q1029.69 1799.49 1023.88 1799.49 Q1018.07 1799.49 1015 1794.91 Q1011.94 1790.3 1011.94 1781.58 Q1011.94 1772.83 1015 1768.24 Q1018.07 1763.64 1023.88 1763.64 Z" fill="#000000" fill-rule="nonzero" fill-opacity="1" /><path clip-path="url(#clip060)" d="M1639.14 1794.89 L1655.46 1794.89 L1655.46 1798.82 L1633.52 1798.82 L1633.52 1794.89 Q1636.18 1792.13 1640.76 1787.5 Q1645.37 1782.85 1646.55 1781.51 Q1648.79 1778.98 1649.67 1777.25 Q1650.58 1775.49 1650.58 1773.8 Q1650.58 1771.04 1648.63 1769.31 Q1646.71 1767.57 1643.61 1767.57 Q1641.41 1767.57 1638.96 1768.34 Q1636.53 1769.1 1633.75 1770.65 L1633.75 1765.93 Q1636.57 1764.79 1639.03 1764.21 Q1641.48 1763.64 1643.52 1763.64 Q1648.89 1763.64 1652.08 1766.32 Q1655.28 1769.01 1655.28 1773.5 Q1655.28 1775.63 1654.47 1777.55 Q1653.68 1779.45 1651.57 1782.04 Q1650.99 1782.71 1647.89 1785.93 Q1644.79 1789.12 1639.14 1794.89 Z" fill="#000000" fill-rule="nonzero" fill-opacity="1" /><path clip-path="url(#clip060)" d="M1675.28 1767.34 Q1671.66 1767.34 1669.84 1770.9 Q1668.03 1774.45 1668.03 1781.58 Q1668.03 1788.68 1669.84 1792.25 Q1671.66 1795.79 1675.28 1795.79 Q1678.91 1795.79 1680.72 1792.25 Q1682.54 1788.68 1682.54 1781.58 Q1682.54 1774.45 1680.72 1770.9 Q1678.91 1767.34 1675.28 1767.34 M1675.28 1763.64 Q1681.09 1763.64 1684.14 1768.24 Q1687.22 1772.83 1687.22 1781.58 Q1687.22 1790.3 1684.14 1794.91 Q1681.09 1799.49 1675.28 1799.49 Q1669.47 1799.49 1666.39 1794.91 Q1663.33 1790.3 1663.33 1781.58 Q1663.33 1772.83 1666.39 1768.24 Q1669.47 1763.64 1675.28 1763.64 Z" fill="#000000" fill-rule="nonzero" fill-opacity="1" /><path clip-path="url(#clip060)" d="M1705.44 1767.34 Q1701.83 1767.34 1700 1770.9 Q1698.19 1774.45 1698.19 1781.58 Q1698.19 1788.68 1700 1792.25 Q1701.83 1795.79 1705.44 1795.79 Q1709.07 1795.79 1710.88 1792.25 Q1712.71 1788.68 1712.71 1781.58 Q1712.71 1774.45 1710.88 1770.9 Q1709.07 1767.34 1705.44 1767.34 M1705.44 1763.64 Q1711.25 1763.64 1714.3 1768.24 Q1717.38 1772.83 1717.38 1781.58 Q1717.38 1790.3 1714.3 1794.91 Q1711.25 1799.49 1705.44 1799.49 Q1699.63 1799.49 1696.55 1794.91 Q1693.49 1790.3 1693.49 1781.58 Q1693.49 1772.83 1696.55 1768.24 Q1699.63 1763.64 1705.44 1763.64 Z" fill="#000000" fill-rule="nonzero" fill-opacity="1" /><path clip-path="url(#clip060)" d="M1735.6 1767.34 Q1731.99 1767.34 1730.16 1770.9 Q1728.35 1774.45 1728.35 1781.58 Q1728.35 1788.68 1730.16 1792.25 Q1731.99 1795.79 1735.6 1795.79 Q1739.23 1795.79 1741.04 1792.25 Q1742.87 1788.68 1742.87 1781.58 Q1742.87 1774.45 1741.04 1770.9 Q1739.23 1767.34 1735.6 1767.34 M1735.6 1763.64 Q1741.41 1763.64 1744.47 1768.24 Q1747.54 1772.83 1747.54 1781.58 Q1747.54 1790.3 1744.47 1794.91 Q1741.41 1799.49 1735.6 1799.49 Q1729.79 1799.49 1726.71 1794.91 Q1723.66 1790.3 1723.66 1781.58 Q1723.66 1772.83 1726.71 1768.24 Q1729.79 1763.64 1735.6 1763.64 Z" fill="#000000" fill-rule="nonzero" fill-opacity="1" /><path clip-path="url(#clip060)" d="M2360.06 1780.19 Q2363.42 1780.9 2365.29 1783.17 Q2367.19 1785.44 2367.19 1788.77 Q2367.19 1793.89 2363.67 1796.69 Q2360.15 1799.49 2353.67 1799.49 Q2351.49 1799.49 2349.18 1799.05 Q2346.89 1798.64 2344.43 1797.78 L2344.43 1793.27 Q2346.38 1794.4 2348.69 1794.98 Q2351.01 1795.56 2353.53 1795.56 Q2357.93 1795.56 2360.22 1793.82 Q2362.54 1792.08 2362.54 1788.77 Q2362.54 1785.72 2360.38 1784.01 Q2358.25 1782.27 2354.43 1782.27 L2350.41 1782.27 L2350.41 1778.43 L2354.62 1778.43 Q2358.07 1778.43 2359.9 1777.06 Q2361.73 1775.67 2361.73 1773.08 Q2361.73 1770.42 2359.83 1769.01 Q2357.95 1767.57 2354.43 1767.57 Q2352.51 1767.57 2350.31 1767.99 Q2348.11 1768.4 2345.48 1769.28 L2345.48 1765.12 Q2348.14 1764.38 2350.45 1764.01 Q2352.79 1763.64 2354.85 1763.64 Q2360.17 1763.64 2363.28 1766.07 Q2366.38 1768.47 2366.38 1772.59 Q2366.38 1775.46 2364.73 1777.46 Q2363.09 1779.42 2360.06 1780.19 Z" fill="#000000" fill-rule="nonzero" fill-opacity="1" /><path clip-path="url(#clip060)" d="M2386.05 1767.34 Q2382.44 1767.34 2380.61 1770.9 Q2378.81 1774.45 2378.81 1781.58 Q2378.81 1788.68 2380.61 1792.25 Q2382.44 1795.79 2386.05 1795.79 Q2389.69 1795.79 2391.49 1792.25 Q2393.32 1788.68 2393.32 1781.58 Q2393.32 1774.45 2391.49 1770.9 Q2389.69 1767.34 2386.05 1767.34 M2386.05 1763.64 Q2391.86 1763.64 2394.92 1768.24 Q2398 1772.83 2398 1781.58 Q2398 1790.3 2394.92 1794.91 Q2391.86 1799.49 2386.05 1799.49 Q2380.24 1799.49 2377.17 1794.91 Q2374.11 1790.3 2374.11 1781.58 Q2374.11 1772.83 2377.17 1768.24 Q2380.24 1763.64 2386.05 1763.64 Z" fill="#000000" fill-rule="nonzero" fill-opacity="1" /><path clip-path="url(#clip060)" d="M2416.22 1767.34 Q2412.6 1767.34 2410.78 1770.9 Q2408.97 1774.45 2408.97 1781.58 Q2408.97 1788.68 2410.78 1792.25 Q2412.6 1795.79 2416.22 1795.79 Q2419.85 1795.79 2421.66 1792.25 Q2423.48 1788.68 2423.48 1781.58 Q2423.48 1774.45 2421.66 1770.9 Q2419.85 1767.34 2416.22 1767.34 M2416.22 1763.64 Q2422.03 1763.64 2425.08 1768.24 Q2428.16 1772.83 2428.16 1781.58 Q2428.16 1790.3 2425.08 1794.91 Q2422.03 1799.49 2416.22 1799.49 Q2410.41 1799.49 2407.33 1794.91 Q2404.27 1790.3 2404.27 1781.58 Q2404.27 1772.83 2407.33 1768.24 Q2410.41 1763.64 2416.22 1763.64 Z" fill="#000000" fill-rule="nonzero" fill-opacity="1" /><path clip-path="url(#clip060)" d="M2446.38 1767.34 Q2442.77 1767.34 2440.94 1770.9 Q2439.13 1774.45 2439.13 1781.58 Q2439.13 1788.68 2440.94 1792.25 Q2442.77 1795.79 2446.38 1795.79 Q2450.01 1795.79 2451.82 1792.25 Q2453.65 1788.68 2453.65 1781.58 Q2453.65 1774.45 2451.82 1770.9 Q2450.01 1767.34 2446.38 1767.34 M2446.38 1763.64 Q2452.19 1763.64 2455.24 1768.24 Q2458.32 1772.83 2458.32 1781.58 Q2458.32 1790.3 2455.24 1794.91 Q2452.19 1799.49 2446.38 1799.49 Q2440.57 1799.49 2437.49 1794.91 Q2434.43 1790.3 2434.43 1781.58 Q2434.43 1772.83 2437.49 1768.24 Q2440.57 1763.64 2446.38 1763.64 Z" fill="#000000" fill-rule="nonzero" fill-opacity="1" /><path clip-path="url(#clip060)" d="M1137.66 1854.5 Q1139.86 1850.55 1142.91 1848.67 Q1145.97 1846.79 1150.1 1846.79 Q1155.67 1846.79 1158.7 1850.71 Q1161.72 1854.59 1161.72 1861.78 L1161.72 1883.3 L1155.83 1883.3 L1155.83 1861.98 Q1155.83 1856.85 1154.02 1854.37 Q1152.21 1851.89 1148.48 1851.89 Q1143.93 1851.89 1141.29 1854.91 Q1138.65 1857.93 1138.65 1863.15 L1138.65 1883.3 L1132.76 1883.3 L1132.76 1861.98 Q1132.76 1856.82 1130.94 1854.37 Q1129.13 1851.89 1125.34 1851.89 Q1120.85 1851.89 1118.21 1854.94 Q1115.57 1857.97 1115.57 1863.15 L1115.57 1883.3 L1109.68 1883.3 L1109.68 1847.65 L1115.57 1847.65 L1115.57 1853.19 Q1117.58 1849.91 1120.38 1848.35 Q1123.18 1846.79 1127.03 1846.79 Q1130.91 1846.79 1133.62 1848.77 Q1136.35 1850.74 1137.66 1854.5 Z" fill="#000000" fill-rule="nonzero" fill-opacity="1" /><path clip-path="url(#clip060)" d="M1189.6 1865.38 Q1182.51 1865.38 1179.77 1867 Q1177.03 1868.63 1177.03 1872.54 Q1177.03 1875.66 1179.07 1877.51 Q1181.14 1879.32 1184.67 1879.32 Q1189.54 1879.32 1192.47 1875.88 Q1195.43 1872.42 1195.43 1866.69 L1195.43 1865.38 L1189.6 1865.38 M1201.29 1862.96 L1201.29 1883.3 L1195.43 1883.3 L1195.43 1877.89 Q1193.42 1881.14 1190.43 1882.7 Q1187.44 1884.22 1183.11 1884.22 Q1177.64 1884.22 1174.39 1881.17 Q1171.18 1878.08 1171.18 1872.92 Q1171.18 1866.91 1175.19 1863.85 Q1179.23 1860.8 1187.22 1860.8 L1195.43 1860.8 L1195.43 1860.23 Q1195.43 1856.18 1192.76 1853.99 Q1190.11 1851.76 1185.31 1851.76 Q1182.25 1851.76 1179.36 1852.49 Q1176.46 1853.22 1173.79 1854.69 L1173.79 1849.28 Q1177 1848.03 1180.02 1847.43 Q1183.05 1846.79 1185.91 1846.79 Q1193.65 1846.79 1197.47 1850.8 Q1201.29 1854.81 1201.29 1862.96 Z" fill="#000000" fill-rule="nonzero" fill-opacity="1" /><path clip-path="url(#clip060)" d="M1242.98 1861.78 L1242.98 1883.3 L1237.12 1883.3 L1237.12 1861.98 Q1237.12 1856.92 1235.15 1854.4 Q1233.18 1851.89 1229.23 1851.89 Q1224.49 1851.89 1221.75 1854.91 Q1219.01 1857.93 1219.01 1863.15 L1219.01 1883.3 L1213.13 1883.3 L1213.13 1847.65 L1219.01 1847.65 L1219.01 1853.19 Q1221.11 1849.98 1223.95 1848.39 Q1226.81 1846.79 1230.54 1846.79 Q1236.68 1846.79 1239.83 1850.61 Q1242.98 1854.4 1242.98 1861.78 Z" fill="#000000" fill-rule="nonzero" fill-opacity="1" /><path clip-path="url(#clip060)" d="M1254.66 1847.65 L1260.52 1847.65 L1260.52 1883.3 L1254.66 1883.3 L1254.66 1847.65 M1254.66 1833.78 L1260.52 1833.78 L1260.52 1841.19 L1254.66 1841.19 L1254.66 1833.78 Z" fill="#000000" fill-rule="nonzero" fill-opacity="1" /><path clip-path="url(#clip060)" d="M1290.82 1833.78 L1290.82 1838.65 L1285.22 1838.65 Q1282.07 1838.65 1280.82 1839.92 Q1279.62 1841.19 1279.62 1844.5 L1279.62 1847.65 L1289.26 1847.65 L1289.26 1852.2 L1279.62 1852.2 L1279.62 1883.3 L1273.73 1883.3 L1273.73 1852.2 L1268.13 1852.2 L1268.13 1847.65 L1273.73 1847.65 L1273.73 1845.17 Q1273.73 1839.22 1276.5 1836.51 Q1279.27 1833.78 1285.28 1833.78 L1290.82 1833.78 Z" fill="#000000" fill-rule="nonzero" fill-opacity="1" /><path clip-path="url(#clip060)" d="M1309.53 1851.76 Q1304.82 1851.76 1302.09 1855.45 Q1299.35 1859.11 1299.35 1865.51 Q1299.35 1871.91 1302.05 1875.6 Q1304.79 1879.26 1309.53 1879.26 Q1314.21 1879.26 1316.95 1875.57 Q1319.69 1871.87 1319.69 1865.51 Q1319.69 1859.17 1316.95 1855.48 Q1314.21 1851.76 1309.53 1851.76 M1309.53 1846.79 Q1317.17 1846.79 1321.53 1851.76 Q1325.89 1856.72 1325.89 1865.51 Q1325.89 1874.26 1321.53 1879.26 Q1317.17 1884.22 1309.53 1884.22 Q1301.86 1884.22 1297.5 1879.26 Q1293.17 1874.26 1293.17 1865.51 Q1293.17 1856.72 1297.5 1851.76 Q1301.86 1846.79 1309.53 1846.79 Z" fill="#000000" fill-rule="nonzero" fill-opacity="1" /><path clip-path="url(#clip060)" d="M1335.6 1833.78 L1341.46 1833.78 L1341.46 1883.3 L1335.6 1883.3 L1335.6 1833.78 Z" fill="#000000" fill-rule="nonzero" fill-opacity="1" /><path clip-path="url(#clip060)" d="M1377.17 1853.06 L1377.17 1833.78 L1383.03 1833.78 L1383.03 1883.3 L1377.17 1883.3 L1377.17 1877.95 Q1375.32 1881.14 1372.49 1882.7 Q1369.69 1884.22 1365.74 1884.22 Q1359.28 1884.22 1355.21 1879.07 Q1351.17 1873.91 1351.17 1865.51 Q1351.17 1857.11 1355.21 1851.95 Q1359.28 1846.79 1365.74 1846.79 Q1369.69 1846.79 1372.49 1848.35 Q1375.32 1849.88 1377.17 1853.06 M1357.21 1865.51 Q1357.21 1871.97 1359.85 1875.66 Q1362.53 1879.32 1367.18 1879.32 Q1371.82 1879.32 1374.5 1875.66 Q1377.17 1871.97 1377.17 1865.51 Q1377.17 1859.05 1374.5 1855.39 Q1371.82 1851.7 1367.18 1851.7 Q1362.53 1851.7 1359.85 1855.39 Q1357.21 1859.05 1357.21 1865.51 Z" fill="#000000" fill-rule="nonzero" fill-opacity="1" /><path clip-path="url(#clip060)" d="M1439.27 1853.06 L1439.27 1833.78 L1445.12 1833.78 L1445.12 1883.3 L1439.27 1883.3 L1439.27 1877.95 Q1437.42 1881.14 1434.59 1882.7 Q1431.79 1884.22 1427.84 1884.22 Q1421.38 1884.22 1417.31 1879.07 Q1413.26 1873.91 1413.26 1865.51 Q1413.26 1857.11 1417.31 1851.95 Q1421.38 1846.79 1427.84 1846.79 Q1431.79 1846.79 1434.59 1848.35 Q1437.42 1849.88 1439.27 1853.06 M1419.31 1865.51 Q1419.31 1871.97 1421.95 1875.66 Q1424.63 1879.32 1429.27 1879.32 Q1433.92 1879.32 1436.59 1875.66 Q1439.27 1871.97 1439.27 1865.51 Q1439.27 1859.05 1436.59 1855.39 Q1433.92 1851.7 1429.27 1851.7 Q1424.63 1851.7 1421.95 1855.39 Q1419.31 1859.05 1419.31 1865.51 Z" fill="#000000" fill-rule="nonzero" fill-opacity="1" /><path clip-path="url(#clip060)" d="M1457.19 1847.65 L1463.04 1847.65 L1463.04 1883.3 L1457.19 1883.3 L1457.19 1847.65 M1457.19 1833.78 L1463.04 1833.78 L1463.04 1841.19 L1457.19 1841.19 L1457.19 1833.78 Z" fill="#000000" fill-rule="nonzero" fill-opacity="1" /><path clip-path="url(#clip060)" d="M1503.05 1854.5 Q1505.25 1850.55 1508.3 1848.67 Q1511.36 1846.79 1515.5 1846.79 Q1521.07 1846.79 1524.09 1850.71 Q1527.11 1854.59 1527.11 1861.78 L1527.11 1883.3 L1521.23 1883.3 L1521.23 1861.98 Q1521.23 1856.85 1519.41 1854.37 Q1517.6 1851.89 1513.87 1851.89 Q1509.32 1851.89 1506.68 1854.91 Q1504.04 1857.93 1504.04 1863.15 L1504.04 1883.3 L1498.15 1883.3 L1498.15 1861.98 Q1498.15 1856.82 1496.34 1854.37 Q1494.52 1851.89 1490.73 1851.89 Q1486.25 1851.89 1483.6 1854.94 Q1480.96 1857.97 1480.96 1863.15 L1480.96 1883.3 L1475.07 1883.3 L1475.07 1847.65 L1480.96 1847.65 L1480.96 1853.19 Q1482.97 1849.91 1485.77 1848.35 Q1488.57 1846.79 1492.42 1846.79 Q1496.3 1846.79 1499.01 1848.77 Q1501.75 1850.74 1503.05 1854.5 Z" fill="#000000" fill-rule="nonzero" fill-opacity="1" /><path clip-path="url(#clip060)" d="M1569.29 1864.01 L1569.29 1866.88 L1542.36 1866.88 Q1542.74 1872.92 1545.99 1876.11 Q1549.27 1879.26 1555.09 1879.26 Q1558.46 1879.26 1561.62 1878.43 Q1564.8 1877.6 1567.92 1875.95 L1567.92 1881.49 Q1564.77 1882.82 1561.46 1883.52 Q1558.15 1884.22 1554.74 1884.22 Q1546.21 1884.22 1541.21 1879.26 Q1536.25 1874.29 1536.25 1865.83 Q1536.25 1857.07 1540.96 1851.95 Q1545.7 1846.79 1553.72 1846.79 Q1560.92 1846.79 1565.09 1851.44 Q1569.29 1856.06 1569.29 1864.01 M1563.43 1862.29 Q1563.37 1857.49 1560.72 1854.62 Q1558.11 1851.76 1553.79 1851.76 Q1548.88 1851.76 1545.92 1854.53 Q1543 1857.3 1542.55 1862.33 L1563.43 1862.29 Z" fill="#000000" fill-rule="nonzero" fill-opacity="1" /><path clip-path="url(#clip060)" d="M1608.53 1861.78 L1608.53 1883.3 L1602.67 1883.3 L1602.67 1861.98 Q1602.67 1856.92 1600.7 1854.4 Q1598.73 1851.89 1594.78 1851.89 Q1590.04 1851.89 1587.3 1854.91 Q1584.56 1857.93 1584.56 1863.15 L1584.56 1883.3 L1578.68 1883.3 L1578.68 1847.65 L1584.56 1847.65 L1584.56 1853.19 Q1586.67 1849.98 1589.5 1848.39 Q1592.36 1846.79 1596.09 1846.79 Q1602.23 1846.79 1605.38 1850.61 Q1608.53 1854.4 1608.53 1861.78 Z" fill="#000000" fill-rule="nonzero" fill-opacity="1" /><path clip-path="url(#clip060)" d="M1642.94 1848.7 L1642.94 1854.24 Q1640.46 1852.97 1637.78 1852.33 Q1635.11 1851.7 1632.24 1851.7 Q1627.88 1851.7 1625.69 1853.03 Q1623.52 1854.37 1623.52 1857.04 Q1623.52 1859.08 1625.08 1860.26 Q1626.64 1861.4 1631.35 1862.45 L1633.36 1862.9 Q1639.6 1864.24 1642.21 1866.69 Q1644.85 1869.11 1644.85 1873.47 Q1644.85 1878.43 1640.9 1881.33 Q1636.99 1884.22 1630.11 1884.22 Q1627.25 1884.22 1624.13 1883.65 Q1621.04 1883.11 1617.6 1882 L1617.6 1875.95 Q1620.85 1877.64 1624 1878.49 Q1627.15 1879.32 1630.24 1879.32 Q1634.38 1879.32 1636.6 1877.92 Q1638.83 1876.49 1638.83 1873.91 Q1638.83 1871.52 1637.21 1870.25 Q1635.62 1868.98 1630.17 1867.8 L1628.14 1867.32 Q1622.69 1866.18 1620.28 1863.82 Q1617.86 1861.43 1617.86 1857.3 Q1617.86 1852.27 1621.42 1849.53 Q1624.99 1846.79 1631.54 1846.79 Q1634.79 1846.79 1637.65 1847.27 Q1640.52 1847.75 1642.94 1848.7 Z" fill="#000000" fill-rule="nonzero" fill-opacity="1" /><path clip-path="url(#clip060)" d="M1654.17 1847.65 L1660.03 1847.65 L1660.03 1883.3 L1654.17 1883.3 L1654.17 1847.65 M1654.17 1833.78 L1660.03 1833.78 L1660.03 1841.19 L1654.17 1841.19 L1654.17 1833.78 Z" fill="#000000" fill-rule="nonzero" fill-opacity="1" /><path clip-path="url(#clip060)" d="M1686.1 1851.76 Q1681.39 1851.76 1678.65 1855.45 Q1675.91 1859.11 1675.91 1865.51 Q1675.91 1871.91 1678.62 1875.6 Q1681.35 1879.26 1686.1 1879.26 Q1690.78 1879.26 1693.51 1875.57 Q1696.25 1871.87 1696.25 1865.51 Q1696.25 1859.17 1693.51 1855.48 Q1690.78 1851.76 1686.1 1851.76 M1686.1 1846.79 Q1693.74 1846.79 1698.1 1851.76 Q1702.46 1856.72 1702.46 1865.51 Q1702.46 1874.26 1698.1 1879.26 Q1693.74 1884.22 1686.1 1884.22 Q1678.43 1884.22 1674.07 1879.26 Q1669.74 1874.26 1669.74 1865.51 Q1669.74 1856.72 1674.07 1851.76 Q1678.43 1846.79 1686.1 1846.79 Z" fill="#000000" fill-rule="nonzero" fill-opacity="1" /><path clip-path="url(#clip060)" d="M1741.8 1861.78 L1741.8 1883.3 L1735.94 1883.3 L1735.94 1861.98 Q1735.94 1856.92 1733.97 1854.4 Q1731.99 1851.89 1728.05 1851.89 Q1723.3 1851.89 1720.57 1854.91 Q1717.83 1857.93 1717.83 1863.15 L1717.83 1883.3 L1711.94 1883.3 L1711.94 1847.65 L1717.83 1847.65 L1717.83 1853.19 Q1719.93 1849.98 1722.76 1848.39 Q1725.63 1846.79 1729.35 1846.79 Q1735.5 1846.79 1738.65 1850.61 Q1741.8 1854.4 1741.8 1861.78 Z" fill="#000000" fill-rule="nonzero" fill-opacity="1" /><polyline clip-path="url(#clip062)" style="stroke:#000000; stroke-linecap:round; stroke-linejoin:round; stroke-width:2; stroke-opacity:0.1; fill:none" points="210.724,1580.28 2640.76,1580.28 "/>
<polyline clip-path="url(#clip062)" style="stroke:#000000; stroke-linecap:round; stroke-linejoin:round; stroke-width:2; stroke-opacity:0.1; fill:none" points="210.724,1262 2640.76,1262 "/>
<polyline clip-path="url(#clip062)" style="stroke:#000000; stroke-linecap:round; stroke-linejoin:round; stroke-width:2; stroke-opacity:0.1; fill:none" points="210.724,943.727 2640.76,943.727 "/>
<polyline clip-path="url(#clip062)" style="stroke:#000000; stroke-linecap:round; stroke-linejoin:round; stroke-width:2; stroke-opacity:0.1; fill:none" points="210.724,625.449 2640.76,625.449 "/>
<polyline clip-path="url(#clip062)" style="stroke:#000000; stroke-linecap:round; stroke-linejoin:round; stroke-width:2; stroke-opacity:0.1; fill:none" points="210.724,307.171 2640.76,307.171 "/>
<polyline clip-path="url(#clip060)" style="stroke:#000000; stroke-linecap:round; stroke-linejoin:round; stroke-width:4; stroke-opacity:1; fill:none" points="210.724,1734.12 210.724,47.2441 "/>
<polyline clip-path="url(#clip060)" style="stroke:#000000; stroke-linecap:round; stroke-linejoin:round; stroke-width:4; stroke-opacity:1; fill:none" points="210.724,1580.28 229.622,1580.28 "/>
<polyline clip-path="url(#clip060)" style="stroke:#000000; stroke-linecap:round; stroke-linejoin:round; stroke-width:4; stroke-opacity:1; fill:none" points="210.724,1262 229.622,1262 "/>
<polyline clip-path="url(#clip060)" style="stroke:#000000; stroke-linecap:round; stroke-linejoin:round; stroke-width:4; stroke-opacity:1; fill:none" points="210.724,943.727 229.622,943.727 "/>
<polyline clip-path="url(#clip060)" style="stroke:#000000; stroke-linecap:round; stroke-linejoin:round; stroke-width:4; stroke-opacity:1; fill:none" points="210.724,625.449 229.622,625.449 "/>
<polyline clip-path="url(#clip060)" style="stroke:#000000; stroke-linecap:round; stroke-linejoin:round; stroke-width:4; stroke-opacity:1; fill:none" points="210.724,307.171 229.622,307.171 "/>
<path clip-path="url(#clip060)" d="M121.839 1593.63 L138.159 1593.63 L138.159 1597.56 L116.214 1597.56 L116.214 1593.63 Q118.876 1590.87 123.46 1586.24 Q128.066 1581.59 129.247 1580.25 Q131.492 1577.72 132.372 1575.99 Q133.275 1574.23 133.275 1572.54 Q133.275 1569.79 131.33 1568.05 Q129.409 1566.31 126.307 1566.31 Q124.108 1566.31 121.654 1567.08 Q119.224 1567.84 116.446 1569.39 L116.446 1564.67 Q119.27 1563.54 121.724 1562.96 Q124.177 1562.38 126.214 1562.38 Q131.585 1562.38 134.779 1565.06 Q137.974 1567.75 137.974 1572.24 Q137.974 1574.37 137.163 1576.29 Q136.376 1578.19 134.27 1580.78 Q133.691 1581.45 130.589 1584.67 Q127.488 1587.86 121.839 1593.63 Z" fill="#000000" fill-rule="nonzero" fill-opacity="1" /><path clip-path="url(#clip060)" d="M160.821 1567.08 L149.015 1585.53 L160.821 1585.53 L160.821 1567.08 M159.594 1563 L165.473 1563 L165.473 1585.53 L170.404 1585.53 L170.404 1589.41 L165.473 1589.41 L165.473 1597.56 L160.821 1597.56 L160.821 1589.41 L145.219 1589.41 L145.219 1584.9 L159.594 1563 Z" fill="#000000" fill-rule="nonzero" fill-opacity="1" /><path clip-path="url(#clip060)" d="M123.228 1275.35 L139.548 1275.35 L139.548 1279.28 L117.603 1279.28 L117.603 1275.35 Q120.265 1272.59 124.849 1267.97 Q129.455 1263.31 130.636 1261.97 Q132.881 1259.45 133.761 1257.71 Q134.663 1255.95 134.663 1254.26 Q134.663 1251.51 132.719 1249.77 Q130.798 1248.03 127.696 1248.03 Q125.497 1248.03 123.043 1248.8 Q120.613 1249.56 117.835 1251.11 L117.835 1246.39 Q120.659 1245.26 123.113 1244.68 Q125.566 1244.1 127.603 1244.1 Q132.974 1244.1 136.168 1246.78 Q139.362 1249.47 139.362 1253.96 Q139.362 1256.09 138.552 1258.01 Q137.765 1259.91 135.659 1262.5 Q135.08 1263.17 131.978 1266.39 Q128.876 1269.59 123.228 1275.35 Z" fill="#000000" fill-rule="nonzero" fill-opacity="1" /><path clip-path="url(#clip060)" d="M148.182 1244.72 L170.404 1244.72 L170.404 1246.72 L157.858 1279.28 L152.974 1279.28 L164.779 1248.66 L148.182 1248.66 L148.182 1244.72 Z" fill="#000000" fill-rule="nonzero" fill-opacity="1" /><path clip-path="url(#clip060)" d="M132.464 942.373 Q135.821 943.09 137.696 945.359 Q139.594 947.627 139.594 950.961 Q139.594 956.076 136.075 958.877 Q132.557 961.678 126.076 961.678 Q123.9 961.678 121.585 961.238 Q119.293 960.822 116.839 959.965 L116.839 955.451 Q118.784 956.586 121.099 957.164 Q123.413 957.743 125.937 957.743 Q130.335 957.743 132.626 956.007 Q134.941 954.271 134.941 950.961 Q134.941 947.905 132.788 946.192 Q130.659 944.456 126.839 944.456 L122.812 944.456 L122.812 940.613 L127.025 940.613 Q130.474 940.613 132.302 939.248 Q134.131 937.859 134.131 935.266 Q134.131 932.604 132.233 931.192 Q130.358 929.757 126.839 929.757 Q124.918 929.757 122.719 930.174 Q120.52 930.59 117.881 931.47 L117.881 927.303 Q120.543 926.563 122.858 926.192 Q125.196 925.822 127.256 925.822 Q132.58 925.822 135.682 928.252 Q138.784 930.66 138.784 934.78 Q138.784 937.651 137.14 939.641 Q135.497 941.609 132.464 942.373 Z" fill="#000000" fill-rule="nonzero" fill-opacity="1" /><path clip-path="url(#clip060)" d="M158.46 929.526 Q154.848 929.526 153.02 933.09 Q151.214 936.632 151.214 943.762 Q151.214 950.868 153.02 954.433 Q154.848 957.974 158.46 957.974 Q162.094 957.974 163.899 954.433 Q165.728 950.868 165.728 943.762 Q165.728 936.632 163.899 933.09 Q162.094 929.526 158.46 929.526 M158.46 925.822 Q164.27 925.822 167.325 930.428 Q170.404 935.012 170.404 943.762 Q170.404 952.488 167.325 957.095 Q164.27 961.678 158.46 961.678 Q152.649 961.678 149.571 957.095 Q146.515 952.488 146.515 943.762 Q146.515 935.012 149.571 930.428 Q152.649 925.822 158.46 925.822 Z" fill="#000000" fill-rule="nonzero" fill-opacity="1" /><path clip-path="url(#clip060)" d="M133.113 624.095 Q136.469 624.812 138.344 627.081 Q140.242 629.349 140.242 632.683 Q140.242 637.798 136.724 640.599 Q133.205 643.4 126.724 643.4 Q124.548 643.4 122.233 642.96 Q119.941 642.544 117.488 641.687 L117.488 637.173 Q119.432 638.308 121.747 638.886 Q124.062 639.465 126.585 639.465 Q130.983 639.465 133.275 637.729 Q135.589 635.993 135.589 632.683 Q135.589 629.627 133.437 627.914 Q131.307 626.178 127.488 626.178 L123.46 626.178 L123.46 622.336 L127.673 622.336 Q131.122 622.336 132.95 620.97 Q134.779 619.581 134.779 616.988 Q134.779 614.326 132.881 612.914 Q131.006 611.479 127.488 611.479 Q125.566 611.479 123.367 611.896 Q121.168 612.312 118.529 613.192 L118.529 609.025 Q121.191 608.285 123.506 607.914 Q125.844 607.544 127.904 607.544 Q133.228 607.544 136.33 609.974 Q139.432 612.382 139.432 616.502 Q139.432 619.373 137.788 621.363 Q136.145 623.331 133.113 624.095 Z" fill="#000000" fill-rule="nonzero" fill-opacity="1" /><path clip-path="url(#clip060)" d="M163.274 624.095 Q166.631 624.812 168.506 627.081 Q170.404 629.349 170.404 632.683 Q170.404 637.798 166.885 640.599 Q163.367 643.4 156.886 643.4 Q154.71 643.4 152.395 642.96 Q150.103 642.544 147.649 641.687 L147.649 637.173 Q149.594 638.308 151.909 638.886 Q154.223 639.465 156.747 639.465 Q161.145 639.465 163.436 637.729 Q165.751 635.993 165.751 632.683 Q165.751 629.627 163.598 627.914 Q161.469 626.178 157.649 626.178 L153.622 626.178 L153.622 622.336 L157.835 622.336 Q161.284 622.336 163.112 620.97 Q164.941 619.581 164.941 616.988 Q164.941 614.326 163.043 612.914 Q161.168 611.479 157.649 611.479 Q155.728 611.479 153.529 611.896 Q151.33 612.312 148.691 613.192 L148.691 609.025 Q151.353 608.285 153.668 607.914 Q156.006 607.544 158.066 607.544 Q163.39 607.544 166.492 609.974 Q169.594 612.382 169.594 616.502 Q169.594 619.373 167.95 621.363 Q166.307 623.331 163.274 624.095 Z" fill="#000000" fill-rule="nonzero" fill-opacity="1" /><path clip-path="url(#clip060)" d="M132.302 305.817 Q135.659 306.534 137.534 308.803 Q139.432 311.071 139.432 314.405 Q139.432 319.521 135.913 322.321 Q132.395 325.122 125.913 325.122 Q123.738 325.122 121.423 324.683 Q119.131 324.266 116.677 323.409 L116.677 318.896 Q118.622 320.03 120.937 320.608 Q123.251 321.187 125.775 321.187 Q130.173 321.187 132.464 319.451 Q134.779 317.715 134.779 314.405 Q134.779 311.349 132.626 309.636 Q130.497 307.9 126.677 307.9 L122.65 307.9 L122.65 304.058 L126.863 304.058 Q130.312 304.058 132.14 302.692 Q133.969 301.303 133.969 298.71 Q133.969 296.048 132.071 294.636 Q130.196 293.201 126.677 293.201 Q124.756 293.201 122.557 293.618 Q120.358 294.035 117.719 294.914 L117.719 290.748 Q120.381 290.007 122.696 289.636 Q125.034 289.266 127.094 289.266 Q132.418 289.266 135.52 291.697 Q138.622 294.104 138.622 298.224 Q138.622 301.095 136.978 303.085 Q135.335 305.053 132.302 305.817 Z" fill="#000000" fill-rule="nonzero" fill-opacity="1" /><path clip-path="url(#clip060)" d="M158.876 305.308 Q155.728 305.308 153.876 307.46 Q152.048 309.613 152.048 313.363 Q152.048 317.09 153.876 319.266 Q155.728 321.419 158.876 321.419 Q162.024 321.419 163.853 319.266 Q165.705 317.09 165.705 313.363 Q165.705 309.613 163.853 307.46 Q162.024 305.308 158.876 305.308 M168.159 290.655 L168.159 294.914 Q166.399 294.081 164.594 293.641 Q162.811 293.201 161.052 293.201 Q156.423 293.201 153.969 296.326 Q151.538 299.451 151.191 305.771 Q152.557 303.757 154.617 302.692 Q156.677 301.604 159.154 301.604 Q164.362 301.604 167.372 304.775 Q170.404 307.923 170.404 313.363 Q170.404 318.687 167.256 321.905 Q164.108 325.122 158.876 325.122 Q152.881 325.122 149.71 320.539 Q146.538 315.933 146.538 307.206 Q146.538 299.011 150.427 294.15 Q154.316 289.266 160.867 289.266 Q162.626 289.266 164.409 289.613 Q166.214 289.96 168.159 290.655 Z" fill="#000000" fill-rule="nonzero" fill-opacity="1" /><path clip-path="url(#clip060)" d="M14.1184 1041.12 L14.1184 1034.69 L61.6384 1034.69 L61.6384 1041.12 L14.1184 1041.12 Z" fill="#000000" fill-rule="nonzero" fill-opacity="1" /><path clip-path="url(#clip060)" d="M15.869 1016.36 L25.9905 1016.36 L25.9905 1004.29 L30.542 1004.29 L30.542 1016.36 L49.8937 1016.36 Q54.2542 1016.36 55.4955 1015.18 Q56.7368 1013.97 56.7368 1010.31 L56.7368 1004.29 L61.6384 1004.29 L61.6384 1010.31 Q61.6384 1017.09 59.124 1019.67 Q56.5777 1022.24 49.8937 1022.24 L30.542 1022.24 L30.542 1026.54 L25.9905 1026.54 L25.9905 1022.24 L15.869 1022.24 L15.869 1016.36 Z" fill="#000000" fill-rule="nonzero" fill-opacity="1" /><path clip-path="url(#clip060)" d="M42.3504 966.098 L45.2149 966.098 L45.2149 993.025 Q51.2623 992.643 54.4452 989.397 Q57.5962 986.118 57.5962 980.294 Q57.5962 976.92 56.7687 973.769 Q55.9411 970.586 54.2861 967.467 L59.8242 967.467 Q61.161 970.618 61.8612 973.928 Q62.5615 977.238 62.5615 980.644 Q62.5615 989.174 57.5962 994.171 Q52.631 999.136 44.1646 999.136 Q35.4117 999.136 30.2873 994.426 Q25.1311 989.683 25.1311 981.662 Q25.1311 974.469 29.7781 970.3 Q34.3932 966.098 42.3504 966.098 M40.6316 971.955 Q35.8255 972.018 32.9609 974.66 Q30.0964 977.27 30.0964 981.599 Q30.0964 986.5 32.8654 989.46 Q35.6345 992.389 40.6634 992.834 L40.6316 971.955 Z" fill="#000000" fill-rule="nonzero" fill-opacity="1" /><path clip-path="url(#clip060)" d="M31.465 935.829 Q30.8921 936.816 30.6375 937.994 Q30.351 939.139 30.351 940.54 Q30.351 945.505 33.5975 948.179 Q36.8122 950.821 42.8596 950.821 L61.6384 950.821 L61.6384 956.709 L25.9905 956.709 L25.9905 950.821 L31.5287 950.821 Q28.2821 948.974 26.7225 946.014 Q25.1311 943.054 25.1311 938.821 Q25.1311 938.216 25.2266 937.484 Q25.2903 936.752 25.4494 935.861 L31.465 935.829 Z" fill="#000000" fill-rule="nonzero" fill-opacity="1" /><path clip-path="url(#clip060)" d="M43.719 913.486 Q43.719 920.583 45.3422 923.321 Q46.9655 926.058 50.8804 926.058 Q53.9996 926.058 55.8457 924.021 Q57.6599 921.952 57.6599 918.419 Q57.6599 913.549 54.2224 910.621 Q50.7531 907.661 45.0239 907.661 L43.719 907.661 L43.719 913.486 M41.3 901.805 L61.6384 901.805 L61.6384 907.661 L56.2276 907.661 Q59.4741 909.666 61.0337 912.658 Q62.5615 915.65 62.5615 919.979 Q62.5615 925.453 59.5059 928.7 Q56.4186 931.914 51.2623 931.914 Q45.2467 931.914 42.1912 927.904 Q39.1357 923.862 39.1357 915.873 L39.1357 907.661 L38.5628 907.661 Q34.5205 907.661 32.3244 910.335 Q30.0964 912.976 30.0964 917.783 Q30.0964 920.838 30.8284 923.734 Q31.5605 926.631 33.0246 929.304 L27.6137 929.304 Q26.3724 926.09 25.7677 923.066 Q25.1311 920.042 25.1311 917.178 Q25.1311 909.443 29.1415 905.624 Q33.1519 901.805 41.3 901.805 Z" fill="#000000" fill-rule="nonzero" fill-opacity="1" /><path clip-path="url(#clip060)" d="M15.869 883.949 L25.9905 883.949 L25.9905 871.886 L30.542 871.886 L30.542 883.949 L49.8937 883.949 Q54.2542 883.949 55.4955 882.771 Q56.7368 881.562 56.7368 877.901 L56.7368 871.886 L61.6384 871.886 L61.6384 877.901 Q61.6384 884.681 59.124 887.259 Q56.5777 889.837 49.8937 889.837 L30.542 889.837 L30.542 894.134 L25.9905 894.134 L25.9905 889.837 L15.869 889.837 L15.869 883.949 Z" fill="#000000" fill-rule="nonzero" fill-opacity="1" /><path clip-path="url(#clip060)" d="M25.9905 864.183 L25.9905 858.327 L61.6384 858.327 L61.6384 864.183 L25.9905 864.183 M12.1132 864.183 L12.1132 858.327 L19.5293 858.327 L19.5293 864.183 L12.1132 864.183 Z" fill="#000000" fill-rule="nonzero" fill-opacity="1" /><path clip-path="url(#clip060)" d="M30.0964 832.259 Q30.0964 836.97 33.7885 839.707 Q37.4488 842.444 43.8463 842.444 Q50.2438 842.444 53.9359 839.739 Q57.5962 837.002 57.5962 832.259 Q57.5962 827.58 53.9041 824.843 Q50.212 822.106 43.8463 822.106 Q37.5124 822.106 33.8203 824.843 Q30.0964 827.58 30.0964 832.259 M25.1311 832.259 Q25.1311 824.62 30.0964 820.26 Q35.0616 815.899 43.8463 815.899 Q52.5991 815.899 57.5962 820.26 Q62.5615 824.62 62.5615 832.259 Q62.5615 839.93 57.5962 844.29 Q52.5991 848.619 43.8463 848.619 Q35.0616 848.619 30.0964 844.29 Q25.1311 839.93 25.1311 832.259 Z" fill="#000000" fill-rule="nonzero" fill-opacity="1" /><path clip-path="url(#clip060)" d="M40.1224 776.559 L61.6384 776.559 L61.6384 782.416 L40.3133 782.416 Q35.2526 782.416 32.7381 784.389 Q30.2237 786.363 30.2237 790.309 Q30.2237 795.052 33.2474 797.789 Q36.2711 800.526 41.491 800.526 L61.6384 800.526 L61.6384 806.414 L25.9905 806.414 L25.9905 800.526 L31.5287 800.526 Q28.314 798.426 26.7225 795.593 Q25.1311 792.728 25.1311 789.004 Q25.1311 782.861 28.9505 779.71 Q32.7381 776.559 40.1224 776.559 Z" fill="#000000" fill-rule="nonzero" fill-opacity="1" /><path clip-path="url(#clip060)" d="M27.0408 742.153 L32.579 742.153 Q31.3059 744.635 30.6693 747.309 Q30.0327 749.983 30.0327 752.847 Q30.0327 757.208 31.3695 759.404 Q32.7063 761.568 35.3799 761.568 Q37.4169 761.568 38.5946 760.008 Q39.7404 758.449 40.7908 753.738 L41.2364 751.733 Q42.5732 745.495 45.0239 742.885 Q47.4429 740.243 51.8034 740.243 Q56.7687 740.243 59.6651 744.19 Q62.5615 748.105 62.5615 754.98 Q62.5615 757.844 61.9886 760.963 Q61.4475 764.051 60.3335 767.488 L54.2861 767.488 Q55.973 764.242 56.8323 761.091 Q57.6599 757.94 57.6599 754.852 Q57.6599 750.715 56.2594 748.487 Q54.8271 746.259 52.249 746.259 Q49.8619 746.259 48.5887 747.882 Q47.3156 749.473 46.1379 754.916 L45.6605 756.953 Q44.5147 762.396 42.1594 764.815 Q39.7722 767.234 35.6345 767.234 Q30.6056 767.234 27.8684 763.669 Q25.1311 760.104 25.1311 753.547 Q25.1311 750.301 25.6085 747.436 Q26.086 744.572 27.0408 742.153 Z" fill="#000000" fill-rule="nonzero" fill-opacity="1" /><polyline clip-path="url(#clip062)" style="stroke:#332288; stroke-linecap:round; stroke-linejoin:round; stroke-width:8; stroke-opacity:1; fill:none" points="279.498,1686.38 307.932,1474.19 418.114,1580.28 851.731,1368.1 2571.98,1474.19 "/>
<polyline clip-path="url(#clip062)" style="stroke:#44aa99; stroke-linecap:round; stroke-linejoin:round; stroke-width:8; stroke-opacity:1; fill:none" points="279.498,307.171 307.932,94.9858 418.114,201.078 851.731,94.9858 2571.98,94.9858 "/>
<path clip-path="url(#clip060)" d="M2165.62 1677.89 L2559.75 1677.89 L2559.75 1522.37 L2165.62 1522.37  Z" fill="#ffffff" fill-rule="evenodd" fill-opacity="1"/>
<polyline clip-path="url(#clip060)" style="stroke:#000000; stroke-linecap:round; stroke-linejoin:round; stroke-width:4; stroke-opacity:1; fill:none" points="2165.62,1677.89 2559.75,1677.89 2559.75,1522.37 2165.62,1522.37 2165.62,1677.89 "/>
<polyline clip-path="url(#clip060)" style="stroke:#332288; stroke-linecap:round; stroke-linejoin:round; stroke-width:8; stroke-opacity:1; fill:none" points="2192.62,1574.21 2354.62,1574.21 "/>
<path clip-path="url(#clip060)" d="M2386.3 1560.77 L2386.3 1587.65 L2391.95 1587.65 Q2399.1 1587.65 2402.41 1584.4 Q2405.74 1581.16 2405.74 1574.17 Q2405.74 1567.23 2402.41 1564.01 Q2399.1 1560.77 2391.95 1560.77 L2386.3 1560.77 M2381.62 1556.93 L2391.23 1556.93 Q2401.27 1556.93 2405.97 1561.12 Q2410.67 1565.28 2410.67 1574.17 Q2410.67 1583.11 2405.95 1587.3 Q2401.23 1591.49 2391.23 1591.49 L2381.62 1591.49 L2381.62 1556.93 Z" fill="#000000" fill-rule="nonzero" fill-opacity="1" /><path clip-path="url(#clip060)" d="M2444 1559.59 L2444 1564.52 Q2441.64 1562.32 2438.96 1561.23 Q2436.3 1560.15 2433.29 1560.15 Q2427.36 1560.15 2424.21 1563.78 Q2421.07 1567.39 2421.07 1574.24 Q2421.07 1581.07 2424.21 1584.71 Q2427.36 1588.32 2433.29 1588.32 Q2436.3 1588.32 2438.96 1587.23 Q2441.64 1586.14 2444 1583.94 L2444 1588.83 Q2441.55 1590.49 2438.8 1591.33 Q2436.07 1592.16 2433.01 1592.16 Q2425.16 1592.16 2420.65 1587.37 Q2416.13 1582.55 2416.13 1574.24 Q2416.13 1565.91 2420.65 1561.12 Q2425.16 1556.3 2433.01 1556.3 Q2436.11 1556.3 2438.84 1557.14 Q2441.6 1557.95 2444 1559.59 Z" fill="#000000" fill-rule="nonzero" fill-opacity="1" /><path clip-path="url(#clip060)" d="M2462.78 1561.53 L2456.44 1578.73 L2469.14 1578.73 L2462.78 1561.53 M2460.14 1556.93 L2465.44 1556.93 L2478.61 1591.49 L2473.75 1591.49 L2470.6 1582.62 L2455.02 1582.62 L2451.88 1591.49 L2446.94 1591.49 L2460.14 1556.93 Z" fill="#000000" fill-rule="nonzero" fill-opacity="1" /><polyline clip-path="url(#clip060)" style="stroke:#44aa99; stroke-linecap:round; stroke-linejoin:round; stroke-width:8; stroke-opacity:1; fill:none" points="2192.62,1626.05 2354.62,1626.05 "/>
<path clip-path="url(#clip060)" d="M2386.3 1612.61 L2386.3 1639.49 L2391.95 1639.49 Q2399.1 1639.49 2402.41 1636.24 Q2405.74 1633 2405.74 1626.01 Q2405.74 1619.07 2402.41 1615.85 Q2399.1 1612.61 2391.95 1612.61 L2386.3 1612.61 M2381.62 1608.77 L2391.23 1608.77 Q2401.27 1608.77 2405.97 1612.96 Q2410.67 1617.12 2410.67 1626.01 Q2410.67 1634.95 2405.95 1639.14 Q2401.23 1643.33 2391.23 1643.33 L2381.62 1643.33 L2381.62 1608.77 Z" fill="#000000" fill-rule="nonzero" fill-opacity="1" /><path clip-path="url(#clip060)" d="M2444 1611.43 L2444 1616.36 Q2441.64 1614.16 2438.96 1613.07 Q2436.3 1611.99 2433.29 1611.99 Q2427.36 1611.99 2424.21 1615.62 Q2421.07 1619.23 2421.07 1626.08 Q2421.07 1632.91 2424.21 1636.55 Q2427.36 1640.16 2433.29 1640.16 Q2436.3 1640.16 2438.96 1639.07 Q2441.64 1637.98 2444 1635.78 L2444 1640.67 Q2441.55 1642.33 2438.8 1643.17 Q2436.07 1644 2433.01 1644 Q2425.16 1644 2420.65 1639.21 Q2416.13 1634.39 2416.13 1626.08 Q2416.13 1617.75 2420.65 1612.96 Q2425.16 1608.14 2433.01 1608.14 Q2436.11 1608.14 2438.84 1608.98 Q2441.6 1609.79 2444 1611.43 Z" fill="#000000" fill-rule="nonzero" fill-opacity="1" /><path clip-path="url(#clip060)" d="M2455.9 1612.61 L2455.9 1625.6 L2461.78 1625.6 Q2465.05 1625.6 2466.83 1623.91 Q2468.61 1622.22 2468.61 1619.09 Q2468.61 1615.99 2466.83 1614.3 Q2465.05 1612.61 2461.78 1612.61 L2455.9 1612.61 M2451.23 1608.77 L2461.78 1608.77 Q2467.59 1608.77 2470.56 1611.41 Q2473.54 1614.02 2473.54 1619.09 Q2473.54 1624.21 2470.56 1626.82 Q2467.59 1629.44 2461.78 1629.44 L2455.9 1629.44 L2455.9 1643.33 L2451.23 1643.33 L2451.23 1608.77 Z" fill="#000000" fill-rule="nonzero" fill-opacity="1" /><path clip-path="url(#clip060)" d="M2484.49 1612.61 L2484.49 1625.6 L2490.37 1625.6 Q2493.63 1625.6 2495.42 1623.91 Q2497.2 1622.22 2497.2 1619.09 Q2497.2 1615.99 2495.42 1614.3 Q2493.63 1612.61 2490.37 1612.61 L2484.49 1612.61 M2479.81 1608.77 L2490.37 1608.77 Q2496.18 1608.77 2499.14 1611.41 Q2502.13 1614.02 2502.13 1619.09 Q2502.13 1624.21 2499.14 1626.82 Q2496.18 1629.44 2490.37 1629.44 L2484.49 1629.44 L2484.49 1643.33 L2479.81 1643.33 L2479.81 1608.77 Z" fill="#000000" fill-rule="nonzero" fill-opacity="1" /><path clip-path="url(#clip060)" d="M2516.92 1613.37 L2510.58 1630.57 L2523.29 1630.57 L2516.92 1613.37 M2514.28 1608.77 L2519.58 1608.77 L2532.75 1643.33 L2527.89 1643.33 L2524.75 1634.46 L2509.17 1634.46 L2506.02 1643.33 L2501.09 1643.33 L2514.28 1608.77 Z" fill="#000000" fill-rule="nonzero" fill-opacity="1" /></svg>
