<?xml version="1.0" encoding="utf-8"?>
<svg xmlns="http://www.w3.org/2000/svg" xmlns:xlink="http://www.w3.org/1999/xlink" width="672" height="480" viewBox="0 0 2688 1920">
<defs>
  <clipPath id="clip280">
    <rect x="0" y="0" width="2688" height="1920"/>
  </clipPath>
</defs>
<path clip-path="url(#clip280)" d="M0 1920 L2688 1920 L2688 0 L0 0  Z" fill="#ffffff" fill-rule="evenodd" fill-opacity="1"/>
<defs>
  <clipPath id="clip281">
    <rect x="537" y="0" width="1883" height="1883"/>
  </clipPath>
</defs>
<path clip-path="url(#clip280)" d="M113.761 1800.78 L2640.76 1800.78 L2640.76 47.2441 L113.761 47.2441  Z" fill="#ffffff" fill-rule="evenodd" fill-opacity="1"/>
<defs>
  <clipPath id="clip282">
    <rect x="113" y="47" width="2528" height="1755"/>
  </clipPath>
</defs>
<polyline clip-path="url(#clip282)" style="stroke:#000000; stroke-linecap:round; stroke-linejoin:round; stroke-width:2; stroke-opacity:0.1; fill:none" points="173.3,1800.78 173.3,47.2441 "/>
<polyline clip-path="url(#clip282)" style="stroke:#000000; stroke-linecap:round; stroke-linejoin:round; stroke-width:2; stroke-opacity:0.1; fill:none" points="772.284,1800.78 772.284,47.2441 "/>
<polyline clip-path="url(#clip282)" style="stroke:#000000; stroke-linecap:round; stroke-linejoin:round; stroke-width:2; stroke-opacity:0.1; fill:none" points="1371.27,1800.78 1371.27,47.2441 "/>
<polyline clip-path="url(#clip282)" style="stroke:#000000; stroke-linecap:round; stroke-linejoin:round; stroke-width:2; stroke-opacity:0.1; fill:none" points="1970.25,1800.78 1970.25,47.2441 "/>
<polyline clip-path="url(#clip282)" style="stroke:#000000; stroke-linecap:round; stroke-linejoin:round; stroke-width:2; stroke-opacity:0.1; fill:none" points="2569.24,1800.78 2569.24,47.2441 "/>
<polyline clip-path="url(#clip280)" style="stroke:#000000; stroke-linecap:round; stroke-linejoin:round; stroke-width:4; stroke-opacity:1; fill:none" points="113.761,1800.78 2640.76,1800.78 "/>
<polyline clip-path="url(#clip280)" style="stroke:#000000; stroke-linecap:round; stroke-linejoin:round; stroke-width:4; stroke-opacity:1; fill:none" points="173.3,1800.78 173.3,1781.88 "/>
<polyline clip-path="url(#clip280)" style="stroke:#000000; stroke-linecap:round; stroke-linejoin:round; stroke-width:4; stroke-opacity:1; fill:none" points="772.284,1800.78 772.284,1781.88 "/>
<polyline clip-path="url(#clip280)" style="stroke:#000000; stroke-linecap:round; stroke-linejoin:round; stroke-width:4; stroke-opacity:1; fill:none" points="1371.27,1800.78 1371.27,1781.88 "/>
<polyline clip-path="url(#clip280)" style="stroke:#000000; stroke-linecap:round; stroke-linejoin:round; stroke-width:4; stroke-opacity:1; fill:none" points="1970.25,1800.78 1970.25,1781.88 "/>
<polyline clip-path="url(#clip280)" style="stroke:#000000; stroke-linecap:round; stroke-linejoin:round; stroke-width:4; stroke-opacity:1; fill:none" points="2569.24,1800.78 2569.24,1781.88 "/>
<path clip-path="url(#clip280)" d="M173.3 1834 Q169.689 1834 167.86 1837.57 Q166.055 1841.11 166.055 1848.24 Q166.055 1855.34 167.86 1858.91 Q169.689 1862.45 173.3 1862.45 Q176.934 1862.45 178.74 1858.91 Q180.568 1855.34 180.568 1848.24 Q180.568 1841.11 178.74 1837.57 Q176.934 1834 173.3 1834 M173.3 1830.3 Q179.11 1830.3 182.166 1834.9 Q185.244 1839.49 185.244 1848.24 Q185.244 1856.96 182.166 1861.57 Q179.11 1866.15 173.3 1866.15 Q167.49 1866.15 164.411 1861.57 Q161.356 1856.96 161.356 1848.24 Q161.356 1839.49 164.411 1834.9 Q167.49 1830.3 173.3 1830.3 Z" fill="#000000" fill-rule="nonzero" fill-opacity="1" /><path clip-path="url(#clip280)" d="M746.983 1830.92 L765.34 1830.92 L765.34 1834.86 L751.266 1834.86 L751.266 1843.33 Q752.284 1842.98 753.303 1842.82 Q754.321 1842.64 755.34 1842.64 Q761.127 1842.64 764.507 1845.81 Q767.886 1848.98 767.886 1854.4 Q767.886 1859.97 764.414 1863.08 Q760.942 1866.15 754.622 1866.15 Q752.446 1866.15 750.178 1865.78 Q747.933 1865.41 745.525 1864.67 L745.525 1859.97 Q747.608 1861.11 749.831 1861.66 Q752.053 1862.22 754.53 1862.22 Q758.534 1862.22 760.872 1860.11 Q763.21 1858.01 763.21 1854.4 Q763.21 1850.78 760.872 1848.68 Q758.534 1846.57 754.53 1846.57 Q752.655 1846.57 750.78 1846.99 Q748.928 1847.4 746.983 1848.28 L746.983 1830.92 Z" fill="#000000" fill-rule="nonzero" fill-opacity="1" /><path clip-path="url(#clip280)" d="M787.099 1834 Q783.488 1834 781.659 1837.57 Q779.854 1841.11 779.854 1848.24 Q779.854 1855.34 781.659 1858.91 Q783.488 1862.45 787.099 1862.45 Q790.733 1862.45 792.539 1858.91 Q794.367 1855.34 794.367 1848.24 Q794.367 1841.11 792.539 1837.57 Q790.733 1834 787.099 1834 M787.099 1830.3 Q792.909 1830.3 795.965 1834.9 Q799.043 1839.49 799.043 1848.24 Q799.043 1856.96 795.965 1861.57 Q792.909 1866.15 787.099 1866.15 Q781.289 1866.15 778.21 1861.57 Q775.155 1856.96 775.155 1848.24 Q775.155 1839.49 778.21 1834.9 Q781.289 1830.3 787.099 1830.3 Z" fill="#000000" fill-rule="nonzero" fill-opacity="1" /><path clip-path="url(#clip280)" d="M1330.88 1861.55 L1338.51 1861.55 L1338.51 1835.18 L1330.2 1836.85 L1330.2 1832.59 L1338.47 1830.92 L1343.14 1830.92 L1343.14 1861.55 L1350.78 1861.55 L1350.78 1865.48 L1330.88 1865.48 L1330.88 1861.55 Z" fill="#000000" fill-rule="nonzero" fill-opacity="1" /><path clip-path="url(#clip280)" d="M1370.23 1834 Q1366.62 1834 1364.79 1837.57 Q1362.98 1841.11 1362.98 1848.24 Q1362.98 1855.34 1364.79 1858.91 Q1366.62 1862.45 1370.23 1862.45 Q1373.86 1862.45 1375.67 1858.91 Q1377.5 1855.34 1377.5 1848.24 Q1377.5 1841.11 1375.67 1837.57 Q1373.86 1834 1370.23 1834 M1370.23 1830.3 Q1376.04 1830.3 1379.09 1834.9 Q1382.17 1839.49 1382.17 1848.24 Q1382.17 1856.96 1379.09 1861.57 Q1376.04 1866.15 1370.23 1866.15 Q1364.42 1866.15 1361.34 1861.57 Q1358.28 1856.96 1358.28 1848.24 Q1358.28 1839.49 1361.34 1834.9 Q1364.42 1830.3 1370.23 1830.3 Z" fill="#000000" fill-rule="nonzero" fill-opacity="1" /><path clip-path="url(#clip280)" d="M1400.39 1834 Q1396.78 1834 1394.95 1837.57 Q1393.14 1841.11 1393.14 1848.24 Q1393.14 1855.34 1394.95 1858.91 Q1396.78 1862.45 1400.39 1862.45 Q1404.02 1862.45 1405.83 1858.91 Q1407.66 1855.34 1407.66 1848.24 Q1407.66 1841.11 1405.83 1837.57 Q1404.02 1834 1400.39 1834 M1400.39 1830.3 Q1406.2 1830.3 1409.25 1834.9 Q1412.33 1839.49 1412.33 1848.24 Q1412.33 1856.96 1409.25 1861.57 Q1406.2 1866.15 1400.39 1866.15 Q1394.58 1866.15 1391.5 1861.57 Q1388.44 1856.96 1388.44 1848.24 Q1388.44 1839.49 1391.5 1834.9 Q1394.58 1830.3 1400.39 1830.3 Z" fill="#000000" fill-rule="nonzero" fill-opacity="1" /><path clip-path="url(#clip280)" d="M1929.86 1861.55 L1937.5 1861.55 L1937.5 1835.18 L1929.19 1836.85 L1929.19 1832.59 L1937.45 1830.92 L1942.13 1830.92 L1942.13 1861.55 L1949.77 1861.55 L1949.77 1865.48 L1929.86 1865.48 L1929.86 1861.55 Z" fill="#000000" fill-rule="nonzero" fill-opacity="1" /><path clip-path="url(#clip280)" d="M1959.26 1830.92 L1977.61 1830.92 L1977.61 1834.86 L1963.54 1834.86 L1963.54 1843.33 Q1964.56 1842.98 1965.58 1842.82 Q1966.6 1842.64 1967.61 1842.64 Q1973.4 1842.64 1976.78 1845.81 Q1980.16 1848.98 1980.16 1854.4 Q1980.16 1859.97 1976.69 1863.08 Q1973.22 1866.15 1966.9 1866.15 Q1964.72 1866.15 1962.45 1865.78 Q1960.21 1865.41 1957.8 1864.67 L1957.8 1859.97 Q1959.88 1861.11 1962.1 1861.66 Q1964.33 1862.22 1966.8 1862.22 Q1970.81 1862.22 1973.15 1860.11 Q1975.48 1858.01 1975.48 1854.4 Q1975.48 1850.78 1973.15 1848.68 Q1970.81 1846.57 1966.8 1846.57 Q1964.93 1846.57 1963.05 1846.99 Q1961.2 1847.4 1959.26 1848.28 L1959.26 1830.92 Z" fill="#000000" fill-rule="nonzero" fill-opacity="1" /><path clip-path="url(#clip280)" d="M1999.37 1834 Q1995.76 1834 1993.93 1837.57 Q1992.13 1841.11 1992.13 1848.24 Q1992.13 1855.34 1993.93 1858.91 Q1995.76 1862.45 1999.37 1862.45 Q2003.01 1862.45 2004.81 1858.91 Q2006.64 1855.34 2006.64 1848.24 Q2006.64 1841.11 2004.81 1837.57 Q2003.01 1834 1999.37 1834 M1999.37 1830.3 Q2005.18 1830.3 2008.24 1834.9 Q2011.32 1839.49 2011.32 1848.24 Q2011.32 1856.96 2008.24 1861.57 Q2005.18 1866.15 1999.37 1866.15 Q1993.56 1866.15 1990.48 1861.57 Q1987.43 1856.96 1987.43 1848.24 Q1987.43 1839.49 1990.48 1834.9 Q1993.56 1830.3 1999.37 1830.3 Z" fill="#000000" fill-rule="nonzero" fill-opacity="1" /><path clip-path="url(#clip280)" d="M2532.93 1861.55 L2549.25 1861.55 L2549.25 1865.48 L2527.3 1865.48 L2527.3 1861.55 Q2529.97 1858.79 2534.55 1854.16 Q2539.16 1849.51 2540.34 1848.17 Q2542.58 1845.65 2543.46 1843.91 Q2544.36 1842.15 2544.36 1840.46 Q2544.36 1837.71 2542.42 1835.97 Q2540.5 1834.23 2537.4 1834.23 Q2535.2 1834.23 2532.74 1835 Q2530.31 1835.76 2527.54 1837.31 L2527.54 1832.59 Q2530.36 1831.46 2532.81 1830.88 Q2535.27 1830.3 2537.3 1830.3 Q2542.67 1830.3 2545.87 1832.98 Q2549.06 1835.67 2549.06 1840.16 Q2549.06 1842.29 2548.25 1844.21 Q2547.47 1846.11 2545.36 1848.7 Q2544.78 1849.37 2541.68 1852.59 Q2538.58 1855.78 2532.93 1861.55 Z" fill="#000000" fill-rule="nonzero" fill-opacity="1" /><path clip-path="url(#clip280)" d="M2569.06 1834 Q2565.45 1834 2563.62 1837.57 Q2561.82 1841.11 2561.82 1848.24 Q2561.82 1855.34 2563.62 1858.91 Q2565.45 1862.45 2569.06 1862.45 Q2572.7 1862.45 2574.5 1858.91 Q2576.33 1855.34 2576.33 1848.24 Q2576.33 1841.11 2574.5 1837.57 Q2572.7 1834 2569.06 1834 M2569.06 1830.3 Q2574.87 1830.3 2577.93 1834.9 Q2581.01 1839.49 2581.01 1848.24 Q2581.01 1856.96 2577.93 1861.57 Q2574.87 1866.15 2569.06 1866.15 Q2563.25 1866.15 2560.17 1861.57 Q2557.12 1856.96 2557.12 1848.24 Q2557.12 1839.49 2560.17 1834.9 Q2563.25 1830.3 2569.06 1830.3 Z" fill="#000000" fill-rule="nonzero" fill-opacity="1" /><path clip-path="url(#clip280)" d="M2599.23 1834 Q2595.61 1834 2593.79 1837.57 Q2591.98 1841.11 2591.98 1848.24 Q2591.98 1855.34 2593.79 1858.91 Q2595.61 1862.45 2599.23 1862.45 Q2602.86 1862.45 2604.67 1858.91 Q2606.49 1855.34 2606.49 1848.24 Q2606.49 1841.11 2604.67 1837.57 Q2602.86 1834 2599.23 1834 M2599.23 1830.3 Q2605.04 1830.3 2608.09 1834.9 Q2611.17 1839.49 2611.17 1848.24 Q2611.17 1856.96 2608.09 1861.57 Q2605.04 1866.15 2599.23 1866.15 Q2593.42 1866.15 2590.34 1861.57 Q2587.28 1856.96 2587.28 1848.24 Q2587.28 1839.49 2590.34 1834.9 Q2593.42 1830.3 2599.23 1830.3 Z" fill="#000000" fill-rule="nonzero" fill-opacity="1" /><polyline clip-path="url(#clip282)" style="stroke:#000000; stroke-linecap:round; stroke-linejoin:round; stroke-width:2; stroke-opacity:0.1; fill:none" points="113.761,1751.15 2640.76,1751.15 "/>
<polyline clip-path="url(#clip282)" style="stroke:#000000; stroke-linecap:round; stroke-linejoin:round; stroke-width:2; stroke-opacity:0.1; fill:none" points="113.761,1210.28 2640.76,1210.28 "/>
<polyline clip-path="url(#clip282)" style="stroke:#000000; stroke-linecap:round; stroke-linejoin:round; stroke-width:2; stroke-opacity:0.1; fill:none" points="113.761,669.408 2640.76,669.408 "/>
<polyline clip-path="url(#clip282)" style="stroke:#000000; stroke-linecap:round; stroke-linejoin:round; stroke-width:2; stroke-opacity:0.1; fill:none" points="113.761,128.536 2640.76,128.536 "/>
<polyline clip-path="url(#clip280)" style="stroke:#000000; stroke-linecap:round; stroke-linejoin:round; stroke-width:4; stroke-opacity:1; fill:none" points="113.761,1800.78 113.761,47.2441 "/>
<polyline clip-path="url(#clip280)" style="stroke:#000000; stroke-linecap:round; stroke-linejoin:round; stroke-width:4; stroke-opacity:1; fill:none" points="113.761,1751.15 132.659,1751.15 "/>
<polyline clip-path="url(#clip280)" style="stroke:#000000; stroke-linecap:round; stroke-linejoin:round; stroke-width:4; stroke-opacity:1; fill:none" points="113.761,1210.28 132.659,1210.28 "/>
<polyline clip-path="url(#clip280)" style="stroke:#000000; stroke-linecap:round; stroke-linejoin:round; stroke-width:4; stroke-opacity:1; fill:none" points="113.761,669.408 132.659,669.408 "/>
<polyline clip-path="url(#clip280)" style="stroke:#000000; stroke-linecap:round; stroke-linejoin:round; stroke-width:4; stroke-opacity:1; fill:none" points="113.761,128.536 132.659,128.536 "/>
<path clip-path="url(#clip280)" d="M61.4965 1736.95 Q57.8854 1736.95 56.0567 1740.51 Q54.2512 1744.06 54.2512 1751.19 Q54.2512 1758.29 56.0567 1761.86 Q57.8854 1765.4 61.4965 1765.4 Q65.1307 1765.4 66.9363 1761.86 Q68.765 1758.29 68.765 1751.19 Q68.765 1744.06 66.9363 1740.51 Q65.1307 1736.95 61.4965 1736.95 M61.4965 1733.25 Q67.3067 1733.25 70.3622 1737.85 Q73.4409 1742.44 73.4409 1751.19 Q73.4409 1759.91 70.3622 1764.52 Q67.3067 1769.1 61.4965 1769.1 Q55.6864 1769.1 52.6077 1764.52 Q49.5521 1759.91 49.5521 1751.19 Q49.5521 1742.44 52.6077 1737.85 Q55.6864 1733.25 61.4965 1733.25 Z" fill="#000000" fill-rule="nonzero" fill-opacity="1" /><path clip-path="url(#clip280)" d="M53.5336 1223.62 L61.1724 1223.62 L61.1724 1197.26 L52.8623 1198.93 L52.8623 1194.67 L61.1261 1193 L65.802 1193 L65.802 1223.62 L73.4409 1223.62 L73.4409 1227.56 L53.5336 1227.56 L53.5336 1223.62 Z" fill="#000000" fill-rule="nonzero" fill-opacity="1" /><path clip-path="url(#clip280)" d="M57.1215 682.753 L73.4409 682.753 L73.4409 686.688 L51.4966 686.688 L51.4966 682.753 Q54.1586 679.998 58.7419 675.369 Q63.3483 670.716 64.5289 669.373 Q66.7743 666.85 67.6539 665.114 Q68.5567 663.355 68.5567 661.665 Q68.5567 658.91 66.6122 657.174 Q64.6909 655.438 61.5891 655.438 Q59.39 655.438 56.9363 656.202 Q54.5058 656.966 51.728 658.517 L51.728 653.795 Q54.5521 652.66 57.0058 652.082 Q59.4595 651.503 61.4965 651.503 Q66.8668 651.503 70.0613 654.188 Q73.2557 656.873 73.2557 661.364 Q73.2557 663.494 72.4455 665.415 Q71.6585 667.313 69.552 669.906 Q68.9733 670.577 65.8715 673.794 Q62.7696 676.989 57.1215 682.753 Z" fill="#000000" fill-rule="nonzero" fill-opacity="1" /><path clip-path="url(#clip280)" d="M66.3113 127.182 Q69.6678 127.9 71.5427 130.168 Q73.4409 132.437 73.4409 135.77 Q73.4409 140.886 69.9224 143.687 Q66.4039 146.488 59.9224 146.488 Q57.7465 146.488 55.4317 146.048 Q53.1401 145.631 50.6864 144.775 L50.6864 140.261 Q52.6308 141.395 54.9456 141.974 Q57.2604 142.553 59.7836 142.553 Q64.1817 142.553 66.4733 140.816 Q68.7881 139.08 68.7881 135.77 Q68.7881 132.715 66.6354 131.002 Q64.5057 129.266 60.6863 129.266 L56.6586 129.266 L56.6586 125.423 L60.8715 125.423 Q64.3206 125.423 66.1493 124.057 Q67.978 122.668 67.978 120.076 Q67.978 117.414 66.0798 116.002 Q64.2048 114.567 60.6863 114.567 Q58.765 114.567 56.566 114.983 Q54.3669 115.4 51.728 116.28 L51.728 112.113 Q54.3901 111.372 56.7049 111.002 Q59.0428 110.631 61.103 110.631 Q66.427 110.631 69.5289 113.062 Q72.6307 115.469 72.6307 119.59 Q72.6307 122.46 70.9872 124.451 Q69.3437 126.418 66.3113 127.182 Z" fill="#000000" fill-rule="nonzero" fill-opacity="1" /><polyline clip-path="url(#clip282)" style="stroke:#009af9; stroke-linecap:round; stroke-linejoin:round; stroke-width:4; stroke-opacity:1; fill:none" points="185.28,96.8724 197.259,589.586 209.239,877.425 221.219,1084.04 233.198,1218.58 245.178,1284.26 257.158,1328.49 269.137,1355.41 281.117,1370.29 293.097,1386.74 305.076,1400.5 317.056,1411.66 329.036,1421.5 341.016,1429.83 352.995,1437.19 364.975,1445.57 376.955,1453.17 388.934,1459.53 400.914,1465.24 412.894,1471.9 424.873,1478.08 436.853,1483.14 448.833,1489.78 460.812,1495.3 472.792,1500.48 484.772,1504.88 496.751,1508.99 508.731,1513.82 520.711,1518.42 532.691,1522.34 544.67,1526.09 556.65,1530.44 568.63,1533.48 580.609,1537.12 592.589,1540.64 604.569,1543.66 616.548,1546.57 628.528,1550.07 640.508,1553.44 652.487,1556.39 664.467,1559.25 676.447,1561.79 688.426,1564.24 700.406,1566.37 712.386,1569.27 724.365,1571.81 736.345,1574.29 748.325,1576.52 760.305,1578.69 772.284,1580.62 784.264,1582.5 796.244,1584.81 808.223,1587.07 820.203,1589.09 832.183,1591.08 844.162,1592.89 856.142,1594.66 868.122,1596.27 880.101,1597.85 892.081,1599.77 904.061,1601.17 916.04,1602.91 928.02,1604.61 940,1606.17 951.98,1607.71 963.959,1609.13 975.939,1610.52 987.919,1611.79 999.898,1613.03 1011.88,1614.6 1023.86,1615.71 1035.84,1617.14 1047.82,1618.56 1059.8,1619.85 1071.78,1621.14 1083.76,1622.32 1095.74,1623.5 1107.72,1624.57 1119.7,1625.64 1131.67,1626.99 1143.65,1627.96 1155.63,1629.2 1167.61,1630.08 1179.59,1631.23 1191.57,1632.37 1203.55,1633.42 1215.53,1634.47 1227.51,1635.44 1239.49,1636.41 1251.47,1637.31 1263.45,1638.21 1275.43,1639.03 1287.41,1639.85 1299.39,1640.92 1311.37,1641.96 1323.35,1642.67 1335.33,1643.65 1347.31,1644.55 1359.29,1645.21 1371.27,1646.06 1383.25,1646.92 1395.23,1647.71 1407.21,1648.51 1419.19,1649.25 1431.17,1650 1443.15,1650.69 1455.13,1651.38 1467.11,1652.27 1479.09,1652.92 1491.07,1653.75 1503.05,1654.36 1515.02,1655.14 1527,1655.92 1538.98,1656.45 1550.96,1657.19 1562.94,1657.88 1574.92,1658.58 1586.9,1659.23 1598.88,1659.88 1610.86,1660.5 1622.84,1661.12 1634.82,1661.71 1646.8,1662.3 1658.78,1662.85 1670.76,1663.4 1682.74,1663.91 1694.72,1664.63 1706.7,1665.12 1718.68,1665.78 1730.66,1666.25 1742.64,1666.89 1754.62,1667.48 1766.6,1667.93 1778.58,1668.5 1790.56,1669.07 1802.54,1669.62 1814.52,1670.01 1826.5,1670.54 1838.48,1671.06 1850.46,1671.55 1862.44,1672.05 1874.42,1672.52 1886.4,1672.99 1898.37,1673.44 1910.35,1673.89 1922.33,1674.31 1934.31,1674.89 1946.29,1675.3 1958.27,1675.7 1970.25,1676.24 1982.23,1676.62 1994.21,1677.13 2006.19,1677.49 2018.17,1677.98 2030.15,1678.46 2042.13,1678.8 2054.11,1679.26 2066.09,1679.71 2078.07,1680.15 2090.05,1680.57 2102.03,1680.88 2114.01,1681.29 2125.99,1681.7 2137.97,1682.09 2149.95,1682.48 2161.93,1682.86 2173.91,1683.23 2185.89,1683.59 2197.87,1683.95 2209.85,1684.3 2221.83,1684.64 2233.81,1685.09 2245.79,1685.42 2257.77,1685.74 2269.75,1686.17 2281.72,1686.47 2293.7,1686.77 2305.68,1687.18 2317.66,1687.47 2329.64,1687.85 2341.62,1688.24 2353.6,1688.51 2365.58,1688.88 2377.56,1689.23 2389.54,1689.49 2401.52,1689.84 2413.5,1690.18 2425.48,1690.51 2437.46,1690.75 2449.44,1691.08 2461.42,1691.4 2473.4,1691.71 2485.38,1692.02 2497.36,1692.32 2509.34,1692.62 2521.32,1692.9 2533.3,1693.19 2545.28,1693.47 2557.26,1693.75 2569.24,1694.02 "/>
<polyline clip-path="url(#clip282)" style="stroke:#e26f46; stroke-linecap:round; stroke-linejoin:round; stroke-width:4; stroke-opacity:1; fill:none" points="185.28,509.863 197.259,1352.4 209.239,1359.68 221.219,1394.73 233.198,1441.99 245.178,1459.14 257.158,1472.52 269.137,1476.26 281.117,1490.85 293.097,1519.76 305.076,1613.1 317.056,1622.58 329.036,1632.95 341.016,1633.6 352.995,1645.83 364.975,1662.09 376.955,1683.88 388.934,1698.83 400.914,1708.42 412.894,1711.57 424.873,1712.88 436.853,1713.04 448.833,1720.21 460.812,1738.6 472.792,1740.92 484.772,1748.98 496.751,1749.33 508.731,1750.02 520.711,1750.7 532.691,1750.73 544.67,1750.73 556.65,1750.75 568.63,1750.8 580.609,1751.14 592.589,1751.14 604.569,1751.15 616.548,1751.15 628.528,1751.15 640.508,1751.15 652.487,1751.15 664.467,1751.15 676.447,1751.15 688.426,1751.15 700.406,1751.15 "/>
<path clip-path="url(#clip280)" d="M1891.97 261.215 L2556.52 261.215 L2556.52 105.695 L1891.97 105.695  Z" fill="#ffffff" fill-rule="evenodd" fill-opacity="1"/>
<polyline clip-path="url(#clip280)" style="stroke:#000000; stroke-linecap:round; stroke-linejoin:round; stroke-width:4; stroke-opacity:1; fill:none" points="1891.97,261.215 2556.52,261.215 2556.52,105.695 1891.97,105.695 1891.97,261.215 "/>
<polyline clip-path="url(#clip280)" style="stroke:#009af9; stroke-linecap:round; stroke-linejoin:round; stroke-width:4; stroke-opacity:1; fill:none" points="1920.05,157.535 2088.52,157.535 "/>
<path clip-path="url(#clip280)" d="M2142.15 169.885 L2142.15 160.602 L2134.51 160.602 L2134.51 156.76 L2146.78 156.76 L2146.78 171.598 Q2144.07 173.519 2140.81 174.514 Q2137.54 175.487 2133.84 175.487 Q2125.74 175.487 2121.16 170.764 Q2116.6 166.019 2116.6 157.57 Q2116.6 149.098 2121.16 144.376 Q2125.74 139.63 2133.84 139.63 Q2137.22 139.63 2140.25 140.464 Q2143.31 141.297 2145.88 142.917 L2145.88 147.894 Q2143.29 145.695 2140.37 144.584 Q2137.45 143.473 2134.23 143.473 Q2127.89 143.473 2124.7 147.014 Q2121.53 150.556 2121.53 157.57 Q2121.53 164.561 2124.7 168.102 Q2127.89 171.644 2134.23 171.644 Q2136.71 171.644 2138.66 171.227 Q2140.6 170.788 2142.15 169.885 Z" fill="#000000" fill-rule="nonzero" fill-opacity="1" /><path clip-path="url(#clip280)" d="M2170.16 152.871 Q2169.44 152.454 2168.59 152.269 Q2167.75 152.061 2166.73 152.061 Q2163.12 152.061 2161.18 154.422 Q2159.26 156.76 2159.26 161.158 L2159.26 174.815 L2154.97 174.815 L2154.97 148.889 L2159.26 148.889 L2159.26 152.917 Q2160.6 150.556 2162.75 149.422 Q2164.91 148.264 2167.98 148.264 Q2168.42 148.264 2168.96 148.334 Q2169.49 148.38 2170.14 148.496 L2170.16 152.871 Z" fill="#000000" fill-rule="nonzero" fill-opacity="1" /><path clip-path="url(#clip280)" d="M2186.41 161.783 Q2181.25 161.783 2179.26 162.963 Q2177.27 164.144 2177.27 166.991 Q2177.27 169.26 2178.75 170.602 Q2180.25 171.922 2182.82 171.922 Q2186.36 171.922 2188.49 169.422 Q2190.65 166.899 2190.65 162.732 L2190.65 161.783 L2186.41 161.783 M2194.91 160.024 L2194.91 174.815 L2190.65 174.815 L2190.65 170.88 Q2189.19 173.241 2187.01 174.375 Q2184.84 175.487 2181.69 175.487 Q2177.71 175.487 2175.35 173.264 Q2173.01 171.019 2173.01 167.269 Q2173.01 162.894 2175.92 160.672 Q2178.86 158.45 2184.67 158.45 L2190.65 158.45 L2190.65 158.033 Q2190.65 155.093 2188.7 153.496 Q2186.78 151.876 2183.28 151.876 Q2181.06 151.876 2178.96 152.408 Q2176.85 152.94 2174.91 154.005 L2174.91 150.07 Q2177.24 149.167 2179.44 148.727 Q2181.64 148.264 2183.72 148.264 Q2189.35 148.264 2192.13 151.181 Q2194.91 154.098 2194.91 160.024 Z" fill="#000000" fill-rule="nonzero" fill-opacity="1" /><path clip-path="url(#clip280)" d="M2220.74 152.825 L2220.74 138.797 L2225 138.797 L2225 174.815 L2220.74 174.815 L2220.74 170.926 Q2219.4 173.241 2217.34 174.375 Q2215.3 175.487 2212.43 175.487 Q2207.73 175.487 2204.77 171.737 Q2201.83 167.987 2201.83 161.876 Q2201.83 155.764 2204.77 152.014 Q2207.73 148.264 2212.43 148.264 Q2215.3 148.264 2217.34 149.399 Q2219.4 150.51 2220.74 152.825 M2206.22 161.876 Q2206.22 166.575 2208.15 169.26 Q2210.09 171.922 2213.47 171.922 Q2216.85 171.922 2218.79 169.26 Q2220.74 166.575 2220.74 161.876 Q2220.74 157.176 2218.79 154.514 Q2216.85 151.829 2213.47 151.829 Q2210.09 151.829 2208.15 154.514 Q2206.22 157.176 2206.22 161.876 Z" fill="#000000" fill-rule="nonzero" fill-opacity="1" /><path clip-path="url(#clip280)" d="M2233.77 148.889 L2238.03 148.889 L2238.03 174.815 L2233.77 174.815 L2233.77 148.889 M2233.77 138.797 L2238.03 138.797 L2238.03 144.19 L2233.77 144.19 L2233.77 138.797 Z" fill="#000000" fill-rule="nonzero" fill-opacity="1" /><path clip-path="url(#clip280)" d="M2269.12 160.788 L2269.12 162.871 L2249.53 162.871 Q2249.81 167.269 2252.17 169.584 Q2254.56 171.875 2258.79 171.875 Q2261.25 171.875 2263.54 171.274 Q2265.85 170.672 2268.12 169.468 L2268.12 173.496 Q2265.83 174.468 2263.42 174.977 Q2261.02 175.487 2258.54 175.487 Q2252.34 175.487 2248.7 171.875 Q2245.09 168.264 2245.09 162.107 Q2245.09 155.741 2248.52 152.014 Q2251.97 148.264 2257.8 148.264 Q2263.03 148.264 2266.06 151.644 Q2269.12 155.001 2269.12 160.788 M2264.86 159.538 Q2264.81 156.042 2262.89 153.959 Q2260.99 151.876 2257.84 151.876 Q2254.28 151.876 2252.13 153.889 Q2250 155.903 2249.67 159.561 L2264.86 159.538 Z" fill="#000000" fill-rule="nonzero" fill-opacity="1" /><path clip-path="url(#clip280)" d="M2297.66 159.167 L2297.66 174.815 L2293.4 174.815 L2293.4 159.306 Q2293.4 155.626 2291.96 153.797 Q2290.53 151.968 2287.66 151.968 Q2284.21 151.968 2282.22 154.167 Q2280.23 156.366 2280.23 160.163 L2280.23 174.815 L2275.95 174.815 L2275.95 148.889 L2280.23 148.889 L2280.23 152.917 Q2281.76 150.579 2283.82 149.422 Q2285.9 148.264 2288.61 148.264 Q2293.08 148.264 2295.37 151.042 Q2297.66 153.797 2297.66 159.167 Z" fill="#000000" fill-rule="nonzero" fill-opacity="1" /><path clip-path="url(#clip280)" d="M2310.37 141.528 L2310.37 148.889 L2319.14 148.889 L2319.14 152.2 L2310.37 152.2 L2310.37 166.274 Q2310.37 169.445 2311.22 170.348 Q2312.1 171.25 2314.77 171.25 L2319.14 171.25 L2319.14 174.815 L2314.77 174.815 Q2309.84 174.815 2307.96 172.987 Q2306.09 171.135 2306.09 166.274 L2306.09 152.2 L2302.96 152.2 L2302.96 148.889 L2306.09 148.889 L2306.09 141.528 L2310.37 141.528 Z" fill="#000000" fill-rule="nonzero" fill-opacity="1" /><path clip-path="url(#clip280)" d="M2344.67 144.098 L2344.67 170.973 L2350.32 170.973 Q2357.47 170.973 2360.78 167.732 Q2364.12 164.491 2364.12 157.501 Q2364.12 150.556 2360.78 147.339 Q2357.47 144.098 2350.32 144.098 L2344.67 144.098 M2340 140.255 L2349.6 140.255 Q2359.65 140.255 2364.35 144.445 Q2369.05 148.612 2369.05 157.501 Q2369.05 166.436 2364.33 170.625 Q2359.6 174.815 2349.6 174.815 L2340 174.815 L2340 140.255 Z" fill="#000000" fill-rule="nonzero" fill-opacity="1" /><path clip-path="url(#clip280)" d="M2398.49 160.788 L2398.49 162.871 L2378.91 162.871 Q2379.19 167.269 2381.55 169.584 Q2383.93 171.875 2388.17 171.875 Q2390.62 171.875 2392.91 171.274 Q2395.23 170.672 2397.5 169.468 L2397.5 173.496 Q2395.2 174.468 2392.8 174.977 Q2390.39 175.487 2387.91 175.487 Q2381.71 175.487 2378.08 171.875 Q2374.46 168.264 2374.46 162.107 Q2374.46 155.741 2377.89 152.014 Q2381.34 148.264 2387.17 148.264 Q2392.4 148.264 2395.44 151.644 Q2398.49 155.001 2398.49 160.788 M2394.23 159.538 Q2394.19 156.042 2392.27 153.959 Q2390.37 151.876 2387.22 151.876 Q2383.65 151.876 2381.5 153.889 Q2379.37 155.903 2379.05 159.561 L2394.23 159.538 Z" fill="#000000" fill-rule="nonzero" fill-opacity="1" /><path clip-path="url(#clip280)" d="M2422.01 149.653 L2422.01 153.681 Q2420.2 152.755 2418.26 152.292 Q2416.32 151.829 2414.23 151.829 Q2411.06 151.829 2409.46 152.801 Q2407.89 153.774 2407.89 155.718 Q2407.89 157.2 2409.02 158.056 Q2410.16 158.889 2413.58 159.653 L2415.04 159.977 Q2419.58 160.95 2421.48 162.732 Q2423.4 164.491 2423.4 167.663 Q2423.4 171.274 2420.53 173.38 Q2417.68 175.487 2412.68 175.487 Q2410.6 175.487 2408.33 175.07 Q2406.08 174.676 2403.58 173.866 L2403.58 169.468 Q2405.95 170.695 2408.24 171.32 Q2410.53 171.922 2412.77 171.922 Q2415.78 171.922 2417.4 170.903 Q2419.02 169.862 2419.02 167.987 Q2419.02 166.25 2417.84 165.325 Q2416.69 164.399 2412.73 163.542 L2411.25 163.195 Q2407.29 162.362 2405.53 160.649 Q2403.77 158.913 2403.77 155.903 Q2403.77 152.246 2406.36 150.255 Q2408.95 148.264 2413.72 148.264 Q2416.08 148.264 2418.17 148.612 Q2420.25 148.959 2422.01 149.653 Z" fill="#000000" fill-rule="nonzero" fill-opacity="1" /><path clip-path="url(#clip280)" d="M2448.84 149.885 L2448.84 153.866 Q2447.03 152.871 2445.2 152.385 Q2443.4 151.876 2441.55 151.876 Q2437.4 151.876 2435.11 154.514 Q2432.82 157.13 2432.82 161.876 Q2432.82 166.621 2435.11 169.26 Q2437.4 171.875 2441.55 171.875 Q2443.4 171.875 2445.2 171.389 Q2447.03 170.88 2448.84 169.885 L2448.84 173.82 Q2447.06 174.653 2445.14 175.07 Q2443.24 175.487 2441.08 175.487 Q2435.23 175.487 2431.78 171.806 Q2428.33 168.125 2428.33 161.876 Q2428.33 155.533 2431.8 151.899 Q2435.3 148.264 2441.36 148.264 Q2443.33 148.264 2445.2 148.681 Q2447.08 149.075 2448.84 149.885 Z" fill="#000000" fill-rule="nonzero" fill-opacity="1" /><path clip-path="url(#clip280)" d="M2478.42 160.788 L2478.42 162.871 L2458.84 162.871 Q2459.12 167.269 2461.48 169.584 Q2463.86 171.875 2468.1 171.875 Q2470.55 171.875 2472.84 171.274 Q2475.16 170.672 2477.43 169.468 L2477.43 173.496 Q2475.14 174.468 2472.73 174.977 Q2470.32 175.487 2467.84 175.487 Q2461.64 175.487 2458.01 171.875 Q2454.39 168.264 2454.39 162.107 Q2454.39 155.741 2457.82 152.014 Q2461.27 148.264 2467.1 148.264 Q2472.33 148.264 2475.37 151.644 Q2478.42 155.001 2478.42 160.788 M2474.16 159.538 Q2474.12 156.042 2472.2 153.959 Q2470.3 151.876 2467.15 151.876 Q2463.58 151.876 2461.43 153.889 Q2459.3 155.903 2458.98 159.561 L2474.16 159.538 Z" fill="#000000" fill-rule="nonzero" fill-opacity="1" /><path clip-path="url(#clip280)" d="M2506.96 159.167 L2506.96 174.815 L2502.7 174.815 L2502.7 159.306 Q2502.7 155.626 2501.27 153.797 Q2499.83 151.968 2496.96 151.968 Q2493.51 151.968 2491.52 154.167 Q2489.53 156.366 2489.53 160.163 L2489.53 174.815 L2485.25 174.815 L2485.25 148.889 L2489.53 148.889 L2489.53 152.917 Q2491.06 150.579 2493.12 149.422 Q2495.2 148.264 2497.91 148.264 Q2502.38 148.264 2504.67 151.042 Q2506.96 153.797 2506.96 159.167 Z" fill="#000000" fill-rule="nonzero" fill-opacity="1" /><path clip-path="url(#clip280)" d="M2519.67 141.528 L2519.67 148.889 L2528.45 148.889 L2528.45 152.2 L2519.67 152.2 L2519.67 166.274 Q2519.67 169.445 2520.53 170.348 Q2521.41 171.25 2524.07 171.25 L2528.45 171.25 L2528.45 174.815 L2524.07 174.815 Q2519.14 174.815 2517.26 172.987 Q2515.39 171.135 2515.39 166.274 L2515.39 152.2 L2512.26 152.2 L2512.26 148.889 L2515.39 148.889 L2515.39 141.528 L2519.67 141.528 Z" fill="#000000" fill-rule="nonzero" fill-opacity="1" /><polyline clip-path="url(#clip280)" style="stroke:#e26f46; stroke-linecap:round; stroke-linejoin:round; stroke-width:4; stroke-opacity:1; fill:none" points="1920.05,209.375 2088.52,209.375 "/>
<path clip-path="url(#clip280)" d="M2132.61 195.267 Q2127.52 195.267 2124.51 199.063 Q2121.53 202.859 2121.53 209.41 Q2121.53 215.938 2124.51 219.734 Q2127.52 223.53 2132.61 223.53 Q2137.71 223.53 2140.67 219.734 Q2143.66 215.938 2143.66 209.41 Q2143.66 202.859 2140.67 199.063 Q2137.71 195.267 2132.61 195.267 M2139.16 226.03 L2145.32 232.766 L2139.67 232.766 L2134.56 227.234 Q2133.79 227.28 2133.38 227.303 Q2132.98 227.327 2132.61 227.327 Q2125.32 227.327 2120.95 222.465 Q2116.6 217.581 2116.6 209.41 Q2116.6 201.216 2120.95 196.355 Q2125.32 191.47 2132.61 191.47 Q2139.88 191.47 2144.23 196.355 Q2148.59 201.216 2148.59 209.41 Q2148.59 215.428 2146.16 219.711 Q2143.75 223.993 2139.16 226.03 Z" fill="#000000" fill-rule="nonzero" fill-opacity="1" /><path clip-path="url(#clip280)" d="M2155.28 216.424 L2155.28 200.729 L2159.53 200.729 L2159.53 216.262 Q2159.53 219.942 2160.97 221.794 Q2162.41 223.623 2165.28 223.623 Q2168.72 223.623 2170.72 221.424 Q2172.73 219.225 2172.73 215.428 L2172.73 200.729 L2176.99 200.729 L2176.99 226.655 L2172.73 226.655 L2172.73 222.674 Q2171.18 225.035 2169.12 226.192 Q2167.08 227.327 2164.37 227.327 Q2159.91 227.327 2157.59 224.549 Q2155.28 221.771 2155.28 216.424 M2165.99 200.104 L2165.99 200.104 Z" fill="#000000" fill-rule="nonzero" fill-opacity="1" /><path clip-path="url(#clip280)" d="M2197.54 213.623 Q2192.38 213.623 2190.39 214.803 Q2188.4 215.984 2188.4 218.831 Q2188.4 221.1 2189.88 222.442 Q2191.39 223.762 2193.96 223.762 Q2197.5 223.762 2199.63 221.262 Q2201.78 218.739 2201.78 214.572 L2201.78 213.623 L2197.54 213.623 M2206.04 211.864 L2206.04 226.655 L2201.78 226.655 L2201.78 222.72 Q2200.32 225.081 2198.15 226.215 Q2195.97 227.327 2192.82 227.327 Q2188.84 227.327 2186.48 225.104 Q2184.14 222.859 2184.14 219.109 Q2184.14 214.734 2187.06 212.512 Q2190 210.29 2195.81 210.29 L2201.78 210.29 L2201.78 209.873 Q2201.78 206.933 2199.84 205.336 Q2197.91 203.716 2194.42 203.716 Q2192.2 203.716 2190.09 204.248 Q2187.98 204.78 2186.04 205.845 L2186.04 201.91 Q2188.38 201.007 2190.58 200.567 Q2192.78 200.104 2194.86 200.104 Q2200.48 200.104 2203.26 203.021 Q2206.04 205.938 2206.04 211.864 Z" fill="#000000" fill-rule="nonzero" fill-opacity="1" /><path clip-path="url(#clip280)" d="M2231.34 201.493 L2231.34 205.521 Q2229.53 204.595 2227.59 204.132 Q2225.65 203.669 2223.56 203.669 Q2220.39 203.669 2218.79 204.641 Q2217.22 205.614 2217.22 207.558 Q2217.22 209.04 2218.35 209.896 Q2219.49 210.729 2222.91 211.493 L2224.37 211.817 Q2228.91 212.79 2230.81 214.572 Q2232.73 216.331 2232.73 219.503 Q2232.73 223.114 2229.86 225.22 Q2227.01 227.327 2222.01 227.327 Q2219.93 227.327 2217.66 226.91 Q2215.41 226.516 2212.91 225.706 L2212.91 221.308 Q2215.28 222.535 2217.57 223.16 Q2219.86 223.762 2222.1 223.762 Q2225.11 223.762 2226.73 222.743 Q2228.35 221.702 2228.35 219.827 Q2228.35 218.09 2227.17 217.165 Q2226.02 216.239 2222.06 215.382 L2220.58 215.035 Q2216.62 214.202 2214.86 212.489 Q2213.1 210.753 2213.1 207.743 Q2213.1 204.086 2215.69 202.095 Q2218.28 200.104 2223.05 200.104 Q2225.41 200.104 2227.5 200.452 Q2229.58 200.799 2231.34 201.493 Z" fill="#000000" fill-rule="nonzero" fill-opacity="1" /><path clip-path="url(#clip280)" d="M2239.51 200.729 L2243.77 200.729 L2243.77 226.655 L2239.51 226.655 L2239.51 200.729 M2239.51 190.637 L2243.77 190.637 L2243.77 196.03 L2239.51 196.03 L2239.51 190.637 Z" fill="#000000" fill-rule="nonzero" fill-opacity="1" /><path clip-path="url(#clip280)" d="M2267.94 192.095 L2274.23 192.095 L2289.56 221.007 L2289.56 192.095 L2294.09 192.095 L2294.09 226.655 L2287.8 226.655 L2272.47 197.743 L2272.47 226.655 L2267.94 226.655 L2267.94 192.095 Z" fill="#000000" fill-rule="nonzero" fill-opacity="1" /><path clip-path="url(#clip280)" d="M2325.39 212.628 L2325.39 214.711 L2305.81 214.711 Q2306.09 219.109 2308.45 221.424 Q2310.83 223.715 2315.07 223.715 Q2317.52 223.715 2319.81 223.114 Q2322.13 222.512 2324.4 221.308 L2324.4 225.336 Q2322.1 226.308 2319.7 226.817 Q2317.29 227.327 2314.81 227.327 Q2308.61 227.327 2304.97 223.715 Q2301.36 220.104 2301.36 213.947 Q2301.36 207.581 2304.79 203.854 Q2308.24 200.104 2314.07 200.104 Q2319.3 200.104 2322.34 203.484 Q2325.39 206.841 2325.39 212.628 M2321.13 211.378 Q2321.09 207.882 2319.16 205.799 Q2317.27 203.716 2314.12 203.716 Q2310.55 203.716 2308.4 205.729 Q2306.27 207.743 2305.95 211.401 L2321.13 211.378 Z" fill="#000000" fill-rule="nonzero" fill-opacity="1" /><path clip-path="url(#clip280)" d="M2329.9 200.729 L2334.16 200.729 L2339.49 220.961 L2344.79 200.729 L2349.81 200.729 L2355.14 220.961 L2360.44 200.729 L2364.7 200.729 L2357.91 226.655 L2352.89 226.655 L2347.31 205.405 L2341.71 226.655 L2336.69 226.655 L2329.9 200.729 Z" fill="#000000" fill-rule="nonzero" fill-opacity="1" /><path clip-path="url(#clip280)" d="M2375.37 193.368 L2375.37 200.729 L2384.14 200.729 L2384.14 204.04 L2375.37 204.04 L2375.37 218.114 Q2375.37 221.285 2376.22 222.188 Q2377.1 223.09 2379.77 223.09 L2384.14 223.09 L2384.14 226.655 L2379.77 226.655 Q2374.83 226.655 2372.96 224.827 Q2371.08 222.975 2371.08 218.114 L2371.08 204.04 L2367.96 204.04 L2367.96 200.729 L2371.08 200.729 L2371.08 193.368 L2375.37 193.368 Z" fill="#000000" fill-rule="nonzero" fill-opacity="1" /><path clip-path="url(#clip280)" d="M2399.79 203.716 Q2396.36 203.716 2394.37 206.401 Q2392.38 209.063 2392.38 213.716 Q2392.38 218.368 2394.35 221.053 Q2396.34 223.715 2399.79 223.715 Q2403.19 223.715 2405.18 221.03 Q2407.17 218.345 2407.17 213.716 Q2407.17 209.109 2405.18 206.424 Q2403.19 203.716 2399.79 203.716 M2399.79 200.104 Q2405.34 200.104 2408.52 203.716 Q2411.69 207.327 2411.69 213.716 Q2411.69 220.081 2408.52 223.715 Q2405.34 227.327 2399.79 227.327 Q2394.21 227.327 2391.04 223.715 Q2387.89 220.081 2387.89 213.716 Q2387.89 207.327 2391.04 203.716 Q2394.21 200.104 2399.79 200.104 Z" fill="#000000" fill-rule="nonzero" fill-opacity="1" /><path clip-path="url(#clip280)" d="M2440.3 211.007 L2440.3 226.655 L2436.04 226.655 L2436.04 211.146 Q2436.04 207.466 2434.6 205.637 Q2433.17 203.808 2430.3 203.808 Q2426.85 203.808 2424.86 206.007 Q2422.87 208.206 2422.87 212.003 L2422.87 226.655 L2418.58 226.655 L2418.58 200.729 L2422.87 200.729 L2422.87 204.757 Q2424.39 202.419 2426.45 201.262 Q2428.54 200.104 2431.25 200.104 Q2435.71 200.104 2438.01 202.882 Q2440.3 205.637 2440.3 211.007 Z" fill="#000000" fill-rule="nonzero" fill-opacity="1" /></svg>
