<?xml version="1.0" encoding="utf-8"?>
<svg xmlns="http://www.w3.org/2000/svg" xmlns:xlink="http://www.w3.org/1999/xlink" width="672" height="480" viewBox="0 0 2688 1920">
<defs>
  <clipPath id="clip980">
    <rect x="0" y="0" width="2688" height="1920"/>
  </clipPath>
</defs>
<path clip-path="url(#clip980)" d="M0 1920 L2688 1920 L2688 0 L0 0  Z" fill="#ffffff" fill-rule="evenodd" fill-opacity="1"/>
<defs>
  <clipPath id="clip981">
    <rect x="537" y="0" width="1883" height="1883"/>
  </clipPath>
</defs>
<path clip-path="url(#clip980)" d="M225.654 1734.12 L2640.76 1734.12 L2640.76 47.2441 L225.654 47.2441  Z" fill="#ffffff" fill-rule="evenodd" fill-opacity="1"/>
<defs>
  <clipPath id="clip982">
    <rect x="225" y="47" width="2416" height="1688"/>
  </clipPath>
</defs>
<polyline clip-path="url(#clip982)" style="stroke:#000000; stroke-linecap:round; stroke-linejoin:round; stroke-width:2; stroke-opacity:0.1; fill:none" points="226.995,1734.12 226.995,47.2441 "/>
<polyline clip-path="url(#clip982)" style="stroke:#000000; stroke-linecap:round; stroke-linejoin:round; stroke-width:2; stroke-opacity:0.1; fill:none" points="785.425,1734.12 785.425,47.2441 "/>
<polyline clip-path="url(#clip982)" style="stroke:#000000; stroke-linecap:round; stroke-linejoin:round; stroke-width:2; stroke-opacity:0.1; fill:none" points="1343.86,1734.12 1343.86,47.2441 "/>
<polyline clip-path="url(#clip982)" style="stroke:#000000; stroke-linecap:round; stroke-linejoin:round; stroke-width:2; stroke-opacity:0.1; fill:none" points="1902.29,1734.12 1902.29,47.2441 "/>
<polyline clip-path="url(#clip982)" style="stroke:#000000; stroke-linecap:round; stroke-linejoin:round; stroke-width:2; stroke-opacity:0.1; fill:none" points="2460.72,1734.12 2460.72,47.2441 "/>
<polyline clip-path="url(#clip980)" style="stroke:#000000; stroke-linecap:round; stroke-linejoin:round; stroke-width:4; stroke-opacity:1; fill:none" points="225.654,1734.12 2640.76,1734.12 "/>
<polyline clip-path="url(#clip980)" style="stroke:#000000; stroke-linecap:round; stroke-linejoin:round; stroke-width:4; stroke-opacity:1; fill:none" points="226.995,1734.12 226.995,1715.22 "/>
<polyline clip-path="url(#clip980)" style="stroke:#000000; stroke-linecap:round; stroke-linejoin:round; stroke-width:4; stroke-opacity:1; fill:none" points="785.425,1734.12 785.425,1715.22 "/>
<polyline clip-path="url(#clip980)" style="stroke:#000000; stroke-linecap:round; stroke-linejoin:round; stroke-width:4; stroke-opacity:1; fill:none" points="1343.86,1734.12 1343.86,1715.22 "/>
<polyline clip-path="url(#clip980)" style="stroke:#000000; stroke-linecap:round; stroke-linejoin:round; stroke-width:4; stroke-opacity:1; fill:none" points="1902.29,1734.12 1902.29,1715.22 "/>
<polyline clip-path="url(#clip980)" style="stroke:#000000; stroke-linecap:round; stroke-linejoin:round; stroke-width:4; stroke-opacity:1; fill:none" points="2460.72,1734.12 2460.72,1715.22 "/>
<path clip-path="url(#clip980)" d="M226.995 1767.34 Q223.384 1767.34 221.555 1770.9 Q219.749 1774.45 219.749 1781.58 Q219.749 1788.68 221.555 1792.25 Q223.384 1795.79 226.995 1795.79 Q230.629 1795.79 232.434 1792.25 Q234.263 1788.68 234.263 1781.58 Q234.263 1774.45 232.434 1770.9 Q230.629 1767.34 226.995 1767.34 M226.995 1763.64 Q232.805 1763.64 235.86 1768.24 Q238.939 1772.83 238.939 1781.58 Q238.939 1790.3 235.86 1794.91 Q232.805 1799.49 226.995 1799.49 Q221.185 1799.49 218.106 1794.91 Q215.05 1790.3 215.05 1781.58 Q215.05 1772.83 218.106 1768.24 Q221.185 1763.64 226.995 1763.64 Z" fill="#000000" fill-rule="nonzero" fill-opacity="1" /><path clip-path="url(#clip980)" d="M764.696 1794.89 L781.016 1794.89 L781.016 1798.82 L759.071 1798.82 L759.071 1794.89 Q761.733 1792.13 766.317 1787.5 Q770.923 1782.85 772.104 1781.51 Q774.349 1778.98 775.229 1777.25 Q776.132 1775.49 776.132 1773.8 Q776.132 1771.04 774.187 1769.31 Q772.266 1767.57 769.164 1767.57 Q766.965 1767.57 764.511 1768.34 Q762.081 1769.1 759.303 1770.65 L759.303 1765.93 Q762.127 1764.79 764.581 1764.21 Q767.034 1763.64 769.071 1763.64 Q774.442 1763.64 777.636 1766.32 Q780.831 1769.01 780.831 1773.5 Q780.831 1775.63 780.02 1777.55 Q779.233 1779.45 777.127 1782.04 Q776.548 1782.71 773.446 1785.93 Q770.345 1789.12 764.696 1794.89 Z" fill="#000000" fill-rule="nonzero" fill-opacity="1" /><path clip-path="url(#clip980)" d="M790.877 1764.26 L809.233 1764.26 L809.233 1768.2 L795.159 1768.2 L795.159 1776.67 Q796.178 1776.32 797.196 1776.16 Q798.215 1775.97 799.233 1775.97 Q805.02 1775.97 808.4 1779.15 Q811.779 1782.32 811.779 1787.73 Q811.779 1793.31 808.307 1796.41 Q804.835 1799.49 798.516 1799.49 Q796.34 1799.49 794.071 1799.12 Q791.826 1798.75 789.418 1798.01 L789.418 1793.31 Q791.502 1794.45 793.724 1795 Q795.946 1795.56 798.423 1795.56 Q802.428 1795.56 804.766 1793.45 Q807.104 1791.34 807.104 1787.73 Q807.104 1784.12 804.766 1782.02 Q802.428 1779.91 798.423 1779.91 Q796.548 1779.91 794.673 1780.33 Q792.821 1780.74 790.877 1781.62 L790.877 1764.26 Z" fill="#000000" fill-rule="nonzero" fill-opacity="1" /><path clip-path="url(#clip980)" d="M1318.56 1764.26 L1336.91 1764.26 L1336.91 1768.2 L1322.84 1768.2 L1322.84 1776.67 Q1323.86 1776.32 1324.87 1776.16 Q1325.89 1775.97 1326.91 1775.97 Q1332.7 1775.97 1336.08 1779.15 Q1339.46 1782.32 1339.46 1787.73 Q1339.46 1793.31 1335.99 1796.41 Q1332.51 1799.49 1326.19 1799.49 Q1324.02 1799.49 1321.75 1799.12 Q1319.5 1798.75 1317.1 1798.01 L1317.1 1793.31 Q1319.18 1794.45 1321.4 1795 Q1323.62 1795.56 1326.1 1795.56 Q1330.11 1795.56 1332.44 1793.45 Q1334.78 1791.34 1334.78 1787.73 Q1334.78 1784.12 1332.44 1782.02 Q1330.11 1779.91 1326.1 1779.91 Q1324.23 1779.91 1322.35 1780.33 Q1320.5 1780.74 1318.56 1781.62 L1318.56 1764.26 Z" fill="#000000" fill-rule="nonzero" fill-opacity="1" /><path clip-path="url(#clip980)" d="M1358.67 1767.34 Q1355.06 1767.34 1353.23 1770.9 Q1351.43 1774.45 1351.43 1781.58 Q1351.43 1788.68 1353.23 1792.25 Q1355.06 1795.79 1358.67 1795.79 Q1362.31 1795.79 1364.11 1792.25 Q1365.94 1788.68 1365.94 1781.58 Q1365.94 1774.45 1364.11 1770.9 Q1362.31 1767.34 1358.67 1767.34 M1358.67 1763.64 Q1364.48 1763.64 1367.54 1768.24 Q1370.62 1772.83 1370.62 1781.58 Q1370.62 1790.3 1367.54 1794.91 Q1364.48 1799.49 1358.67 1799.49 Q1352.86 1799.49 1349.78 1794.91 Q1346.73 1790.3 1346.73 1781.58 Q1346.73 1772.83 1349.78 1768.24 Q1352.86 1763.64 1358.67 1763.64 Z" fill="#000000" fill-rule="nonzero" fill-opacity="1" /><path clip-path="url(#clip980)" d="M1876.14 1764.26 L1898.36 1764.26 L1898.36 1766.25 L1885.82 1798.82 L1880.93 1798.82 L1892.74 1768.2 L1876.14 1768.2 L1876.14 1764.26 Z" fill="#000000" fill-rule="nonzero" fill-opacity="1" /><path clip-path="url(#clip980)" d="M1907.53 1764.26 L1925.89 1764.26 L1925.89 1768.2 L1911.81 1768.2 L1911.81 1776.67 Q1912.83 1776.32 1913.85 1776.16 Q1914.87 1775.97 1915.89 1775.97 Q1921.67 1775.97 1925.05 1779.15 Q1928.43 1782.32 1928.43 1787.73 Q1928.43 1793.31 1924.96 1796.41 Q1921.49 1799.49 1915.17 1799.49 Q1912.99 1799.49 1910.72 1799.12 Q1908.48 1798.75 1906.07 1798.01 L1906.07 1793.31 Q1908.16 1794.45 1910.38 1795 Q1912.6 1795.56 1915.08 1795.56 Q1919.08 1795.56 1921.42 1793.45 Q1923.76 1791.34 1923.76 1787.73 Q1923.76 1784.12 1921.42 1782.02 Q1919.08 1779.91 1915.08 1779.91 Q1913.2 1779.91 1911.33 1780.33 Q1909.47 1780.74 1907.53 1781.62 L1907.53 1764.26 Z" fill="#000000" fill-rule="nonzero" fill-opacity="1" /><path clip-path="url(#clip980)" d="M2420.32 1794.89 L2427.96 1794.89 L2427.96 1768.52 L2419.65 1770.19 L2419.65 1765.93 L2427.92 1764.26 L2432.59 1764.26 L2432.59 1794.89 L2440.23 1794.89 L2440.23 1798.82 L2420.32 1798.82 L2420.32 1794.89 Z" fill="#000000" fill-rule="nonzero" fill-opacity="1" /><path clip-path="url(#clip980)" d="M2459.68 1767.34 Q2456.07 1767.34 2454.24 1770.9 Q2452.43 1774.45 2452.43 1781.58 Q2452.43 1788.68 2454.24 1792.25 Q2456.07 1795.79 2459.68 1795.79 Q2463.31 1795.79 2465.12 1792.25 Q2466.94 1788.68 2466.94 1781.58 Q2466.94 1774.45 2465.12 1770.9 Q2463.31 1767.34 2459.68 1767.34 M2459.68 1763.64 Q2465.49 1763.64 2468.54 1768.24 Q2471.62 1772.83 2471.62 1781.58 Q2471.62 1790.3 2468.54 1794.91 Q2465.49 1799.49 2459.68 1799.49 Q2453.87 1799.49 2450.79 1794.91 Q2447.73 1790.3 2447.73 1781.58 Q2447.73 1772.83 2450.79 1768.24 Q2453.87 1763.64 2459.68 1763.64 Z" fill="#000000" fill-rule="nonzero" fill-opacity="1" /><path clip-path="url(#clip980)" d="M2489.84 1767.34 Q2486.23 1767.34 2484.4 1770.9 Q2482.59 1774.45 2482.59 1781.58 Q2482.59 1788.68 2484.4 1792.25 Q2486.23 1795.79 2489.84 1795.79 Q2493.47 1795.79 2495.28 1792.25 Q2497.11 1788.68 2497.11 1781.58 Q2497.11 1774.45 2495.28 1770.9 Q2493.47 1767.34 2489.84 1767.34 M2489.84 1763.64 Q2495.65 1763.64 2498.7 1768.24 Q2501.78 1772.83 2501.78 1781.58 Q2501.78 1790.3 2498.7 1794.91 Q2495.65 1799.49 2489.84 1799.49 Q2484.03 1799.49 2480.95 1794.91 Q2477.89 1790.3 2477.89 1781.58 Q2477.89 1772.83 2480.95 1768.24 Q2484.03 1763.64 2489.84 1763.64 Z" fill="#000000" fill-rule="nonzero" fill-opacity="1" /><path clip-path="url(#clip980)" d="M1145.13 1854.5 Q1147.32 1850.55 1150.38 1848.67 Q1153.43 1846.79 1157.57 1846.79 Q1163.14 1846.79 1166.16 1850.71 Q1169.19 1854.59 1169.19 1861.78 L1169.19 1883.3 L1163.3 1883.3 L1163.3 1861.98 Q1163.3 1856.85 1161.48 1854.37 Q1159.67 1851.89 1155.95 1851.89 Q1151.4 1851.89 1148.75 1854.91 Q1146.11 1857.93 1146.11 1863.15 L1146.11 1883.3 L1140.22 1883.3 L1140.22 1861.98 Q1140.22 1856.82 1138.41 1854.37 Q1136.6 1851.89 1132.81 1851.89 Q1128.32 1851.89 1125.68 1854.94 Q1123.04 1857.97 1123.04 1863.15 L1123.04 1883.3 L1117.15 1883.3 L1117.15 1847.65 L1123.04 1847.65 L1123.04 1853.19 Q1125.04 1849.91 1127.84 1848.35 Q1130.64 1846.79 1134.49 1846.79 Q1138.38 1846.79 1141.08 1848.77 Q1143.82 1850.74 1145.13 1854.5 Z" fill="#000000" fill-rule="nonzero" fill-opacity="1" /><path clip-path="url(#clip980)" d="M1197.07 1865.38 Q1189.97 1865.38 1187.23 1867 Q1184.5 1868.63 1184.5 1872.54 Q1184.5 1875.66 1186.53 1877.51 Q1188.6 1879.32 1192.14 1879.32 Q1197.01 1879.32 1199.93 1875.88 Q1202.89 1872.42 1202.89 1866.69 L1202.89 1865.38 L1197.07 1865.38 M1208.75 1862.96 L1208.75 1883.3 L1202.89 1883.3 L1202.89 1877.89 Q1200.89 1881.14 1197.9 1882.7 Q1194.9 1884.22 1190.58 1884.22 Q1185.1 1884.22 1181.86 1881.17 Q1178.64 1878.08 1178.64 1872.92 Q1178.64 1866.91 1182.65 1863.85 Q1186.69 1860.8 1194.68 1860.8 L1202.89 1860.8 L1202.89 1860.23 Q1202.89 1856.18 1200.22 1853.99 Q1197.58 1851.76 1192.77 1851.76 Q1189.72 1851.76 1186.82 1852.49 Q1183.92 1853.22 1181.25 1854.69 L1181.25 1849.28 Q1184.47 1848.03 1187.49 1847.43 Q1190.51 1846.79 1193.38 1846.79 Q1201.11 1846.79 1204.93 1850.8 Q1208.75 1854.81 1208.75 1862.96 Z" fill="#000000" fill-rule="nonzero" fill-opacity="1" /><path clip-path="url(#clip980)" d="M1250.45 1861.78 L1250.45 1883.3 L1244.59 1883.3 L1244.59 1861.98 Q1244.59 1856.92 1242.62 1854.4 Q1240.64 1851.89 1236.7 1851.89 Q1231.95 1851.89 1229.22 1854.91 Q1226.48 1857.93 1226.48 1863.15 L1226.48 1883.3 L1220.59 1883.3 L1220.59 1847.65 L1226.48 1847.65 L1226.48 1853.19 Q1228.58 1849.98 1231.41 1848.39 Q1234.28 1846.79 1238 1846.79 Q1244.14 1846.79 1247.29 1850.61 Q1250.45 1854.4 1250.45 1861.78 Z" fill="#000000" fill-rule="nonzero" fill-opacity="1" /><path clip-path="url(#clip980)" d="M1262.13 1847.65 L1267.98 1847.65 L1267.98 1883.3 L1262.13 1883.3 L1262.13 1847.65 M1262.13 1833.78 L1267.98 1833.78 L1267.98 1841.19 L1262.13 1841.19 L1262.13 1833.78 Z" fill="#000000" fill-rule="nonzero" fill-opacity="1" /><path clip-path="url(#clip980)" d="M1298.28 1833.78 L1298.28 1838.65 L1292.68 1838.65 Q1289.53 1838.65 1288.29 1839.92 Q1287.08 1841.19 1287.08 1844.5 L1287.08 1847.65 L1296.72 1847.65 L1296.72 1852.2 L1287.08 1852.2 L1287.08 1883.3 L1281.19 1883.3 L1281.19 1852.2 L1275.59 1852.2 L1275.59 1847.65 L1281.19 1847.65 L1281.19 1845.17 Q1281.19 1839.22 1283.96 1836.51 Q1286.73 1833.78 1292.75 1833.78 L1298.28 1833.78 Z" fill="#000000" fill-rule="nonzero" fill-opacity="1" /><path clip-path="url(#clip980)" d="M1317 1851.76 Q1312.29 1851.76 1309.55 1855.45 Q1306.81 1859.11 1306.81 1865.51 Q1306.81 1871.91 1309.52 1875.6 Q1312.26 1879.26 1317 1879.26 Q1321.68 1879.26 1324.42 1875.57 Q1327.15 1871.87 1327.15 1865.51 Q1327.15 1859.17 1324.42 1855.48 Q1321.68 1851.76 1317 1851.76 M1317 1846.79 Q1324.64 1846.79 1329 1851.76 Q1333.36 1856.72 1333.36 1865.51 Q1333.36 1874.26 1329 1879.26 Q1324.64 1884.22 1317 1884.22 Q1309.33 1884.22 1304.97 1879.26 Q1300.64 1874.26 1300.64 1865.51 Q1300.64 1856.72 1304.97 1851.76 Q1309.33 1846.79 1317 1846.79 Z" fill="#000000" fill-rule="nonzero" fill-opacity="1" /><path clip-path="url(#clip980)" d="M1343.07 1833.78 L1348.92 1833.78 L1348.92 1883.3 L1343.07 1883.3 L1343.07 1833.78 Z" fill="#000000" fill-rule="nonzero" fill-opacity="1" /><path clip-path="url(#clip980)" d="M1384.63 1853.06 L1384.63 1833.78 L1390.49 1833.78 L1390.49 1883.3 L1384.63 1883.3 L1384.63 1877.95 Q1382.79 1881.14 1379.96 1882.7 Q1377.16 1884.22 1373.21 1884.22 Q1366.75 1884.22 1362.67 1879.07 Q1358.63 1873.91 1358.63 1865.51 Q1358.63 1857.11 1362.67 1851.95 Q1366.75 1846.79 1373.21 1846.79 Q1377.16 1846.79 1379.96 1848.35 Q1382.79 1849.88 1384.63 1853.06 M1364.68 1865.51 Q1364.68 1871.97 1367.32 1875.66 Q1369.99 1879.32 1374.64 1879.32 Q1379.29 1879.32 1381.96 1875.66 Q1384.63 1871.97 1384.63 1865.51 Q1384.63 1859.05 1381.96 1855.39 Q1379.29 1851.7 1374.64 1851.7 Q1369.99 1851.7 1367.32 1855.39 Q1364.68 1859.05 1364.68 1865.51 Z" fill="#000000" fill-rule="nonzero" fill-opacity="1" /><path clip-path="url(#clip980)" d="M1446.73 1853.06 L1446.73 1833.78 L1452.59 1833.78 L1452.59 1883.3 L1446.73 1883.3 L1446.73 1877.95 Q1444.89 1881.14 1442.05 1882.7 Q1439.25 1884.22 1435.31 1884.22 Q1428.84 1884.22 1424.77 1879.07 Q1420.73 1873.91 1420.73 1865.51 Q1420.73 1857.11 1424.77 1851.95 Q1428.84 1846.79 1435.31 1846.79 Q1439.25 1846.79 1442.05 1848.35 Q1444.89 1849.88 1446.73 1853.06 M1426.78 1865.51 Q1426.78 1871.97 1429.42 1875.66 Q1432.09 1879.32 1436.74 1879.32 Q1441.39 1879.32 1444.06 1875.66 Q1446.73 1871.97 1446.73 1865.51 Q1446.73 1859.05 1444.06 1855.39 Q1441.39 1851.7 1436.74 1851.7 Q1432.09 1851.7 1429.42 1855.39 Q1426.78 1859.05 1426.78 1865.51 Z" fill="#000000" fill-rule="nonzero" fill-opacity="1" /><path clip-path="url(#clip980)" d="M1464.65 1847.65 L1470.51 1847.65 L1470.51 1883.3 L1464.65 1883.3 L1464.65 1847.65 M1464.65 1833.78 L1470.51 1833.78 L1470.51 1841.19 L1464.65 1841.19 L1464.65 1833.78 Z" fill="#000000" fill-rule="nonzero" fill-opacity="1" /><path clip-path="url(#clip980)" d="M1510.52 1854.5 Q1512.71 1850.55 1515.77 1848.67 Q1518.82 1846.79 1522.96 1846.79 Q1528.53 1846.79 1531.56 1850.71 Q1534.58 1854.59 1534.58 1861.78 L1534.58 1883.3 L1528.69 1883.3 L1528.69 1861.98 Q1528.69 1856.85 1526.88 1854.37 Q1525.06 1851.89 1521.34 1851.89 Q1516.79 1851.89 1514.15 1854.91 Q1511.5 1857.93 1511.5 1863.15 L1511.5 1883.3 L1505.62 1883.3 L1505.62 1861.98 Q1505.62 1856.82 1503.8 1854.37 Q1501.99 1851.89 1498.2 1851.89 Q1493.71 1851.89 1491.07 1854.94 Q1488.43 1857.97 1488.43 1863.15 L1488.43 1883.3 L1482.54 1883.3 L1482.54 1847.65 L1488.43 1847.65 L1488.43 1853.19 Q1490.43 1849.91 1493.23 1848.35 Q1496.03 1846.79 1499.89 1846.79 Q1503.77 1846.79 1506.47 1848.77 Q1509.21 1850.74 1510.52 1854.5 Z" fill="#000000" fill-rule="nonzero" fill-opacity="1" /><path clip-path="url(#clip980)" d="M1576.75 1864.01 L1576.75 1866.88 L1549.82 1866.88 Q1550.21 1872.92 1553.45 1876.11 Q1556.73 1879.26 1562.56 1879.26 Q1565.93 1879.26 1569.08 1878.43 Q1572.26 1877.6 1575.38 1875.95 L1575.38 1881.49 Q1572.23 1882.82 1568.92 1883.52 Q1565.61 1884.22 1562.21 1884.22 Q1553.68 1884.22 1548.68 1879.26 Q1543.71 1874.29 1543.71 1865.83 Q1543.71 1857.07 1548.42 1851.95 Q1553.17 1846.79 1561.19 1846.79 Q1568.38 1846.79 1572.55 1851.44 Q1576.75 1856.06 1576.75 1864.01 M1570.9 1862.29 Q1570.83 1857.49 1568.19 1854.62 Q1565.58 1851.76 1561.25 1851.76 Q1556.35 1851.76 1553.39 1854.53 Q1550.46 1857.3 1550.02 1862.33 L1570.9 1862.29 Z" fill="#000000" fill-rule="nonzero" fill-opacity="1" /><path clip-path="url(#clip980)" d="M1616 1861.78 L1616 1883.3 L1610.14 1883.3 L1610.14 1861.98 Q1610.14 1856.92 1608.17 1854.4 Q1606.19 1851.89 1602.25 1851.89 Q1597.5 1851.89 1594.77 1854.91 Q1592.03 1857.93 1592.03 1863.15 L1592.03 1883.3 L1586.14 1883.3 L1586.14 1847.65 L1592.03 1847.65 L1592.03 1853.19 Q1594.13 1849.98 1596.96 1848.39 Q1599.83 1846.79 1603.55 1846.79 Q1609.69 1846.79 1612.85 1850.61 Q1616 1854.4 1616 1861.78 Z" fill="#000000" fill-rule="nonzero" fill-opacity="1" /><path clip-path="url(#clip980)" d="M1650.4 1848.7 L1650.4 1854.24 Q1647.92 1852.97 1645.25 1852.33 Q1642.57 1851.7 1639.71 1851.7 Q1635.35 1851.7 1633.15 1853.03 Q1630.99 1854.37 1630.99 1857.04 Q1630.99 1859.08 1632.55 1860.26 Q1634.11 1861.4 1638.82 1862.45 L1640.82 1862.9 Q1647.06 1864.24 1649.67 1866.69 Q1652.31 1869.11 1652.31 1873.47 Q1652.31 1878.43 1648.37 1881.33 Q1644.45 1884.22 1637.58 1884.22 Q1634.71 1884.22 1631.59 1883.65 Q1628.51 1883.11 1625.07 1882 L1625.07 1875.95 Q1628.31 1877.64 1631.47 1878.49 Q1634.62 1879.32 1637.7 1879.32 Q1641.84 1879.32 1644.07 1877.92 Q1646.3 1876.49 1646.3 1873.91 Q1646.3 1871.52 1644.67 1870.25 Q1643.08 1868.98 1637.64 1867.8 L1635.6 1867.32 Q1630.16 1866.18 1627.74 1863.82 Q1625.32 1861.43 1625.32 1857.3 Q1625.32 1852.27 1628.89 1849.53 Q1632.45 1846.79 1639.01 1846.79 Q1642.25 1846.79 1645.12 1847.27 Q1647.98 1847.75 1650.4 1848.7 Z" fill="#000000" fill-rule="nonzero" fill-opacity="1" /><path clip-path="url(#clip980)" d="M1661.64 1847.65 L1667.5 1847.65 L1667.5 1883.3 L1661.64 1883.3 L1661.64 1847.65 M1661.64 1833.78 L1667.5 1833.78 L1667.5 1841.19 L1661.64 1841.19 L1661.64 1833.78 Z" fill="#000000" fill-rule="nonzero" fill-opacity="1" /><path clip-path="url(#clip980)" d="M1693.56 1851.76 Q1688.85 1851.76 1686.11 1855.45 Q1683.38 1859.11 1683.38 1865.51 Q1683.38 1871.91 1686.08 1875.6 Q1688.82 1879.26 1693.56 1879.26 Q1698.24 1879.26 1700.98 1875.57 Q1703.72 1871.87 1703.72 1865.51 Q1703.72 1859.17 1700.98 1855.48 Q1698.24 1851.76 1693.56 1851.76 M1693.56 1846.79 Q1701.2 1846.79 1705.56 1851.76 Q1709.92 1856.72 1709.92 1865.51 Q1709.92 1874.26 1705.56 1879.26 Q1701.2 1884.22 1693.56 1884.22 Q1685.89 1884.22 1681.53 1879.26 Q1677.2 1874.26 1677.2 1865.51 Q1677.2 1856.72 1681.53 1851.76 Q1685.89 1846.79 1693.56 1846.79 Z" fill="#000000" fill-rule="nonzero" fill-opacity="1" /><path clip-path="url(#clip980)" d="M1749.26 1861.78 L1749.26 1883.3 L1743.41 1883.3 L1743.41 1861.98 Q1743.41 1856.92 1741.43 1854.4 Q1739.46 1851.89 1735.51 1851.89 Q1730.77 1851.89 1728.03 1854.91 Q1725.3 1857.93 1725.3 1863.15 L1725.3 1883.3 L1719.41 1883.3 L1719.41 1847.65 L1725.3 1847.65 L1725.3 1853.19 Q1727.4 1849.98 1730.23 1848.39 Q1733.09 1846.79 1736.82 1846.79 Q1742.96 1846.79 1746.11 1850.61 Q1749.26 1854.4 1749.26 1861.78 Z" fill="#000000" fill-rule="nonzero" fill-opacity="1" /><polyline clip-path="url(#clip982)" style="stroke:#000000; stroke-linecap:round; stroke-linejoin:round; stroke-width:2; stroke-opacity:0.1; fill:none" points="225.654,1709.32 2640.76,1709.32 "/>
<polyline clip-path="url(#clip982)" style="stroke:#000000; stroke-linecap:round; stroke-linejoin:round; stroke-width:2; stroke-opacity:0.1; fill:none" points="225.654,1273.32 2640.76,1273.32 "/>
<polyline clip-path="url(#clip982)" style="stroke:#000000; stroke-linecap:round; stroke-linejoin:round; stroke-width:2; stroke-opacity:0.1; fill:none" points="225.654,837.312 2640.76,837.312 "/>
<polyline clip-path="url(#clip982)" style="stroke:#000000; stroke-linecap:round; stroke-linejoin:round; stroke-width:2; stroke-opacity:0.1; fill:none" points="225.654,401.307 2640.76,401.307 "/>
<polyline clip-path="url(#clip980)" style="stroke:#000000; stroke-linecap:round; stroke-linejoin:round; stroke-width:4; stroke-opacity:1; fill:none" points="225.654,1734.12 225.654,47.2441 "/>
<polyline clip-path="url(#clip980)" style="stroke:#000000; stroke-linecap:round; stroke-linejoin:round; stroke-width:4; stroke-opacity:1; fill:none" points="225.654,1709.32 244.552,1709.32 "/>
<polyline clip-path="url(#clip980)" style="stroke:#000000; stroke-linecap:round; stroke-linejoin:round; stroke-width:4; stroke-opacity:1; fill:none" points="225.654,1273.32 244.552,1273.32 "/>
<polyline clip-path="url(#clip980)" style="stroke:#000000; stroke-linecap:round; stroke-linejoin:round; stroke-width:4; stroke-opacity:1; fill:none" points="225.654,837.312 244.552,837.312 "/>
<polyline clip-path="url(#clip980)" style="stroke:#000000; stroke-linecap:round; stroke-linejoin:round; stroke-width:4; stroke-opacity:1; fill:none" points="225.654,401.307 244.552,401.307 "/>
<path clip-path="url(#clip980)" d="M128.159 1695.12 Q124.548 1695.12 122.719 1698.68 Q120.913 1702.23 120.913 1709.36 Q120.913 1716.46 122.719 1720.03 Q124.548 1723.57 128.159 1723.57 Q131.793 1723.57 133.599 1720.03 Q135.427 1716.46 135.427 1709.36 Q135.427 1702.23 133.599 1698.68 Q131.793 1695.12 128.159 1695.12 M128.159 1691.42 Q133.969 1691.42 137.025 1696.02 Q140.103 1700.61 140.103 1709.36 Q140.103 1718.08 137.025 1722.69 Q133.969 1727.27 128.159 1727.27 Q122.349 1727.27 119.27 1722.69 Q116.214 1718.08 116.214 1709.36 Q116.214 1700.61 119.27 1696.02 Q122.349 1691.42 128.159 1691.42 Z" fill="#000000" fill-rule="nonzero" fill-opacity="1" /><path clip-path="url(#clip980)" d="M148.321 1720.72 L153.205 1720.72 L153.205 1726.6 L148.321 1726.6 L148.321 1720.72 Z" fill="#000000" fill-rule="nonzero" fill-opacity="1" /><path clip-path="url(#clip980)" d="M173.39 1695.12 Q169.779 1695.12 167.95 1698.68 Q166.145 1702.23 166.145 1709.36 Q166.145 1716.46 167.95 1720.03 Q169.779 1723.57 173.39 1723.57 Q177.024 1723.57 178.83 1720.03 Q180.659 1716.46 180.659 1709.36 Q180.659 1702.23 178.83 1698.68 Q177.024 1695.12 173.39 1695.12 M173.39 1691.42 Q179.2 1691.42 182.256 1696.02 Q185.334 1700.61 185.334 1709.36 Q185.334 1718.08 182.256 1722.69 Q179.2 1727.27 173.39 1727.27 Q167.58 1727.27 164.501 1722.69 Q161.446 1718.08 161.446 1709.36 Q161.446 1700.61 164.501 1696.02 Q167.58 1691.42 173.39 1691.42 Z" fill="#000000" fill-rule="nonzero" fill-opacity="1" /><path clip-path="url(#clip980)" d="M129.386 1259.12 Q125.775 1259.12 123.946 1262.68 Q122.14 1266.22 122.14 1273.35 Q122.14 1280.46 123.946 1284.02 Q125.775 1287.56 129.386 1287.56 Q133.02 1287.56 134.825 1284.02 Q136.654 1280.46 136.654 1273.35 Q136.654 1266.22 134.825 1262.68 Q133.02 1259.12 129.386 1259.12 M129.386 1255.41 Q135.196 1255.41 138.251 1260.02 Q141.33 1264.6 141.33 1273.35 Q141.33 1282.08 138.251 1286.68 Q135.196 1291.27 129.386 1291.27 Q123.576 1291.27 120.497 1286.68 Q117.441 1282.08 117.441 1273.35 Q117.441 1264.6 120.497 1260.02 Q123.576 1255.41 129.386 1255.41 Z" fill="#000000" fill-rule="nonzero" fill-opacity="1" /><path clip-path="url(#clip980)" d="M149.548 1284.72 L154.432 1284.72 L154.432 1290.6 L149.548 1290.6 L149.548 1284.72 Z" fill="#000000" fill-rule="nonzero" fill-opacity="1" /><path clip-path="url(#clip980)" d="M165.427 1286.66 L173.066 1286.66 L173.066 1260.3 L164.756 1261.96 L164.756 1257.7 L173.02 1256.04 L177.696 1256.04 L177.696 1286.66 L185.334 1286.66 L185.334 1290.6 L165.427 1290.6 L165.427 1286.66 Z" fill="#000000" fill-rule="nonzero" fill-opacity="1" /><path clip-path="url(#clip980)" d="M129.756 823.111 Q126.145 823.111 124.316 826.675 Q122.511 830.217 122.511 837.347 Q122.511 844.453 124.316 848.018 Q126.145 851.559 129.756 851.559 Q133.39 851.559 135.196 848.018 Q137.025 844.453 137.025 837.347 Q137.025 830.217 135.196 826.675 Q133.39 823.111 129.756 823.111 M129.756 819.407 Q135.566 819.407 138.622 824.013 Q141.7 828.597 141.7 837.347 Q141.7 846.073 138.622 850.68 Q135.566 855.263 129.756 855.263 Q123.946 855.263 120.867 850.68 Q117.812 846.073 117.812 837.347 Q117.812 828.597 120.867 824.013 Q123.946 819.407 129.756 819.407 Z" fill="#000000" fill-rule="nonzero" fill-opacity="1" /><path clip-path="url(#clip980)" d="M149.918 848.712 L154.802 848.712 L154.802 854.592 L149.918 854.592 L149.918 848.712 Z" fill="#000000" fill-rule="nonzero" fill-opacity="1" /><path clip-path="url(#clip980)" d="M169.015 850.657 L185.334 850.657 L185.334 854.592 L163.39 854.592 L163.39 850.657 Q166.052 847.902 170.635 843.272 Q175.242 838.62 176.422 837.277 Q178.668 834.754 179.547 833.018 Q180.45 831.259 180.45 829.569 Q180.45 826.814 178.506 825.078 Q176.584 823.342 173.483 823.342 Q171.284 823.342 168.83 824.106 Q166.399 824.87 163.622 826.421 L163.622 821.698 Q166.446 820.564 168.899 819.986 Q171.353 819.407 173.39 819.407 Q178.76 819.407 181.955 822.092 Q185.149 824.777 185.149 829.268 Q185.149 831.398 184.339 833.319 Q183.552 835.217 181.446 837.81 Q180.867 838.481 177.765 841.698 Q174.663 844.893 169.015 850.657 Z" fill="#000000" fill-rule="nonzero" fill-opacity="1" /><path clip-path="url(#clip980)" d="M128.807 387.106 Q125.196 387.106 123.367 390.671 Q121.562 394.212 121.562 401.342 Q121.562 408.448 123.367 412.013 Q125.196 415.555 128.807 415.555 Q132.441 415.555 134.247 412.013 Q136.075 408.448 136.075 401.342 Q136.075 394.212 134.247 390.671 Q132.441 387.106 128.807 387.106 M128.807 383.402 Q134.617 383.402 137.673 388.009 Q140.751 392.592 140.751 401.342 Q140.751 410.069 137.673 414.675 Q134.617 419.259 128.807 419.259 Q122.997 419.259 119.918 414.675 Q116.863 410.069 116.863 401.342 Q116.863 392.592 119.918 388.009 Q122.997 383.402 128.807 383.402 Z" fill="#000000" fill-rule="nonzero" fill-opacity="1" /><path clip-path="url(#clip980)" d="M148.969 412.708 L153.853 412.708 L153.853 418.587 L148.969 418.587 L148.969 412.708 Z" fill="#000000" fill-rule="nonzero" fill-opacity="1" /><path clip-path="url(#clip980)" d="M178.205 399.953 Q181.561 400.671 183.436 402.939 Q185.334 405.208 185.334 408.541 Q185.334 413.657 181.816 416.458 Q178.297 419.259 171.816 419.259 Q169.64 419.259 167.325 418.819 Q165.034 418.402 162.58 417.546 L162.58 413.032 Q164.524 414.166 166.839 414.745 Q169.154 415.323 171.677 415.323 Q176.075 415.323 178.367 413.587 Q180.682 411.851 180.682 408.541 Q180.682 405.485 178.529 403.773 Q176.399 402.036 172.58 402.036 L168.552 402.036 L168.552 398.194 L172.765 398.194 Q176.214 398.194 178.043 396.828 Q179.872 395.439 179.872 392.847 Q179.872 390.185 177.973 388.773 Q176.098 387.337 172.58 387.337 Q170.659 387.337 168.46 387.754 Q166.26 388.171 163.622 389.05 L163.622 384.884 Q166.284 384.143 168.598 383.773 Q170.936 383.402 172.997 383.402 Q178.321 383.402 181.422 385.833 Q184.524 388.24 184.524 392.361 Q184.524 395.231 182.881 397.222 Q181.237 399.189 178.205 399.953 Z" fill="#000000" fill-rule="nonzero" fill-opacity="1" /><path clip-path="url(#clip980)" d="M14.1184 1068.84 L14.1184 1028.64 L19.5293 1028.64 L19.5293 1045.51 L61.6384 1045.51 L61.6384 1051.97 L19.5293 1051.97 L19.5293 1068.84 L14.1184 1068.84 Z" fill="#000000" fill-rule="nonzero" fill-opacity="1" /><path clip-path="url(#clip980)" d="M25.9905 1024.69 L25.9905 1018.84 L61.6384 1018.84 L61.6384 1024.69 L25.9905 1024.69 M12.1132 1024.69 L12.1132 1018.84 L19.5293 1018.84 L19.5293 1024.69 L12.1132 1024.69 Z" fill="#000000" fill-rule="nonzero" fill-opacity="1" /><path clip-path="url(#clip980)" d="M32.8336 978.83 Q28.8869 976.633 27.009 973.578 Q25.1311 970.522 25.1311 966.385 Q25.1311 960.815 29.046 957.791 Q32.9291 954.767 40.1224 954.767 L61.6384 954.767 L61.6384 960.656 L40.3133 960.656 Q35.1889 960.656 32.7063 962.47 Q30.2237 964.284 30.2237 968.008 Q30.2237 972.559 33.2474 975.201 Q36.2711 977.843 41.491 977.843 L61.6384 977.843 L61.6384 983.731 L40.3133 983.731 Q35.1571 983.731 32.7063 985.545 Q30.2237 987.36 30.2237 991.147 Q30.2237 995.635 33.2792 998.277 Q36.3029 1000.92 41.491 1000.92 L61.6384 1000.92 L61.6384 1006.81 L25.9905 1006.81 L25.9905 1000.92 L31.5287 1000.92 Q28.2503 998.913 26.6907 996.113 Q25.1311 993.312 25.1311 989.46 Q25.1311 985.577 27.1045 982.872 Q29.0779 980.135 32.8336 978.83 Z" fill="#000000" fill-rule="nonzero" fill-opacity="1" /><path clip-path="url(#clip980)" d="M42.3504 912.594 L45.2149 912.594 L45.2149 939.521 Q51.2623 939.139 54.4452 935.893 Q57.5962 932.615 57.5962 926.79 Q57.5962 923.416 56.7687 920.265 Q55.9411 917.082 54.2861 913.963 L59.8242 913.963 Q61.161 917.114 61.8612 920.424 Q62.5615 923.734 62.5615 927.14 Q62.5615 935.67 57.5962 940.667 Q52.631 945.633 44.1646 945.633 Q35.4117 945.633 30.2873 940.922 Q25.1311 936.179 25.1311 928.159 Q25.1311 920.965 29.7781 916.796 Q34.3932 912.594 42.3504 912.594 M40.6316 918.451 Q35.8255 918.515 32.9609 921.156 Q30.0964 923.766 30.0964 928.095 Q30.0964 932.997 32.8654 935.957 Q35.6345 938.885 40.6634 939.33 L40.6316 918.451 Z" fill="#000000" fill-rule="nonzero" fill-opacity="1" /><path clip-path="url(#clip980)" d="M12.1769 868.194 Q19.4975 872.459 26.6589 874.528 Q33.8203 876.596 41.1727 876.596 Q48.5251 876.596 55.7502 874.528 Q62.9434 872.427 70.2321 868.194 L70.2321 873.286 Q62.7524 878.061 55.5274 880.448 Q48.3023 882.803 41.1727 882.803 Q34.0749 882.803 26.8817 880.448 Q19.6884 878.092 12.1769 873.286 L12.1769 868.194 Z" fill="#000000" fill-rule="nonzero" fill-opacity="1" /><path clip-path="url(#clip980)" d="M27.0408 834.105 L32.579 834.105 Q31.3059 836.588 30.6693 839.262 Q30.0327 841.935 30.0327 844.8 Q30.0327 849.16 31.3695 851.356 Q32.7063 853.521 35.3799 853.521 Q37.4169 853.521 38.5946 851.961 Q39.7404 850.402 40.7908 845.691 L41.2364 843.686 Q42.5732 837.447 45.0239 834.837 Q47.4429 832.196 51.8034 832.196 Q56.7687 832.196 59.6651 836.142 Q62.5615 840.057 62.5615 846.932 Q62.5615 849.797 61.9886 852.916 Q61.4475 856.003 60.3335 859.441 L54.2861 859.441 Q55.973 856.194 56.8323 853.043 Q57.6599 849.892 57.6599 846.805 Q57.6599 842.667 56.2594 840.439 Q54.8271 838.211 52.249 838.211 Q49.8619 838.211 48.5887 839.834 Q47.3156 841.426 46.1379 846.869 L45.6605 848.906 Q44.5147 854.348 42.1594 856.767 Q39.7722 859.186 35.6345 859.186 Q30.6056 859.186 27.8684 855.621 Q25.1311 852.057 25.1311 845.5 Q25.1311 842.253 25.6085 839.389 Q26.086 836.524 27.0408 834.105 Z" fill="#000000" fill-rule="nonzero" fill-opacity="1" /><path clip-path="url(#clip980)" d="M42.3504 792.378 L45.2149 792.378 L45.2149 819.305 Q51.2623 818.923 54.4452 815.677 Q57.5962 812.398 57.5962 806.574 Q57.5962 803.2 56.7687 800.049 Q55.9411 796.866 54.2861 793.747 L59.8242 793.747 Q61.161 796.898 61.8612 800.208 Q62.5615 803.518 62.5615 806.924 Q62.5615 815.454 57.5962 820.451 Q52.631 825.416 44.1646 825.416 Q35.4117 825.416 30.2873 820.706 Q25.1311 815.963 25.1311 807.942 Q25.1311 800.749 29.7781 796.579 Q34.3932 792.378 42.3504 792.378 M40.6316 798.235 Q35.8255 798.298 32.9609 800.94 Q30.0964 803.55 30.0964 807.879 Q30.0964 812.78 32.8654 815.74 Q35.6345 818.668 40.6634 819.114 L40.6316 798.235 Z" fill="#000000" fill-rule="nonzero" fill-opacity="1" /><path clip-path="url(#clip980)" d="M27.3591 757.112 L32.8336 757.112 Q31.465 759.595 30.7966 762.109 Q30.0964 764.592 30.0964 767.138 Q30.0964 772.835 33.7248 775.986 Q37.3214 779.137 43.8463 779.137 Q50.3711 779.137 53.9996 775.986 Q57.5962 772.835 57.5962 767.138 Q57.5962 764.592 56.9278 762.109 Q56.2276 759.595 54.859 757.112 L60.2698 757.112 Q61.4156 759.563 61.9886 762.205 Q62.5615 764.815 62.5615 767.775 Q62.5615 775.827 57.5007 780.57 Q52.44 785.312 43.8463 785.312 Q35.1253 785.312 30.1282 780.538 Q25.1311 775.732 25.1311 767.393 Q25.1311 764.687 25.704 762.109 Q26.2451 759.531 27.3591 757.112 Z" fill="#000000" fill-rule="nonzero" fill-opacity="1" /><path clip-path="url(#clip980)" d="M53.554 746.099 L53.554 739.384 L61.6384 739.384 L61.6384 746.099 L53.554 746.099 Z" fill="#000000" fill-rule="nonzero" fill-opacity="1" /><path clip-path="url(#clip980)" d="M12.1769 727.13 L12.1769 722.037 Q19.6884 717.263 26.8817 714.907 Q34.0749 712.52 41.1727 712.52 Q48.3023 712.52 55.5274 714.907 Q62.7524 717.263 70.2321 722.037 L70.2321 727.13 Q62.9434 722.896 55.7502 720.828 Q48.5251 718.727 41.1727 718.727 Q33.8203 718.727 26.6589 720.828 Q19.4975 722.896 12.1769 727.13 Z" fill="#000000" fill-rule="nonzero" fill-opacity="1" /><polyline clip-path="url(#clip982)" style="stroke:#332288; stroke-linecap:round; stroke-linejoin:round; stroke-width:8; stroke-opacity:1; fill:none" points="294.006,1686.38 361.018,1655.8 450.367,1646.57 562.053,1605.72 696.077,1552.98 852.437,1480.87 1031.14,1427.2 1232.17,1273.17 1455.54,1134.83 1701.25,886.804 1969.3,730.841 2259.68,376.89 2572.4,94.9858 "/>
<polyline clip-path="url(#clip982)" style="stroke:#44aa99; stroke-linecap:round; stroke-linejoin:round; stroke-width:8; stroke-opacity:1; fill:none" points="294.006,1614.82 361.018,1599.48 450.367,1604.89 562.053,1555.56 696.077,1520.82 852.437,1495.53 1031.14,1511.68 1232.17,1424.37 1455.54,1365.74 1701.25,1353.09 1969.3,1334.73 2259.68,1293.59 2572.4,1251.72 "/>
<path clip-path="url(#clip980)" d="M2167.61 1677.89 L2560.25 1677.89 L2560.25 1522.37 L2167.61 1522.37  Z" fill="#ffffff" fill-rule="evenodd" fill-opacity="1"/>
<polyline clip-path="url(#clip980)" style="stroke:#000000; stroke-linecap:round; stroke-linejoin:round; stroke-width:4; stroke-opacity:1; fill:none" points="2167.61,1677.89 2560.25,1677.89 2560.25,1522.37 2167.61,1522.37 2167.61,1677.89 "/>
<polyline clip-path="url(#clip980)" style="stroke:#332288; stroke-linecap:round; stroke-linejoin:round; stroke-width:8; stroke-opacity:1; fill:none" points="2194.44,1574.21 2355.45,1574.21 "/>
<path clip-path="url(#clip980)" d="M2386.96 1560.77 L2386.96 1587.65 L2392.61 1587.65 Q2399.76 1587.65 2403.07 1584.4 Q2406.4 1581.16 2406.4 1574.17 Q2406.4 1567.23 2403.07 1564.01 Q2399.76 1560.77 2392.61 1560.77 L2386.96 1560.77 M2382.28 1556.93 L2391.89 1556.93 Q2401.94 1556.93 2406.64 1561.12 Q2411.34 1565.28 2411.34 1574.17 Q2411.34 1583.11 2406.61 1587.3 Q2401.89 1591.49 2391.89 1591.49 L2382.28 1591.49 L2382.28 1556.93 Z" fill="#000000" fill-rule="nonzero" fill-opacity="1" /><path clip-path="url(#clip980)" d="M2444.67 1559.59 L2444.67 1564.52 Q2442.31 1562.32 2439.62 1561.23 Q2436.96 1560.15 2433.95 1560.15 Q2428.03 1560.15 2424.88 1563.78 Q2421.73 1567.39 2421.73 1574.24 Q2421.73 1581.07 2424.88 1584.71 Q2428.03 1588.32 2433.95 1588.32 Q2436.96 1588.32 2439.62 1587.23 Q2442.31 1586.14 2444.67 1583.94 L2444.67 1588.83 Q2442.21 1590.49 2439.46 1591.33 Q2436.73 1592.16 2433.67 1592.16 Q2425.83 1592.16 2421.31 1587.37 Q2416.8 1582.55 2416.8 1574.24 Q2416.8 1565.91 2421.31 1561.12 Q2425.83 1556.3 2433.67 1556.3 Q2436.78 1556.3 2439.51 1557.14 Q2442.26 1557.95 2444.67 1559.59 Z" fill="#000000" fill-rule="nonzero" fill-opacity="1" /><path clip-path="url(#clip980)" d="M2463.44 1561.53 L2457.1 1578.73 L2469.81 1578.73 L2463.44 1561.53 M2460.8 1556.93 L2466.1 1556.93 L2479.27 1591.49 L2474.41 1591.49 L2471.27 1582.62 L2455.69 1582.62 L2452.54 1591.49 L2447.61 1591.49 L2460.8 1556.93 Z" fill="#000000" fill-rule="nonzero" fill-opacity="1" /><polyline clip-path="url(#clip980)" style="stroke:#44aa99; stroke-linecap:round; stroke-linejoin:round; stroke-width:8; stroke-opacity:1; fill:none" points="2194.44,1626.05 2355.45,1626.05 "/>
<path clip-path="url(#clip980)" d="M2386.96 1612.61 L2386.96 1639.49 L2392.61 1639.49 Q2399.76 1639.49 2403.07 1636.24 Q2406.4 1633 2406.4 1626.01 Q2406.4 1619.07 2403.07 1615.85 Q2399.76 1612.61 2392.61 1612.61 L2386.96 1612.61 M2382.28 1608.77 L2391.89 1608.77 Q2401.94 1608.77 2406.64 1612.96 Q2411.34 1617.12 2411.34 1626.01 Q2411.34 1634.95 2406.61 1639.14 Q2401.89 1643.33 2391.89 1643.33 L2382.28 1643.33 L2382.28 1608.77 Z" fill="#000000" fill-rule="nonzero" fill-opacity="1" /><path clip-path="url(#clip980)" d="M2444.67 1611.43 L2444.67 1616.36 Q2442.31 1614.16 2439.62 1613.07 Q2436.96 1611.99 2433.95 1611.99 Q2428.03 1611.99 2424.88 1615.62 Q2421.73 1619.23 2421.73 1626.08 Q2421.73 1632.91 2424.88 1636.55 Q2428.03 1640.16 2433.95 1640.16 Q2436.96 1640.16 2439.62 1639.07 Q2442.31 1637.98 2444.67 1635.78 L2444.67 1640.67 Q2442.21 1642.33 2439.46 1643.17 Q2436.73 1644 2433.67 1644 Q2425.83 1644 2421.31 1639.21 Q2416.8 1634.39 2416.8 1626.08 Q2416.8 1617.75 2421.31 1612.96 Q2425.83 1608.14 2433.67 1608.14 Q2436.78 1608.14 2439.51 1608.98 Q2442.26 1609.79 2444.67 1611.43 Z" fill="#000000" fill-rule="nonzero" fill-opacity="1" /><path clip-path="url(#clip980)" d="M2456.57 1612.61 L2456.57 1625.6 L2462.45 1625.6 Q2465.71 1625.6 2467.49 1623.91 Q2469.27 1622.22 2469.27 1619.09 Q2469.27 1615.99 2467.49 1614.3 Q2465.71 1612.61 2462.45 1612.61 L2456.57 1612.61 M2451.89 1608.77 L2462.45 1608.77 Q2468.26 1608.77 2471.22 1611.41 Q2474.21 1614.02 2474.21 1619.09 Q2474.21 1624.21 2471.22 1626.82 Q2468.26 1629.44 2462.45 1629.44 L2456.57 1629.44 L2456.57 1643.33 L2451.89 1643.33 L2451.89 1608.77 Z" fill="#000000" fill-rule="nonzero" fill-opacity="1" /><path clip-path="url(#clip980)" d="M2485.15 1612.61 L2485.15 1625.6 L2491.03 1625.6 Q2494.3 1625.6 2496.08 1623.91 Q2497.86 1622.22 2497.86 1619.09 Q2497.86 1615.99 2496.08 1614.3 Q2494.3 1612.61 2491.03 1612.61 L2485.15 1612.61 M2480.48 1608.77 L2491.03 1608.77 Q2496.84 1608.77 2499.81 1611.41 Q2502.79 1614.02 2502.79 1619.09 Q2502.79 1624.21 2499.81 1626.82 Q2496.84 1629.44 2491.03 1629.44 L2485.15 1629.44 L2485.15 1643.33 L2480.48 1643.33 L2480.48 1608.77 Z" fill="#000000" fill-rule="nonzero" fill-opacity="1" /><path clip-path="url(#clip980)" d="M2517.58 1613.37 L2511.24 1630.57 L2523.95 1630.57 L2517.58 1613.37 M2514.95 1608.77 L2520.25 1608.77 L2533.42 1643.33 L2528.56 1643.33 L2525.41 1634.46 L2509.83 1634.46 L2506.68 1643.33 L2501.75 1643.33 L2514.95 1608.77 Z" fill="#000000" fill-rule="nonzero" fill-opacity="1" /></svg>
