<?xml version="1.0" encoding="utf-8"?>
<svg xmlns="http://www.w3.org/2000/svg" xmlns:xlink="http://www.w3.org/1999/xlink" width="672" height="480" viewBox="0 0 2688 1920">
<defs>
  <clipPath id="clip710">
    <rect x="0" y="0" width="2688" height="1920"/>
  </clipPath>
</defs>
<path clip-path="url(#clip710)" d="M0 1920 L2688 1920 L2688 0 L0 0  Z" fill="#ffffff" fill-rule="evenodd" fill-opacity="1"/>
<defs>
  <clipPath id="clip711">
    <rect x="537" y="0" width="1883" height="1883"/>
  </clipPath>
</defs>
<path clip-path="url(#clip710)" d="M226.141 1734.12 L2640.76 1734.12 L2640.76 47.2441 L226.141 47.2441  Z" fill="#ffffff" fill-rule="evenodd" fill-opacity="1"/>
<defs>
  <clipPath id="clip712">
    <rect x="226" y="47" width="2416" height="1688"/>
  </clipPath>
</defs>
<polyline clip-path="url(#clip712)" style="stroke:#000000; stroke-linecap:round; stroke-linejoin:round; stroke-width:2; stroke-opacity:0.1; fill:none" points="227.481,1734.12 227.481,47.2441 "/>
<polyline clip-path="url(#clip712)" style="stroke:#000000; stroke-linecap:round; stroke-linejoin:round; stroke-width:2; stroke-opacity:0.1; fill:none" points="785.799,1734.12 785.799,47.2441 "/>
<polyline clip-path="url(#clip712)" style="stroke:#000000; stroke-linecap:round; stroke-linejoin:round; stroke-width:2; stroke-opacity:0.1; fill:none" points="1344.12,1734.12 1344.12,47.2441 "/>
<polyline clip-path="url(#clip712)" style="stroke:#000000; stroke-linecap:round; stroke-linejoin:round; stroke-width:2; stroke-opacity:0.1; fill:none" points="1902.44,1734.12 1902.44,47.2441 "/>
<polyline clip-path="url(#clip712)" style="stroke:#000000; stroke-linecap:round; stroke-linejoin:round; stroke-width:2; stroke-opacity:0.1; fill:none" points="2460.75,1734.12 2460.75,47.2441 "/>
<polyline clip-path="url(#clip710)" style="stroke:#000000; stroke-linecap:round; stroke-linejoin:round; stroke-width:4; stroke-opacity:1; fill:none" points="226.141,1734.12 2640.76,1734.12 "/>
<polyline clip-path="url(#clip710)" style="stroke:#000000; stroke-linecap:round; stroke-linejoin:round; stroke-width:4; stroke-opacity:1; fill:none" points="227.481,1734.12 227.481,1715.22 "/>
<polyline clip-path="url(#clip710)" style="stroke:#000000; stroke-linecap:round; stroke-linejoin:round; stroke-width:4; stroke-opacity:1; fill:none" points="785.799,1734.12 785.799,1715.22 "/>
<polyline clip-path="url(#clip710)" style="stroke:#000000; stroke-linecap:round; stroke-linejoin:round; stroke-width:4; stroke-opacity:1; fill:none" points="1344.12,1734.12 1344.12,1715.22 "/>
<polyline clip-path="url(#clip710)" style="stroke:#000000; stroke-linecap:round; stroke-linejoin:round; stroke-width:4; stroke-opacity:1; fill:none" points="1902.44,1734.12 1902.44,1715.22 "/>
<polyline clip-path="url(#clip710)" style="stroke:#000000; stroke-linecap:round; stroke-linejoin:round; stroke-width:4; stroke-opacity:1; fill:none" points="2460.75,1734.12 2460.75,1715.22 "/>
<path clip-path="url(#clip710)" d="M227.481 1767.34 Q223.869 1767.34 222.041 1770.9 Q220.235 1774.45 220.235 1781.58 Q220.235 1788.68 222.041 1792.25 Q223.869 1795.79 227.481 1795.79 Q231.115 1795.79 232.92 1792.25 Q234.749 1788.68 234.749 1781.58 Q234.749 1774.45 232.92 1770.9 Q231.115 1767.34 227.481 1767.34 M227.481 1763.64 Q233.291 1763.64 236.346 1768.24 Q239.425 1772.83 239.425 1781.58 Q239.425 1790.3 236.346 1794.91 Q233.291 1799.49 227.481 1799.49 Q221.67 1799.49 218.592 1794.91 Q215.536 1790.3 215.536 1781.58 Q215.536 1772.83 218.592 1768.24 Q221.67 1763.64 227.481 1763.64 Z" fill="#000000" fill-rule="nonzero" fill-opacity="1" /><path clip-path="url(#clip710)" d="M765.07 1794.89 L781.389 1794.89 L781.389 1798.82 L759.445 1798.82 L759.445 1794.89 Q762.107 1792.13 766.69 1787.5 Q771.297 1782.85 772.477 1781.51 Q774.723 1778.98 775.602 1777.25 Q776.505 1775.49 776.505 1773.8 Q776.505 1771.04 774.561 1769.31 Q772.639 1767.57 769.537 1767.57 Q767.338 1767.57 764.885 1768.34 Q762.454 1769.1 759.676 1770.65 L759.676 1765.93 Q762.5 1764.79 764.954 1764.21 Q767.408 1763.64 769.445 1763.64 Q774.815 1763.64 778.01 1766.32 Q781.204 1769.01 781.204 1773.5 Q781.204 1775.63 780.394 1777.55 Q779.607 1779.45 777.5 1782.04 Q776.922 1782.71 773.82 1785.93 Q770.718 1789.12 765.07 1794.89 Z" fill="#000000" fill-rule="nonzero" fill-opacity="1" /><path clip-path="url(#clip710)" d="M791.25 1764.26 L809.607 1764.26 L809.607 1768.2 L795.533 1768.2 L795.533 1776.67 Q796.551 1776.32 797.57 1776.16 Q798.588 1775.97 799.607 1775.97 Q805.394 1775.97 808.773 1779.15 Q812.153 1782.32 812.153 1787.73 Q812.153 1793.31 808.681 1796.41 Q805.209 1799.49 798.889 1799.49 Q796.713 1799.49 794.445 1799.12 Q792.199 1798.75 789.792 1798.01 L789.792 1793.31 Q791.875 1794.45 794.097 1795 Q796.32 1795.56 798.797 1795.56 Q802.801 1795.56 805.139 1793.45 Q807.477 1791.34 807.477 1787.73 Q807.477 1784.12 805.139 1782.02 Q802.801 1779.91 798.797 1779.91 Q796.922 1779.91 795.047 1780.33 Q793.195 1780.74 791.25 1781.62 L791.25 1764.26 Z" fill="#000000" fill-rule="nonzero" fill-opacity="1" /><path clip-path="url(#clip710)" d="M1318.82 1764.26 L1337.17 1764.26 L1337.17 1768.2 L1323.1 1768.2 L1323.1 1776.67 Q1324.12 1776.32 1325.14 1776.16 Q1326.15 1775.97 1327.17 1775.97 Q1332.96 1775.97 1336.34 1779.15 Q1339.72 1782.32 1339.72 1787.73 Q1339.72 1793.31 1336.25 1796.41 Q1332.77 1799.49 1326.46 1799.49 Q1324.28 1799.49 1322.01 1799.12 Q1319.77 1798.75 1317.36 1798.01 L1317.36 1793.31 Q1319.44 1794.45 1321.66 1795 Q1323.89 1795.56 1326.36 1795.56 Q1330.37 1795.56 1332.71 1793.45 Q1335.04 1791.34 1335.04 1787.73 Q1335.04 1784.12 1332.71 1782.02 Q1330.37 1779.91 1326.36 1779.91 Q1324.49 1779.91 1322.61 1780.33 Q1320.76 1780.74 1318.82 1781.62 L1318.82 1764.26 Z" fill="#000000" fill-rule="nonzero" fill-opacity="1" /><path clip-path="url(#clip710)" d="M1358.93 1767.34 Q1355.32 1767.34 1353.49 1770.9 Q1351.69 1774.45 1351.69 1781.58 Q1351.69 1788.68 1353.49 1792.25 Q1355.32 1795.79 1358.93 1795.79 Q1362.57 1795.79 1364.37 1792.25 Q1366.2 1788.68 1366.2 1781.58 Q1366.2 1774.45 1364.37 1770.9 Q1362.57 1767.34 1358.93 1767.34 M1358.93 1763.64 Q1364.74 1763.64 1367.8 1768.24 Q1370.88 1772.83 1370.88 1781.58 Q1370.88 1790.3 1367.8 1794.91 Q1364.74 1799.49 1358.93 1799.49 Q1353.12 1799.49 1350.04 1794.91 Q1346.99 1790.3 1346.99 1781.58 Q1346.99 1772.83 1350.04 1768.24 Q1353.12 1763.64 1358.93 1763.64 Z" fill="#000000" fill-rule="nonzero" fill-opacity="1" /><path clip-path="url(#clip710)" d="M1876.29 1764.26 L1898.51 1764.26 L1898.51 1766.25 L1885.97 1798.82 L1881.08 1798.82 L1892.89 1768.2 L1876.29 1768.2 L1876.29 1764.26 Z" fill="#000000" fill-rule="nonzero" fill-opacity="1" /><path clip-path="url(#clip710)" d="M1907.68 1764.26 L1926.04 1764.26 L1926.04 1768.2 L1911.96 1768.2 L1911.96 1776.67 Q1912.98 1776.32 1914 1776.16 Q1915.02 1775.97 1916.04 1775.97 Q1921.82 1775.97 1925.2 1779.15 Q1928.58 1782.32 1928.58 1787.73 Q1928.58 1793.31 1925.11 1796.41 Q1921.64 1799.49 1915.32 1799.49 Q1913.14 1799.49 1910.87 1799.12 Q1908.63 1798.75 1906.22 1798.01 L1906.22 1793.31 Q1908.3 1794.45 1910.53 1795 Q1912.75 1795.56 1915.22 1795.56 Q1919.23 1795.56 1921.57 1793.45 Q1923.91 1791.34 1923.91 1787.73 Q1923.91 1784.12 1921.57 1782.02 Q1919.23 1779.91 1915.22 1779.91 Q1913.35 1779.91 1911.47 1780.33 Q1909.62 1780.74 1907.68 1781.62 L1907.68 1764.26 Z" fill="#000000" fill-rule="nonzero" fill-opacity="1" /><path clip-path="url(#clip710)" d="M2420.36 1794.89 L2428 1794.89 L2428 1768.52 L2419.69 1770.19 L2419.69 1765.93 L2427.95 1764.26 L2432.63 1764.26 L2432.63 1794.89 L2440.27 1794.89 L2440.27 1798.82 L2420.36 1798.82 L2420.36 1794.89 Z" fill="#000000" fill-rule="nonzero" fill-opacity="1" /><path clip-path="url(#clip710)" d="M2459.71 1767.34 Q2456.1 1767.34 2454.27 1770.9 Q2452.47 1774.45 2452.47 1781.58 Q2452.47 1788.68 2454.27 1792.25 Q2456.1 1795.79 2459.71 1795.79 Q2463.35 1795.79 2465.15 1792.25 Q2466.98 1788.68 2466.98 1781.58 Q2466.98 1774.45 2465.15 1770.9 Q2463.35 1767.34 2459.71 1767.34 M2459.71 1763.64 Q2465.52 1763.64 2468.58 1768.24 Q2471.66 1772.83 2471.66 1781.58 Q2471.66 1790.3 2468.58 1794.91 Q2465.52 1799.49 2459.71 1799.49 Q2453.9 1799.49 2450.82 1794.91 Q2447.77 1790.3 2447.77 1781.58 Q2447.77 1772.83 2450.82 1768.24 Q2453.9 1763.64 2459.71 1763.64 Z" fill="#000000" fill-rule="nonzero" fill-opacity="1" /><path clip-path="url(#clip710)" d="M2489.87 1767.34 Q2486.26 1767.34 2484.43 1770.9 Q2482.63 1774.45 2482.63 1781.58 Q2482.63 1788.68 2484.43 1792.25 Q2486.26 1795.79 2489.87 1795.79 Q2493.51 1795.79 2495.31 1792.25 Q2497.14 1788.68 2497.14 1781.58 Q2497.14 1774.45 2495.31 1770.9 Q2493.51 1767.34 2489.87 1767.34 M2489.87 1763.64 Q2495.68 1763.64 2498.74 1768.24 Q2501.82 1772.83 2501.82 1781.58 Q2501.82 1790.3 2498.74 1794.91 Q2495.68 1799.49 2489.87 1799.49 Q2484.06 1799.49 2480.99 1794.91 Q2477.93 1790.3 2477.93 1781.58 Q2477.93 1772.83 2480.99 1768.24 Q2484.06 1763.64 2489.87 1763.64 Z" fill="#000000" fill-rule="nonzero" fill-opacity="1" /><path clip-path="url(#clip710)" d="M1145.37 1854.5 Q1147.56 1850.55 1150.62 1848.67 Q1153.68 1846.79 1157.81 1846.79 Q1163.38 1846.79 1166.41 1850.71 Q1169.43 1854.59 1169.43 1861.78 L1169.43 1883.3 L1163.54 1883.3 L1163.54 1861.98 Q1163.54 1856.85 1161.73 1854.37 Q1159.91 1851.89 1156.19 1851.89 Q1151.64 1851.89 1149 1854.91 Q1146.35 1857.93 1146.35 1863.15 L1146.35 1883.3 L1140.47 1883.3 L1140.47 1861.98 Q1140.47 1856.82 1138.65 1854.37 Q1136.84 1851.89 1133.05 1851.89 Q1128.56 1851.89 1125.92 1854.94 Q1123.28 1857.97 1123.28 1863.15 L1123.28 1883.3 L1117.39 1883.3 L1117.39 1847.65 L1123.28 1847.65 L1123.28 1853.19 Q1125.28 1849.91 1128.09 1848.35 Q1130.89 1846.79 1134.74 1846.79 Q1138.62 1846.79 1141.33 1848.77 Q1144.06 1850.74 1145.37 1854.5 Z" fill="#000000" fill-rule="nonzero" fill-opacity="1" /><path clip-path="url(#clip710)" d="M1197.31 1865.38 Q1190.21 1865.38 1187.48 1867 Q1184.74 1868.63 1184.74 1872.54 Q1184.74 1875.66 1186.78 1877.51 Q1188.85 1879.32 1192.38 1879.32 Q1197.25 1879.32 1200.18 1875.88 Q1203.14 1872.42 1203.14 1866.69 L1203.14 1865.38 L1197.31 1865.38 M1208.99 1862.96 L1208.99 1883.3 L1203.14 1883.3 L1203.14 1877.89 Q1201.13 1881.14 1198.14 1882.7 Q1195.15 1884.22 1190.82 1884.22 Q1185.34 1884.22 1182.1 1881.17 Q1178.88 1878.08 1178.88 1872.92 Q1178.88 1866.91 1182.89 1863.85 Q1186.94 1860.8 1194.93 1860.8 L1203.14 1860.8 L1203.14 1860.23 Q1203.14 1856.18 1200.46 1853.99 Q1197.82 1851.76 1193.02 1851.76 Q1189.96 1851.76 1187.06 1852.49 Q1184.17 1853.22 1181.49 1854.69 L1181.49 1849.28 Q1184.71 1848.03 1187.73 1847.43 Q1190.76 1846.79 1193.62 1846.79 Q1201.35 1846.79 1205.17 1850.8 Q1208.99 1854.81 1208.99 1862.96 Z" fill="#000000" fill-rule="nonzero" fill-opacity="1" /><path clip-path="url(#clip710)" d="M1250.69 1861.78 L1250.69 1883.3 L1244.83 1883.3 L1244.83 1861.98 Q1244.83 1856.92 1242.86 1854.4 Q1240.89 1851.89 1236.94 1851.89 Q1232.2 1851.89 1229.46 1854.91 Q1226.72 1857.93 1226.72 1863.15 L1226.72 1883.3 L1220.83 1883.3 L1220.83 1847.65 L1226.72 1847.65 L1226.72 1853.19 Q1228.82 1849.98 1231.66 1848.39 Q1234.52 1846.79 1238.24 1846.79 Q1244.39 1846.79 1247.54 1850.61 Q1250.69 1854.4 1250.69 1861.78 Z" fill="#000000" fill-rule="nonzero" fill-opacity="1" /><path clip-path="url(#clip710)" d="M1262.37 1847.65 L1268.23 1847.65 L1268.23 1883.3 L1262.37 1883.3 L1262.37 1847.65 M1262.37 1833.78 L1268.23 1833.78 L1268.23 1841.19 L1262.37 1841.19 L1262.37 1833.78 Z" fill="#000000" fill-rule="nonzero" fill-opacity="1" /><path clip-path="url(#clip710)" d="M1298.53 1833.78 L1298.53 1838.65 L1292.93 1838.65 Q1289.77 1838.65 1288.53 1839.92 Q1287.32 1841.19 1287.32 1844.5 L1287.32 1847.65 L1296.97 1847.65 L1296.97 1852.2 L1287.32 1852.2 L1287.32 1883.3 L1281.44 1883.3 L1281.44 1852.2 L1275.83 1852.2 L1275.83 1847.65 L1281.44 1847.65 L1281.44 1845.17 Q1281.44 1839.22 1284.2 1836.51 Q1286.97 1833.78 1292.99 1833.78 L1298.53 1833.78 Z" fill="#000000" fill-rule="nonzero" fill-opacity="1" /><path clip-path="url(#clip710)" d="M1317.24 1851.76 Q1312.53 1851.76 1309.79 1855.45 Q1307.06 1859.11 1307.06 1865.51 Q1307.06 1871.91 1309.76 1875.6 Q1312.5 1879.26 1317.24 1879.26 Q1321.92 1879.26 1324.66 1875.57 Q1327.4 1871.87 1327.4 1865.51 Q1327.4 1859.17 1324.66 1855.48 Q1321.92 1851.76 1317.24 1851.76 M1317.24 1846.79 Q1324.88 1846.79 1329.24 1851.76 Q1333.6 1856.72 1333.6 1865.51 Q1333.6 1874.26 1329.24 1879.26 Q1324.88 1884.22 1317.24 1884.22 Q1309.57 1884.22 1305.21 1879.26 Q1300.88 1874.26 1300.88 1865.51 Q1300.88 1856.72 1305.21 1851.76 Q1309.57 1846.79 1317.24 1846.79 Z" fill="#000000" fill-rule="nonzero" fill-opacity="1" /><path clip-path="url(#clip710)" d="M1343.31 1833.78 L1349.17 1833.78 L1349.17 1883.3 L1343.31 1883.3 L1343.31 1833.78 Z" fill="#000000" fill-rule="nonzero" fill-opacity="1" /><path clip-path="url(#clip710)" d="M1384.88 1853.06 L1384.88 1833.78 L1390.73 1833.78 L1390.73 1883.3 L1384.88 1883.3 L1384.88 1877.95 Q1383.03 1881.14 1380.2 1882.7 Q1377.4 1884.22 1373.45 1884.22 Q1366.99 1884.22 1362.92 1879.07 Q1358.87 1873.91 1358.87 1865.51 Q1358.87 1857.11 1362.92 1851.95 Q1366.99 1846.79 1373.45 1846.79 Q1377.4 1846.79 1380.2 1848.35 Q1383.03 1849.88 1384.88 1853.06 M1364.92 1865.51 Q1364.92 1871.97 1367.56 1875.66 Q1370.24 1879.32 1374.88 1879.32 Q1379.53 1879.32 1382.2 1875.66 Q1384.88 1871.97 1384.88 1865.51 Q1384.88 1859.05 1382.2 1855.39 Q1379.53 1851.7 1374.88 1851.7 Q1370.24 1851.7 1367.56 1855.39 Q1364.92 1859.05 1364.92 1865.51 Z" fill="#000000" fill-rule="nonzero" fill-opacity="1" /><path clip-path="url(#clip710)" d="M1446.98 1853.06 L1446.98 1833.78 L1452.83 1833.78 L1452.83 1883.3 L1446.98 1883.3 L1446.98 1877.95 Q1445.13 1881.14 1442.3 1882.7 Q1439.5 1884.22 1435.55 1884.22 Q1429.09 1884.22 1425.01 1879.07 Q1420.97 1873.91 1420.97 1865.51 Q1420.97 1857.11 1425.01 1851.95 Q1429.09 1846.79 1435.55 1846.79 Q1439.5 1846.79 1442.3 1848.35 Q1445.13 1849.88 1446.98 1853.06 M1427.02 1865.51 Q1427.02 1871.97 1429.66 1875.66 Q1432.33 1879.32 1436.98 1879.32 Q1441.63 1879.32 1444.3 1875.66 Q1446.98 1871.97 1446.98 1865.51 Q1446.98 1859.05 1444.3 1855.39 Q1441.63 1851.7 1436.98 1851.7 Q1432.33 1851.7 1429.66 1855.39 Q1427.02 1859.05 1427.02 1865.51 Z" fill="#000000" fill-rule="nonzero" fill-opacity="1" /><path clip-path="url(#clip710)" d="M1464.89 1847.65 L1470.75 1847.65 L1470.75 1883.3 L1464.89 1883.3 L1464.89 1847.65 M1464.89 1833.78 L1470.75 1833.78 L1470.75 1841.19 L1464.89 1841.19 L1464.89 1833.78 Z" fill="#000000" fill-rule="nonzero" fill-opacity="1" /><path clip-path="url(#clip710)" d="M1510.76 1854.5 Q1512.96 1850.55 1516.01 1848.67 Q1519.07 1846.79 1523.2 1846.79 Q1528.77 1846.79 1531.8 1850.71 Q1534.82 1854.59 1534.82 1861.78 L1534.82 1883.3 L1528.93 1883.3 L1528.93 1861.98 Q1528.93 1856.85 1527.12 1854.37 Q1525.31 1851.89 1521.58 1851.89 Q1517.03 1851.89 1514.39 1854.91 Q1511.75 1857.93 1511.75 1863.15 L1511.75 1883.3 L1505.86 1883.3 L1505.86 1861.98 Q1505.86 1856.82 1504.04 1854.37 Q1502.23 1851.89 1498.44 1851.89 Q1493.95 1851.89 1491.31 1854.94 Q1488.67 1857.97 1488.67 1863.15 L1488.67 1883.3 L1482.78 1883.3 L1482.78 1847.65 L1488.67 1847.65 L1488.67 1853.19 Q1490.68 1849.91 1493.48 1848.35 Q1496.28 1846.79 1500.13 1846.79 Q1504.01 1846.79 1506.72 1848.77 Q1509.45 1850.74 1510.76 1854.5 Z" fill="#000000" fill-rule="nonzero" fill-opacity="1" /><path clip-path="url(#clip710)" d="M1576.99 1864.01 L1576.99 1866.88 L1550.07 1866.88 Q1550.45 1872.92 1553.7 1876.11 Q1556.97 1879.26 1562.8 1879.26 Q1566.17 1879.26 1569.32 1878.43 Q1572.51 1877.6 1575.63 1875.95 L1575.63 1881.49 Q1572.48 1882.82 1569.17 1883.52 Q1565.85 1884.22 1562.45 1884.22 Q1553.92 1884.22 1548.92 1879.26 Q1543.96 1874.29 1543.96 1865.83 Q1543.96 1857.07 1548.67 1851.95 Q1553.41 1846.79 1561.43 1846.79 Q1568.62 1846.79 1572.79 1851.44 Q1576.99 1856.06 1576.99 1864.01 M1571.14 1862.29 Q1571.07 1857.49 1568.43 1854.62 Q1565.82 1851.76 1561.49 1851.76 Q1556.59 1851.76 1553.63 1854.53 Q1550.7 1857.3 1550.26 1862.33 L1571.14 1862.29 Z" fill="#000000" fill-rule="nonzero" fill-opacity="1" /><path clip-path="url(#clip710)" d="M1616.24 1861.78 L1616.24 1883.3 L1610.38 1883.3 L1610.38 1861.98 Q1610.38 1856.92 1608.41 1854.4 Q1606.44 1851.89 1602.49 1851.89 Q1597.75 1851.89 1595.01 1854.91 Q1592.27 1857.93 1592.27 1863.15 L1592.27 1883.3 L1586.38 1883.3 L1586.38 1847.65 L1592.27 1847.65 L1592.27 1853.19 Q1594.37 1849.98 1597.21 1848.39 Q1600.07 1846.79 1603.79 1846.79 Q1609.94 1846.79 1613.09 1850.61 Q1616.24 1854.4 1616.24 1861.78 Z" fill="#000000" fill-rule="nonzero" fill-opacity="1" /><path clip-path="url(#clip710)" d="M1650.65 1848.7 L1650.65 1854.24 Q1648.16 1852.97 1645.49 1852.33 Q1642.82 1851.7 1639.95 1851.7 Q1635.59 1851.7 1633.4 1853.03 Q1631.23 1854.37 1631.23 1857.04 Q1631.23 1859.08 1632.79 1860.26 Q1634.35 1861.4 1639.06 1862.45 L1641.07 1862.9 Q1647.3 1864.24 1649.91 1866.69 Q1652.56 1869.11 1652.56 1873.47 Q1652.56 1878.43 1648.61 1881.33 Q1644.69 1884.22 1637.82 1884.22 Q1634.95 1884.22 1631.84 1883.65 Q1628.75 1883.11 1625.31 1882 L1625.31 1875.95 Q1628.56 1877.64 1631.71 1878.49 Q1634.86 1879.32 1637.95 1879.32 Q1642.08 1879.32 1644.31 1877.92 Q1646.54 1876.49 1646.54 1873.91 Q1646.54 1871.52 1644.92 1870.25 Q1643.33 1868.98 1637.88 1867.8 L1635.85 1867.32 Q1630.4 1866.18 1627.98 1863.82 Q1625.57 1861.43 1625.57 1857.3 Q1625.57 1852.27 1629.13 1849.53 Q1632.69 1846.79 1639.25 1846.79 Q1642.5 1846.79 1645.36 1847.27 Q1648.23 1847.75 1650.65 1848.7 Z" fill="#000000" fill-rule="nonzero" fill-opacity="1" /><path clip-path="url(#clip710)" d="M1661.88 1847.65 L1667.74 1847.65 L1667.74 1883.3 L1661.88 1883.3 L1661.88 1847.65 M1661.88 1833.78 L1667.74 1833.78 L1667.74 1841.19 L1661.88 1841.19 L1661.88 1833.78 Z" fill="#000000" fill-rule="nonzero" fill-opacity="1" /><path clip-path="url(#clip710)" d="M1693.81 1851.76 Q1689.1 1851.76 1686.36 1855.45 Q1683.62 1859.11 1683.62 1865.51 Q1683.62 1871.91 1686.33 1875.6 Q1689.06 1879.26 1693.81 1879.26 Q1698.48 1879.26 1701.22 1875.57 Q1703.96 1871.87 1703.96 1865.51 Q1703.96 1859.17 1701.22 1855.48 Q1698.48 1851.76 1693.81 1851.76 M1693.81 1846.79 Q1701.44 1846.79 1705.8 1851.76 Q1710.17 1856.72 1710.17 1865.51 Q1710.17 1874.26 1705.8 1879.26 Q1701.44 1884.22 1693.81 1884.22 Q1686.13 1884.22 1681.77 1879.26 Q1677.45 1874.26 1677.45 1865.51 Q1677.45 1856.72 1681.77 1851.76 Q1686.13 1846.79 1693.81 1846.79 Z" fill="#000000" fill-rule="nonzero" fill-opacity="1" /><path clip-path="url(#clip710)" d="M1749.51 1861.78 L1749.51 1883.3 L1743.65 1883.3 L1743.65 1861.98 Q1743.65 1856.92 1741.68 1854.4 Q1739.7 1851.89 1735.76 1851.89 Q1731.01 1851.89 1728.28 1854.91 Q1725.54 1857.93 1725.54 1863.15 L1725.54 1883.3 L1719.65 1883.3 L1719.65 1847.65 L1725.54 1847.65 L1725.54 1853.19 Q1727.64 1849.98 1730.47 1848.39 Q1733.34 1846.79 1737.06 1846.79 Q1743.2 1846.79 1746.35 1850.61 Q1749.51 1854.4 1749.51 1861.78 Z" fill="#000000" fill-rule="nonzero" fill-opacity="1" /><polyline clip-path="url(#clip712)" style="stroke:#000000; stroke-linecap:round; stroke-linejoin:round; stroke-width:2; stroke-opacity:0.1; fill:none" points="226.141,1719.49 2640.76,1719.49 "/>
<polyline clip-path="url(#clip712)" style="stroke:#000000; stroke-linecap:round; stroke-linejoin:round; stroke-width:2; stroke-opacity:0.1; fill:none" points="226.141,1303.72 2640.76,1303.72 "/>
<polyline clip-path="url(#clip712)" style="stroke:#000000; stroke-linecap:round; stroke-linejoin:round; stroke-width:2; stroke-opacity:0.1; fill:none" points="226.141,887.962 2640.76,887.962 "/>
<polyline clip-path="url(#clip712)" style="stroke:#000000; stroke-linecap:round; stroke-linejoin:round; stroke-width:2; stroke-opacity:0.1; fill:none" points="226.141,472.198 2640.76,472.198 "/>
<polyline clip-path="url(#clip712)" style="stroke:#000000; stroke-linecap:round; stroke-linejoin:round; stroke-width:2; stroke-opacity:0.1; fill:none" points="226.141,56.4354 2640.76,56.4354 "/>
<polyline clip-path="url(#clip710)" style="stroke:#000000; stroke-linecap:round; stroke-linejoin:round; stroke-width:4; stroke-opacity:1; fill:none" points="226.141,1734.12 226.141,47.2441 "/>
<polyline clip-path="url(#clip710)" style="stroke:#000000; stroke-linecap:round; stroke-linejoin:round; stroke-width:4; stroke-opacity:1; fill:none" points="226.141,1719.49 245.038,1719.49 "/>
<polyline clip-path="url(#clip710)" style="stroke:#000000; stroke-linecap:round; stroke-linejoin:round; stroke-width:4; stroke-opacity:1; fill:none" points="226.141,1303.72 245.038,1303.72 "/>
<polyline clip-path="url(#clip710)" style="stroke:#000000; stroke-linecap:round; stroke-linejoin:round; stroke-width:4; stroke-opacity:1; fill:none" points="226.141,887.962 245.038,887.962 "/>
<polyline clip-path="url(#clip710)" style="stroke:#000000; stroke-linecap:round; stroke-linejoin:round; stroke-width:4; stroke-opacity:1; fill:none" points="226.141,472.198 245.038,472.198 "/>
<polyline clip-path="url(#clip710)" style="stroke:#000000; stroke-linecap:round; stroke-linejoin:round; stroke-width:4; stroke-opacity:1; fill:none" points="226.141,56.4354 245.038,56.4354 "/>
<path clip-path="url(#clip710)" d="M128.645 1705.29 Q125.034 1705.29 123.205 1708.85 Q121.4 1712.39 121.4 1719.52 Q121.4 1726.63 123.205 1730.19 Q125.034 1733.74 128.645 1733.74 Q132.279 1733.74 134.085 1730.19 Q135.913 1726.63 135.913 1719.52 Q135.913 1712.39 134.085 1708.85 Q132.279 1705.29 128.645 1705.29 M128.645 1701.58 Q134.455 1701.58 137.511 1706.19 Q140.589 1710.77 140.589 1719.52 Q140.589 1728.25 137.511 1732.86 Q134.455 1737.44 128.645 1737.44 Q122.835 1737.44 119.756 1732.86 Q116.701 1728.25 116.701 1719.52 Q116.701 1710.77 119.756 1706.19 Q122.835 1701.58 128.645 1701.58 Z" fill="#000000" fill-rule="nonzero" fill-opacity="1" /><path clip-path="url(#clip710)" d="M148.807 1730.89 L153.691 1730.89 L153.691 1736.77 L148.807 1736.77 L148.807 1730.89 Z" fill="#000000" fill-rule="nonzero" fill-opacity="1" /><path clip-path="url(#clip710)" d="M173.876 1705.29 Q170.265 1705.29 168.436 1708.85 Q166.631 1712.39 166.631 1719.52 Q166.631 1726.63 168.436 1730.19 Q170.265 1733.74 173.876 1733.74 Q177.51 1733.74 179.316 1730.19 Q181.145 1726.63 181.145 1719.52 Q181.145 1712.39 179.316 1708.85 Q177.51 1705.29 173.876 1705.29 M173.876 1701.58 Q179.686 1701.58 182.742 1706.19 Q185.821 1710.77 185.821 1719.52 Q185.821 1728.25 182.742 1732.86 Q179.686 1737.44 173.876 1737.44 Q168.066 1737.44 164.987 1732.86 Q161.932 1728.25 161.932 1719.52 Q161.932 1710.77 164.987 1706.19 Q168.066 1701.58 173.876 1701.58 Z" fill="#000000" fill-rule="nonzero" fill-opacity="1" /><path clip-path="url(#clip710)" d="M129.872 1289.52 Q126.261 1289.52 124.432 1293.09 Q122.626 1296.63 122.626 1303.76 Q122.626 1310.87 124.432 1314.43 Q126.261 1317.97 129.872 1317.97 Q133.506 1317.97 135.312 1314.43 Q137.14 1310.87 137.14 1303.76 Q137.14 1296.63 135.312 1293.09 Q133.506 1289.52 129.872 1289.52 M129.872 1285.82 Q135.682 1285.82 138.737 1290.43 Q141.816 1295.01 141.816 1303.76 Q141.816 1312.49 138.737 1317.09 Q135.682 1321.68 129.872 1321.68 Q124.062 1321.68 120.983 1317.09 Q117.927 1312.49 117.927 1303.76 Q117.927 1295.01 120.983 1290.43 Q124.062 1285.82 129.872 1285.82 Z" fill="#000000" fill-rule="nonzero" fill-opacity="1" /><path clip-path="url(#clip710)" d="M150.034 1315.13 L154.918 1315.13 L154.918 1321 L150.034 1321 L150.034 1315.13 Z" fill="#000000" fill-rule="nonzero" fill-opacity="1" /><path clip-path="url(#clip710)" d="M165.913 1317.07 L173.552 1317.07 L173.552 1290.7 L165.242 1292.37 L165.242 1288.11 L173.506 1286.44 L178.182 1286.44 L178.182 1317.07 L185.821 1317.07 L185.821 1321 L165.913 1321 L165.913 1317.07 Z" fill="#000000" fill-rule="nonzero" fill-opacity="1" /><path clip-path="url(#clip710)" d="M130.242 873.76 Q126.631 873.76 124.802 877.325 Q122.997 880.867 122.997 887.996 Q122.997 895.103 124.802 898.668 Q126.631 902.209 130.242 902.209 Q133.876 902.209 135.682 898.668 Q137.511 895.103 137.511 887.996 Q137.511 880.867 135.682 877.325 Q133.876 873.76 130.242 873.76 M130.242 870.057 Q136.052 870.057 139.108 874.663 Q142.187 879.246 142.187 887.996 Q142.187 896.723 139.108 901.33 Q136.052 905.913 130.242 905.913 Q124.432 905.913 121.353 901.33 Q118.298 896.723 118.298 887.996 Q118.298 879.246 121.353 874.663 Q124.432 870.057 130.242 870.057 Z" fill="#000000" fill-rule="nonzero" fill-opacity="1" /><path clip-path="url(#clip710)" d="M150.404 899.362 L155.288 899.362 L155.288 905.242 L150.404 905.242 L150.404 899.362 Z" fill="#000000" fill-rule="nonzero" fill-opacity="1" /><path clip-path="url(#clip710)" d="M169.501 901.306 L185.821 901.306 L185.821 905.242 L163.876 905.242 L163.876 901.306 Q166.538 898.552 171.122 893.922 Q175.728 889.269 176.909 887.927 Q179.154 885.404 180.034 883.668 Q180.936 881.908 180.936 880.219 Q180.936 877.464 178.992 875.728 Q177.071 873.992 173.969 873.992 Q171.77 873.992 169.316 874.756 Q166.885 875.519 164.108 877.07 L164.108 872.348 Q166.932 871.214 169.385 870.635 Q171.839 870.057 173.876 870.057 Q179.247 870.057 182.441 872.742 Q185.635 875.427 185.635 879.918 Q185.635 882.047 184.825 883.969 Q184.038 885.867 181.932 888.459 Q181.353 889.131 178.251 892.348 Q175.149 895.543 169.501 901.306 Z" fill="#000000" fill-rule="nonzero" fill-opacity="1" /><path clip-path="url(#clip710)" d="M129.293 457.997 Q125.682 457.997 123.853 461.562 Q122.048 465.104 122.048 472.233 Q122.048 479.34 123.853 482.904 Q125.682 486.446 129.293 486.446 Q132.927 486.446 134.733 482.904 Q136.562 479.34 136.562 472.233 Q136.562 465.104 134.733 461.562 Q132.927 457.997 129.293 457.997 M129.293 454.293 Q135.103 454.293 138.159 458.9 Q141.237 463.483 141.237 472.233 Q141.237 480.96 138.159 485.566 Q135.103 490.15 129.293 490.15 Q123.483 490.15 120.404 485.566 Q117.349 480.96 117.349 472.233 Q117.349 463.483 120.404 458.9 Q123.483 454.293 129.293 454.293 Z" fill="#000000" fill-rule="nonzero" fill-opacity="1" /><path clip-path="url(#clip710)" d="M149.455 483.599 L154.339 483.599 L154.339 489.478 L149.455 489.478 L149.455 483.599 Z" fill="#000000" fill-rule="nonzero" fill-opacity="1" /><path clip-path="url(#clip710)" d="M178.691 470.844 Q182.047 471.562 183.922 473.83 Q185.821 476.099 185.821 479.432 Q185.821 484.548 182.302 487.349 Q178.784 490.15 172.302 490.15 Q170.126 490.15 167.811 489.71 Q165.52 489.293 163.066 488.437 L163.066 483.923 Q165.01 485.057 167.325 485.636 Q169.64 486.215 172.163 486.215 Q176.561 486.215 178.853 484.479 Q181.168 482.742 181.168 479.432 Q181.168 476.377 179.015 474.664 Q176.885 472.928 173.066 472.928 L169.038 472.928 L169.038 469.085 L173.251 469.085 Q176.7 469.085 178.529 467.719 Q180.358 466.33 180.358 463.738 Q180.358 461.076 178.459 459.664 Q176.584 458.229 173.066 458.229 Q171.145 458.229 168.946 458.645 Q166.747 459.062 164.108 459.942 L164.108 455.775 Q166.77 455.034 169.085 454.664 Q171.422 454.293 173.483 454.293 Q178.807 454.293 181.909 456.724 Q185.01 459.131 185.01 463.252 Q185.01 466.122 183.367 468.113 Q181.723 470.08 178.691 470.844 Z" fill="#000000" fill-rule="nonzero" fill-opacity="1" /><path clip-path="url(#clip710)" d="M128.159 42.2341 Q124.548 42.2341 122.719 45.7989 Q120.913 49.3405 120.913 56.4701 Q120.913 63.5766 122.719 67.1414 Q124.548 70.683 128.159 70.683 Q131.793 70.683 133.599 67.1414 Q135.427 63.5766 135.427 56.4701 Q135.427 49.3405 133.599 45.7989 Q131.793 42.2341 128.159 42.2341 M128.159 38.5304 Q133.969 38.5304 137.025 43.1369 Q140.103 47.7202 140.103 56.4701 Q140.103 65.1969 137.025 69.8034 Q133.969 74.3867 128.159 74.3867 Q122.349 74.3867 119.27 69.8034 Q116.214 65.1969 116.214 56.4701 Q116.214 47.7202 119.27 43.1369 Q122.349 38.5304 128.159 38.5304 Z" fill="#000000" fill-rule="nonzero" fill-opacity="1" /><path clip-path="url(#clip710)" d="M148.321 67.8358 L153.205 67.8358 L153.205 73.7154 L148.321 73.7154 L148.321 67.8358 Z" fill="#000000" fill-rule="nonzero" fill-opacity="1" /><path clip-path="url(#clip710)" d="M176.237 43.2295 L164.432 61.6784 L176.237 61.6784 L176.237 43.2295 M175.01 39.1554 L180.89 39.1554 L180.89 61.6784 L185.821 61.6784 L185.821 65.5673 L180.89 65.5673 L180.89 73.7154 L176.237 73.7154 L176.237 65.5673 L160.636 65.5673 L160.636 61.0534 L175.01 39.1554 Z" fill="#000000" fill-rule="nonzero" fill-opacity="1" /><path clip-path="url(#clip710)" d="M14.1184 1068.84 L14.1184 1028.64 L19.5293 1028.64 L19.5293 1045.51 L61.6384 1045.51 L61.6384 1051.97 L19.5293 1051.97 L19.5293 1068.84 L14.1184 1068.84 Z" fill="#000000" fill-rule="nonzero" fill-opacity="1" /><path clip-path="url(#clip710)" d="M25.9905 1024.69 L25.9905 1018.84 L61.6384 1018.84 L61.6384 1024.69 L25.9905 1024.69 M12.1132 1024.69 L12.1132 1018.84 L19.5293 1018.84 L19.5293 1024.69 L12.1132 1024.69 Z" fill="#000000" fill-rule="nonzero" fill-opacity="1" /><path clip-path="url(#clip710)" d="M32.8336 978.83 Q28.8869 976.633 27.009 973.578 Q25.1311 970.522 25.1311 966.385 Q25.1311 960.815 29.046 957.791 Q32.9291 954.767 40.1224 954.767 L61.6384 954.767 L61.6384 960.656 L40.3133 960.656 Q35.1889 960.656 32.7063 962.47 Q30.2237 964.284 30.2237 968.008 Q30.2237 972.559 33.2474 975.201 Q36.2711 977.843 41.491 977.843 L61.6384 977.843 L61.6384 983.731 L40.3133 983.731 Q35.1571 983.731 32.7063 985.545 Q30.2237 987.36 30.2237 991.147 Q30.2237 995.635 33.2792 998.277 Q36.3029 1000.92 41.491 1000.92 L61.6384 1000.92 L61.6384 1006.81 L25.9905 1006.81 L25.9905 1000.92 L31.5287 1000.92 Q28.2503 998.913 26.6907 996.113 Q25.1311 993.312 25.1311 989.46 Q25.1311 985.577 27.1045 982.872 Q29.0779 980.135 32.8336 978.83 Z" fill="#000000" fill-rule="nonzero" fill-opacity="1" /><path clip-path="url(#clip710)" d="M42.3504 912.594 L45.2149 912.594 L45.2149 939.521 Q51.2623 939.139 54.4452 935.893 Q57.5962 932.615 57.5962 926.79 Q57.5962 923.416 56.7687 920.265 Q55.9411 917.082 54.2861 913.963 L59.8242 913.963 Q61.161 917.114 61.8612 920.424 Q62.5615 923.734 62.5615 927.14 Q62.5615 935.67 57.5962 940.667 Q52.631 945.633 44.1646 945.633 Q35.4117 945.633 30.2873 940.922 Q25.1311 936.179 25.1311 928.159 Q25.1311 920.965 29.7781 916.796 Q34.3932 912.594 42.3504 912.594 M40.6316 918.451 Q35.8255 918.515 32.9609 921.156 Q30.0964 923.766 30.0964 928.095 Q30.0964 932.997 32.8654 935.957 Q35.6345 938.885 40.6634 939.33 L40.6316 918.451 Z" fill="#000000" fill-rule="nonzero" fill-opacity="1" /><path clip-path="url(#clip710)" d="M12.1769 868.194 Q19.4975 872.459 26.6589 874.528 Q33.8203 876.596 41.1727 876.596 Q48.5251 876.596 55.7502 874.528 Q62.9434 872.427 70.2321 868.194 L70.2321 873.286 Q62.7524 878.061 55.5274 880.448 Q48.3023 882.803 41.1727 882.803 Q34.0749 882.803 26.8817 880.448 Q19.6884 878.092 12.1769 873.286 L12.1769 868.194 Z" fill="#000000" fill-rule="nonzero" fill-opacity="1" /><path clip-path="url(#clip710)" d="M27.0408 834.105 L32.579 834.105 Q31.3059 836.588 30.6693 839.262 Q30.0327 841.935 30.0327 844.8 Q30.0327 849.16 31.3695 851.356 Q32.7063 853.521 35.3799 853.521 Q37.4169 853.521 38.5946 851.961 Q39.7404 850.402 40.7908 845.691 L41.2364 843.686 Q42.5732 837.447 45.0239 834.837 Q47.4429 832.196 51.8034 832.196 Q56.7687 832.196 59.6651 836.142 Q62.5615 840.057 62.5615 846.932 Q62.5615 849.797 61.9886 852.916 Q61.4475 856.003 60.3335 859.441 L54.2861 859.441 Q55.973 856.194 56.8323 853.043 Q57.6599 849.892 57.6599 846.805 Q57.6599 842.667 56.2594 840.439 Q54.8271 838.211 52.249 838.211 Q49.8619 838.211 48.5887 839.834 Q47.3156 841.426 46.1379 846.869 L45.6605 848.906 Q44.5147 854.348 42.1594 856.767 Q39.7722 859.186 35.6345 859.186 Q30.6056 859.186 27.8684 855.621 Q25.1311 852.057 25.1311 845.5 Q25.1311 842.253 25.6085 839.389 Q26.086 836.524 27.0408 834.105 Z" fill="#000000" fill-rule="nonzero" fill-opacity="1" /><path clip-path="url(#clip710)" d="M42.3504 792.378 L45.2149 792.378 L45.2149 819.305 Q51.2623 818.923 54.4452 815.677 Q57.5962 812.398 57.5962 806.574 Q57.5962 803.2 56.7687 800.049 Q55.9411 796.866 54.2861 793.747 L59.8242 793.747 Q61.161 796.898 61.8612 800.208 Q62.5615 803.518 62.5615 806.924 Q62.5615 815.454 57.5962 820.451 Q52.631 825.416 44.1646 825.416 Q35.4117 825.416 30.2873 820.706 Q25.1311 815.963 25.1311 807.942 Q25.1311 800.749 29.7781 796.579 Q34.3932 792.378 42.3504 792.378 M40.6316 798.235 Q35.8255 798.298 32.9609 800.94 Q30.0964 803.55 30.0964 807.879 Q30.0964 812.78 32.8654 815.74 Q35.6345 818.668 40.6634 819.114 L40.6316 798.235 Z" fill="#000000" fill-rule="nonzero" fill-opacity="1" /><path clip-path="url(#clip710)" d="M27.3591 757.112 L32.8336 757.112 Q31.465 759.595 30.7966 762.109 Q30.0964 764.592 30.0964 767.138 Q30.0964 772.835 33.7248 775.986 Q37.3214 779.137 43.8463 779.137 Q50.3711 779.137 53.9996 775.986 Q57.5962 772.835 57.5962 767.138 Q57.5962 764.592 56.9278 762.109 Q56.2276 759.595 54.859 757.112 L60.2698 757.112 Q61.4156 759.563 61.9886 762.205 Q62.5615 764.815 62.5615 767.775 Q62.5615 775.827 57.5007 780.57 Q52.44 785.312 43.8463 785.312 Q35.1253 785.312 30.1282 780.538 Q25.1311 775.732 25.1311 767.393 Q25.1311 764.687 25.704 762.109 Q26.2451 759.531 27.3591 757.112 Z" fill="#000000" fill-rule="nonzero" fill-opacity="1" /><path clip-path="url(#clip710)" d="M53.554 746.099 L53.554 739.384 L61.6384 739.384 L61.6384 746.099 L53.554 746.099 Z" fill="#000000" fill-rule="nonzero" fill-opacity="1" /><path clip-path="url(#clip710)" d="M12.1769 727.13 L12.1769 722.037 Q19.6884 717.263 26.8817 714.907 Q34.0749 712.52 41.1727 712.52 Q48.3023 712.52 55.5274 714.907 Q62.7524 717.263 70.2321 722.037 L70.2321 727.13 Q62.9434 722.896 55.7502 720.828 Q48.5251 718.727 41.1727 718.727 Q33.8203 718.727 26.6589 720.828 Q19.4975 722.896 12.1769 727.13 Z" fill="#000000" fill-rule="nonzero" fill-opacity="1" /><polyline clip-path="url(#clip712)" style="stroke:#332288; stroke-linecap:round; stroke-linejoin:round; stroke-width:8; stroke-opacity:1; fill:none" points="294.479,1686.38 361.477,1646.9 450.808,1637.63 562.472,1592.82 696.468,1542.02 852.797,1471.6 1031.46,1428.45 1232.45,1261.87 1455.78,1116.76 1701.44,910.831 1969.43,764.633 2259.76,373.515 2572.42,94.9858 "/>
<polyline clip-path="url(#clip712)" style="stroke:#44aa99; stroke-linecap:round; stroke-linejoin:round; stroke-width:8; stroke-opacity:1; fill:none" points="294.479,1585.16 361.477,1565.11 450.808,1565.37 562.472,1502 696.468,1495.8 852.797,1470.83 1031.46,1480.41 1232.45,1336.89 1455.78,1314.31 1701.44,1292.74 1969.43,1272.6 2259.76,1211.74 2572.42,1188.12 "/>
<path clip-path="url(#clip710)" d="M2167.67 1677.89 L2560.27 1677.89 L2560.27 1522.37 L2167.67 1522.37  Z" fill="#ffffff" fill-rule="evenodd" fill-opacity="1"/>
<polyline clip-path="url(#clip710)" style="stroke:#000000; stroke-linecap:round; stroke-linejoin:round; stroke-width:4; stroke-opacity:1; fill:none" points="2167.67,1677.89 2560.27,1677.89 2560.27,1522.37 2167.67,1522.37 2167.67,1677.89 "/>
<polyline clip-path="url(#clip710)" style="stroke:#332288; stroke-linecap:round; stroke-linejoin:round; stroke-width:8; stroke-opacity:1; fill:none" points="2194.5,1574.21 2355.48,1574.21 "/>
<path clip-path="url(#clip710)" d="M2386.98 1560.77 L2386.98 1587.65 L2392.63 1587.65 Q2399.78 1587.65 2403.09 1584.4 Q2406.43 1581.16 2406.43 1574.17 Q2406.43 1567.23 2403.09 1564.01 Q2399.78 1560.77 2392.63 1560.77 L2386.98 1560.77 M2382.31 1556.93 L2391.91 1556.93 Q2401.96 1556.93 2406.66 1561.12 Q2411.36 1565.28 2411.36 1574.17 Q2411.36 1583.11 2406.63 1587.3 Q2401.91 1591.49 2391.91 1591.49 L2382.31 1591.49 L2382.31 1556.93 Z" fill="#000000" fill-rule="nonzero" fill-opacity="1" /><path clip-path="url(#clip710)" d="M2444.69 1559.59 L2444.69 1564.52 Q2442.33 1562.32 2439.64 1561.23 Q2436.98 1560.15 2433.97 1560.15 Q2428.05 1560.15 2424.9 1563.78 Q2421.75 1567.39 2421.75 1574.24 Q2421.75 1581.07 2424.9 1584.71 Q2428.05 1588.32 2433.97 1588.32 Q2436.98 1588.32 2439.64 1587.23 Q2442.33 1586.14 2444.69 1583.94 L2444.69 1588.83 Q2442.24 1590.49 2439.48 1591.33 Q2436.75 1592.16 2433.69 1592.16 Q2425.85 1592.16 2421.33 1587.37 Q2416.82 1582.55 2416.82 1574.24 Q2416.82 1565.91 2421.33 1561.12 Q2425.85 1556.3 2433.69 1556.3 Q2436.8 1556.3 2439.53 1557.14 Q2442.28 1557.95 2444.69 1559.59 Z" fill="#000000" fill-rule="nonzero" fill-opacity="1" /><path clip-path="url(#clip710)" d="M2463.46 1561.53 L2457.12 1578.73 L2469.83 1578.73 L2463.46 1561.53 M2460.82 1556.93 L2466.13 1556.93 L2479.3 1591.49 L2474.44 1591.49 L2471.29 1582.62 L2455.71 1582.62 L2452.56 1591.49 L2447.63 1591.49 L2460.82 1556.93 Z" fill="#000000" fill-rule="nonzero" fill-opacity="1" /><polyline clip-path="url(#clip710)" style="stroke:#44aa99; stroke-linecap:round; stroke-linejoin:round; stroke-width:8; stroke-opacity:1; fill:none" points="2194.5,1626.05 2355.48,1626.05 "/>
<path clip-path="url(#clip710)" d="M2386.98 1612.61 L2386.98 1639.49 L2392.63 1639.49 Q2399.78 1639.49 2403.09 1636.24 Q2406.43 1633 2406.43 1626.01 Q2406.43 1619.07 2403.09 1615.85 Q2399.78 1612.61 2392.63 1612.61 L2386.98 1612.61 M2382.31 1608.77 L2391.91 1608.77 Q2401.96 1608.77 2406.66 1612.96 Q2411.36 1617.12 2411.36 1626.01 Q2411.36 1634.95 2406.63 1639.14 Q2401.91 1643.33 2391.91 1643.33 L2382.31 1643.33 L2382.31 1608.77 Z" fill="#000000" fill-rule="nonzero" fill-opacity="1" /><path clip-path="url(#clip710)" d="M2444.69 1611.43 L2444.69 1616.36 Q2442.33 1614.16 2439.64 1613.07 Q2436.98 1611.99 2433.97 1611.99 Q2428.05 1611.99 2424.9 1615.62 Q2421.75 1619.23 2421.75 1626.08 Q2421.75 1632.91 2424.9 1636.55 Q2428.05 1640.16 2433.97 1640.16 Q2436.98 1640.16 2439.64 1639.07 Q2442.33 1637.98 2444.69 1635.78 L2444.69 1640.67 Q2442.24 1642.33 2439.48 1643.17 Q2436.75 1644 2433.69 1644 Q2425.85 1644 2421.33 1639.21 Q2416.82 1634.39 2416.82 1626.08 Q2416.82 1617.75 2421.33 1612.96 Q2425.85 1608.14 2433.69 1608.14 Q2436.8 1608.14 2439.53 1608.98 Q2442.28 1609.79 2444.69 1611.43 Z" fill="#000000" fill-rule="nonzero" fill-opacity="1" /><path clip-path="url(#clip710)" d="M2456.59 1612.61 L2456.59 1625.6 L2462.47 1625.6 Q2465.73 1625.6 2467.51 1623.91 Q2469.3 1622.22 2469.3 1619.09 Q2469.3 1615.99 2467.51 1614.3 Q2465.73 1612.61 2462.47 1612.61 L2456.59 1612.61 M2451.91 1608.77 L2462.47 1608.77 Q2468.28 1608.77 2471.24 1611.41 Q2474.23 1614.02 2474.23 1619.09 Q2474.23 1624.21 2471.24 1626.82 Q2468.28 1629.44 2462.47 1629.44 L2456.59 1629.44 L2456.59 1643.33 L2451.91 1643.33 L2451.91 1608.77 Z" fill="#000000" fill-rule="nonzero" fill-opacity="1" /><path clip-path="url(#clip710)" d="M2485.18 1612.61 L2485.18 1625.6 L2491.06 1625.6 Q2494.32 1625.6 2496.1 1623.91 Q2497.88 1622.22 2497.88 1619.09 Q2497.88 1615.99 2496.1 1614.3 Q2494.32 1612.61 2491.06 1612.61 L2485.18 1612.61 M2480.5 1608.77 L2491.06 1608.77 Q2496.87 1608.77 2499.83 1611.41 Q2502.81 1614.02 2502.81 1619.09 Q2502.81 1624.21 2499.83 1626.82 Q2496.87 1629.44 2491.06 1629.44 L2485.18 1629.44 L2485.18 1643.33 L2480.5 1643.33 L2480.5 1608.77 Z" fill="#000000" fill-rule="nonzero" fill-opacity="1" /><path clip-path="url(#clip710)" d="M2517.61 1613.37 L2511.26 1630.57 L2523.97 1630.57 L2517.61 1613.37 M2514.97 1608.77 L2520.27 1608.77 L2533.44 1643.33 L2528.58 1643.33 L2525.43 1634.46 L2509.85 1634.46 L2506.7 1643.33 L2501.77 1643.33 L2514.97 1608.77 Z" fill="#000000" fill-rule="nonzero" fill-opacity="1" /></svg>
