<?xml version="1.0" encoding="utf-8"?>
<svg xmlns="http://www.w3.org/2000/svg" xmlns:xlink="http://www.w3.org/1999/xlink" width="672" height="480" viewBox="0 0 2688 1920">
<defs>
  <clipPath id="clip620">
    <rect x="0" y="0" width="2688" height="1920"/>
  </clipPath>
</defs>
<path clip-path="url(#clip620)" d="M0 1920 L2688 1920 L2688 -4.26326e-14 L0 -4.26326e-14  Z" fill="#ffffff" fill-rule="evenodd" fill-opacity="1"/>
<defs>
  <clipPath id="clip621">
    <rect x="537" y="0" width="1883" height="1883"/>
  </clipPath>
</defs>
<path clip-path="url(#clip620)" d="M255.816 1734.12 L2640.76 1734.12 L2640.76 47.2441 L255.816 47.2441  Z" fill="#ffffff" fill-rule="evenodd" fill-opacity="1"/>
<defs>
  <clipPath id="clip622">
    <rect x="255" y="47" width="2386" height="1688"/>
  </clipPath>
</defs>
<polyline clip-path="url(#clip622)" style="stroke:#000000; stroke-linecap:round; stroke-linejoin:round; stroke-width:2; stroke-opacity:0.1; fill:none" points="257.14,1734.12 257.14,47.2441 "/>
<polyline clip-path="url(#clip622)" style="stroke:#000000; stroke-linecap:round; stroke-linejoin:round; stroke-width:2; stroke-opacity:0.1; fill:none" points="808.596,1734.12 808.596,47.2441 "/>
<polyline clip-path="url(#clip622)" style="stroke:#000000; stroke-linecap:round; stroke-linejoin:round; stroke-width:2; stroke-opacity:0.1; fill:none" points="1360.05,1734.12 1360.05,47.2441 "/>
<polyline clip-path="url(#clip622)" style="stroke:#000000; stroke-linecap:round; stroke-linejoin:round; stroke-width:2; stroke-opacity:0.1; fill:none" points="1911.51,1734.12 1911.51,47.2441 "/>
<polyline clip-path="url(#clip622)" style="stroke:#000000; stroke-linecap:round; stroke-linejoin:round; stroke-width:2; stroke-opacity:0.1; fill:none" points="2462.97,1734.12 2462.97,47.2441 "/>
<polyline clip-path="url(#clip622)" style="stroke:#000000; stroke-linecap:round; stroke-linejoin:round; stroke-width:2; stroke-opacity:0.1; fill:none" points="255.816,1714.66 2640.76,1714.66 "/>
<polyline clip-path="url(#clip622)" style="stroke:#000000; stroke-linecap:round; stroke-linejoin:round; stroke-width:2; stroke-opacity:0.1; fill:none" points="255.816,1331.52 2640.76,1331.52 "/>
<polyline clip-path="url(#clip622)" style="stroke:#000000; stroke-linecap:round; stroke-linejoin:round; stroke-width:2; stroke-opacity:0.1; fill:none" points="255.816,948.385 2640.76,948.385 "/>
<polyline clip-path="url(#clip622)" style="stroke:#000000; stroke-linecap:round; stroke-linejoin:round; stroke-width:2; stroke-opacity:0.1; fill:none" points="255.816,565.248 2640.76,565.248 "/>
<polyline clip-path="url(#clip622)" style="stroke:#000000; stroke-linecap:round; stroke-linejoin:round; stroke-width:2; stroke-opacity:0.1; fill:none" points="255.816,182.111 2640.76,182.111 "/>
<polyline clip-path="url(#clip620)" style="stroke:#000000; stroke-linecap:round; stroke-linejoin:round; stroke-width:4; stroke-opacity:1; fill:none" points="255.816,1734.12 2640.76,1734.12 "/>
<polyline clip-path="url(#clip620)" style="stroke:#000000; stroke-linecap:round; stroke-linejoin:round; stroke-width:4; stroke-opacity:1; fill:none" points="257.14,1734.12 257.14,1715.22 "/>
<polyline clip-path="url(#clip620)" style="stroke:#000000; stroke-linecap:round; stroke-linejoin:round; stroke-width:4; stroke-opacity:1; fill:none" points="808.596,1734.12 808.596,1715.22 "/>
<polyline clip-path="url(#clip620)" style="stroke:#000000; stroke-linecap:round; stroke-linejoin:round; stroke-width:4; stroke-opacity:1; fill:none" points="1360.05,1734.12 1360.05,1715.22 "/>
<polyline clip-path="url(#clip620)" style="stroke:#000000; stroke-linecap:round; stroke-linejoin:round; stroke-width:4; stroke-opacity:1; fill:none" points="1911.51,1734.12 1911.51,1715.22 "/>
<polyline clip-path="url(#clip620)" style="stroke:#000000; stroke-linecap:round; stroke-linejoin:round; stroke-width:4; stroke-opacity:1; fill:none" points="2462.97,1734.12 2462.97,1715.22 "/>
<path clip-path="url(#clip620)" d="M257.14 1767.34 Q253.529 1767.34 251.7 1770.9 Q249.894 1774.45 249.894 1781.58 Q249.894 1788.68 251.7 1792.25 Q253.529 1795.79 257.14 1795.79 Q260.774 1795.79 262.58 1792.25 Q264.408 1788.68 264.408 1781.58 Q264.408 1774.45 262.58 1770.9 Q260.774 1767.34 257.14 1767.34 M257.14 1763.64 Q262.95 1763.64 266.006 1768.24 Q269.084 1772.83 269.084 1781.58 Q269.084 1790.3 266.006 1794.91 Q262.95 1799.49 257.14 1799.49 Q251.33 1799.49 248.251 1794.91 Q245.195 1790.3 245.195 1781.58 Q245.195 1772.83 248.251 1768.24 Q251.33 1763.64 257.14 1763.64 Z" fill="#000000" fill-rule="nonzero" fill-opacity="1" /><path clip-path="url(#clip620)" d="M787.867 1794.89 L804.187 1794.89 L804.187 1798.82 L782.242 1798.82 L782.242 1794.89 Q784.904 1792.13 789.488 1787.5 Q794.094 1782.85 795.275 1781.51 Q797.52 1778.98 798.4 1777.25 Q799.303 1775.49 799.303 1773.8 Q799.303 1771.04 797.358 1769.31 Q795.437 1767.57 792.335 1767.57 Q790.136 1767.57 787.682 1768.34 Q785.252 1769.1 782.474 1770.65 L782.474 1765.93 Q785.298 1764.79 787.752 1764.21 Q790.205 1763.64 792.242 1763.64 Q797.613 1763.64 800.807 1766.32 Q804.002 1769.01 804.002 1773.5 Q804.002 1775.63 803.191 1777.55 Q802.404 1779.45 800.298 1782.04 Q799.719 1782.71 796.617 1785.93 Q793.515 1789.12 787.867 1794.89 Z" fill="#000000" fill-rule="nonzero" fill-opacity="1" /><path clip-path="url(#clip620)" d="M814.048 1764.26 L832.404 1764.26 L832.404 1768.2 L818.33 1768.2 L818.33 1776.67 Q819.349 1776.32 820.367 1776.16 Q821.386 1775.97 822.404 1775.97 Q828.191 1775.97 831.571 1779.15 Q834.95 1782.32 834.95 1787.73 Q834.95 1793.31 831.478 1796.41 Q828.006 1799.49 821.687 1799.49 Q819.511 1799.49 817.242 1799.12 Q814.997 1798.75 812.589 1798.01 L812.589 1793.31 Q814.673 1794.45 816.895 1795 Q819.117 1795.56 821.594 1795.56 Q825.599 1795.56 827.937 1793.45 Q830.275 1791.34 830.275 1787.73 Q830.275 1784.12 827.937 1782.02 Q825.599 1779.91 821.594 1779.91 Q819.719 1779.91 817.844 1780.33 Q815.992 1780.74 814.048 1781.62 L814.048 1764.26 Z" fill="#000000" fill-rule="nonzero" fill-opacity="1" /><path clip-path="url(#clip620)" d="M1334.75 1764.26 L1353.11 1764.26 L1353.11 1768.2 L1339.03 1768.2 L1339.03 1776.67 Q1340.05 1776.32 1341.07 1776.16 Q1342.09 1775.97 1343.11 1775.97 Q1348.9 1775.97 1352.28 1779.15 Q1355.65 1782.32 1355.65 1787.73 Q1355.65 1793.31 1352.18 1796.41 Q1348.71 1799.49 1342.39 1799.49 Q1340.22 1799.49 1337.95 1799.12 Q1335.7 1798.75 1333.29 1798.01 L1333.29 1793.31 Q1335.38 1794.45 1337.6 1795 Q1339.82 1795.56 1342.3 1795.56 Q1346.3 1795.56 1348.64 1793.45 Q1350.98 1791.34 1350.98 1787.73 Q1350.98 1784.12 1348.64 1782.02 Q1346.3 1779.91 1342.3 1779.91 Q1340.42 1779.91 1338.55 1780.33 Q1336.7 1780.74 1334.75 1781.62 L1334.75 1764.26 Z" fill="#000000" fill-rule="nonzero" fill-opacity="1" /><path clip-path="url(#clip620)" d="M1374.87 1767.34 Q1371.26 1767.34 1369.43 1770.9 Q1367.62 1774.45 1367.62 1781.58 Q1367.62 1788.68 1369.43 1792.25 Q1371.26 1795.79 1374.87 1795.79 Q1378.5 1795.79 1380.31 1792.25 Q1382.14 1788.68 1382.14 1781.58 Q1382.14 1774.45 1380.31 1770.9 Q1378.5 1767.34 1374.87 1767.34 M1374.87 1763.64 Q1380.68 1763.64 1383.73 1768.24 Q1386.81 1772.83 1386.81 1781.58 Q1386.81 1790.3 1383.73 1794.91 Q1380.68 1799.49 1374.87 1799.49 Q1369.06 1799.49 1365.98 1794.91 Q1362.92 1790.3 1362.92 1781.58 Q1362.92 1772.83 1365.98 1768.24 Q1369.06 1763.64 1374.87 1763.64 Z" fill="#000000" fill-rule="nonzero" fill-opacity="1" /><path clip-path="url(#clip620)" d="M1885.36 1764.26 L1907.59 1764.26 L1907.59 1766.25 L1895.04 1798.82 L1890.16 1798.82 L1901.96 1768.2 L1885.36 1768.2 L1885.36 1764.26 Z" fill="#000000" fill-rule="nonzero" fill-opacity="1" /><path clip-path="url(#clip620)" d="M1916.75 1764.26 L1935.11 1764.26 L1935.11 1768.2 L1921.04 1768.2 L1921.04 1776.67 Q1922.05 1776.32 1923.07 1776.16 Q1924.09 1775.97 1925.11 1775.97 Q1930.9 1775.97 1934.28 1779.15 Q1937.66 1782.32 1937.66 1787.73 Q1937.66 1793.31 1934.18 1796.41 Q1930.71 1799.49 1924.39 1799.49 Q1922.22 1799.49 1919.95 1799.12 Q1917.7 1798.75 1915.29 1798.01 L1915.29 1793.31 Q1917.38 1794.45 1919.6 1795 Q1921.82 1795.56 1924.3 1795.56 Q1928.3 1795.56 1930.64 1793.45 Q1932.98 1791.34 1932.98 1787.73 Q1932.98 1784.12 1930.64 1782.02 Q1928.3 1779.91 1924.3 1779.91 Q1922.42 1779.91 1920.55 1780.33 Q1918.7 1780.74 1916.75 1781.62 L1916.75 1764.26 Z" fill="#000000" fill-rule="nonzero" fill-opacity="1" /><path clip-path="url(#clip620)" d="M2422.57 1794.89 L2430.21 1794.89 L2430.21 1768.52 L2421.9 1770.19 L2421.9 1765.93 L2430.17 1764.26 L2434.84 1764.26 L2434.84 1794.89 L2442.48 1794.89 L2442.48 1798.82 L2422.57 1798.82 L2422.57 1794.89 Z" fill="#000000" fill-rule="nonzero" fill-opacity="1" /><path clip-path="url(#clip620)" d="M2461.92 1767.34 Q2458.31 1767.34 2456.48 1770.9 Q2454.68 1774.45 2454.68 1781.58 Q2454.68 1788.68 2456.48 1792.25 Q2458.31 1795.79 2461.92 1795.79 Q2465.56 1795.79 2467.36 1792.25 Q2469.19 1788.68 2469.19 1781.58 Q2469.19 1774.45 2467.36 1770.9 Q2465.56 1767.34 2461.92 1767.34 M2461.92 1763.64 Q2467.73 1763.64 2470.79 1768.24 Q2473.87 1772.83 2473.87 1781.58 Q2473.87 1790.3 2470.79 1794.91 Q2467.73 1799.49 2461.92 1799.49 Q2456.11 1799.49 2453.04 1794.91 Q2449.98 1790.3 2449.98 1781.58 Q2449.98 1772.83 2453.04 1768.24 Q2456.11 1763.64 2461.92 1763.64 Z" fill="#000000" fill-rule="nonzero" fill-opacity="1" /><path clip-path="url(#clip620)" d="M2492.09 1767.34 Q2488.48 1767.34 2486.65 1770.9 Q2484.84 1774.45 2484.84 1781.58 Q2484.84 1788.68 2486.65 1792.25 Q2488.48 1795.79 2492.09 1795.79 Q2495.72 1795.79 2497.53 1792.25 Q2499.35 1788.68 2499.35 1781.58 Q2499.35 1774.45 2497.53 1770.9 Q2495.72 1767.34 2492.09 1767.34 M2492.09 1763.64 Q2497.9 1763.64 2500.95 1768.24 Q2504.03 1772.83 2504.03 1781.58 Q2504.03 1790.3 2500.95 1794.91 Q2497.9 1799.49 2492.09 1799.49 Q2486.28 1799.49 2483.2 1794.91 Q2480.14 1790.3 2480.14 1781.58 Q2480.14 1772.83 2483.2 1768.24 Q2486.28 1763.64 2492.09 1763.64 Z" fill="#000000" fill-rule="nonzero" fill-opacity="1" /><path clip-path="url(#clip620)" d="M1160.21 1854.5 Q1162.4 1850.55 1165.46 1848.67 Q1168.51 1846.79 1172.65 1846.79 Q1178.22 1846.79 1181.24 1850.71 Q1184.27 1854.59 1184.27 1861.78 L1184.27 1883.3 L1178.38 1883.3 L1178.38 1861.98 Q1178.38 1856.85 1176.57 1854.37 Q1174.75 1851.89 1171.03 1851.89 Q1166.48 1851.89 1163.83 1854.91 Q1161.19 1857.93 1161.19 1863.15 L1161.19 1883.3 L1155.3 1883.3 L1155.3 1861.98 Q1155.3 1856.82 1153.49 1854.37 Q1151.68 1851.89 1147.89 1851.89 Q1143.4 1851.89 1140.76 1854.94 Q1138.12 1857.97 1138.12 1863.15 L1138.12 1883.3 L1132.23 1883.3 L1132.23 1847.65 L1138.12 1847.65 L1138.12 1853.19 Q1140.12 1849.91 1142.92 1848.35 Q1145.72 1846.79 1149.58 1846.79 Q1153.46 1846.79 1156.16 1848.77 Q1158.9 1850.74 1160.21 1854.5 Z" fill="#000000" fill-rule="nonzero" fill-opacity="1" /><path clip-path="url(#clip620)" d="M1212.15 1865.38 Q1205.05 1865.38 1202.32 1867 Q1199.58 1868.63 1199.58 1872.54 Q1199.58 1875.66 1201.61 1877.51 Q1203.68 1879.32 1207.22 1879.32 Q1212.09 1879.32 1215.01 1875.88 Q1217.97 1872.42 1217.97 1866.69 L1217.97 1865.38 L1212.15 1865.38 M1223.83 1862.96 L1223.83 1883.3 L1217.97 1883.3 L1217.97 1877.89 Q1215.97 1881.14 1212.98 1882.7 Q1209.99 1884.22 1205.66 1884.22 Q1200.18 1884.22 1196.94 1881.17 Q1193.72 1878.08 1193.72 1872.92 Q1193.72 1866.91 1197.73 1863.85 Q1201.77 1860.8 1209.76 1860.8 L1217.97 1860.8 L1217.97 1860.23 Q1217.97 1856.18 1215.3 1853.99 Q1212.66 1851.76 1207.85 1851.76 Q1204.8 1851.76 1201.9 1852.49 Q1199.01 1853.22 1196.33 1854.69 L1196.33 1849.28 Q1199.55 1848.03 1202.57 1847.43 Q1205.59 1846.79 1208.46 1846.79 Q1216.19 1846.79 1220.01 1850.8 Q1223.83 1854.81 1223.83 1862.96 Z" fill="#000000" fill-rule="nonzero" fill-opacity="1" /><path clip-path="url(#clip620)" d="M1265.53 1861.78 L1265.53 1883.3 L1259.67 1883.3 L1259.67 1861.98 Q1259.67 1856.92 1257.7 1854.4 Q1255.72 1851.89 1251.78 1851.89 Q1247.03 1851.89 1244.3 1854.91 Q1241.56 1857.93 1241.56 1863.15 L1241.56 1883.3 L1235.67 1883.3 L1235.67 1847.65 L1241.56 1847.65 L1241.56 1853.19 Q1243.66 1849.98 1246.49 1848.39 Q1249.36 1846.79 1253.08 1846.79 Q1259.22 1846.79 1262.38 1850.61 Q1265.53 1854.4 1265.53 1861.78 Z" fill="#000000" fill-rule="nonzero" fill-opacity="1" /><path clip-path="url(#clip620)" d="M1277.21 1847.65 L1283.06 1847.65 L1283.06 1883.3 L1277.21 1883.3 L1277.21 1847.65 M1277.21 1833.78 L1283.06 1833.78 L1283.06 1841.19 L1277.21 1841.19 L1277.21 1833.78 Z" fill="#000000" fill-rule="nonzero" fill-opacity="1" /><path clip-path="url(#clip620)" d="M1313.36 1833.78 L1313.36 1838.65 L1307.76 1838.65 Q1304.61 1838.65 1303.37 1839.92 Q1302.16 1841.19 1302.16 1844.5 L1302.16 1847.65 L1311.81 1847.65 L1311.81 1852.2 L1302.16 1852.2 L1302.16 1883.3 L1296.27 1883.3 L1296.27 1852.2 L1290.67 1852.2 L1290.67 1847.65 L1296.27 1847.65 L1296.27 1845.17 Q1296.27 1839.22 1299.04 1836.51 Q1301.81 1833.78 1307.83 1833.78 L1313.36 1833.78 Z" fill="#000000" fill-rule="nonzero" fill-opacity="1" /><path clip-path="url(#clip620)" d="M1332.08 1851.76 Q1327.37 1851.76 1324.63 1855.45 Q1321.9 1859.11 1321.9 1865.51 Q1321.9 1871.91 1324.6 1875.6 Q1327.34 1879.26 1332.08 1879.26 Q1336.76 1879.26 1339.5 1875.57 Q1342.23 1871.87 1342.23 1865.51 Q1342.23 1859.17 1339.5 1855.48 Q1336.76 1851.76 1332.08 1851.76 M1332.08 1846.79 Q1339.72 1846.79 1344.08 1851.76 Q1348.44 1856.72 1348.44 1865.51 Q1348.44 1874.26 1344.08 1879.26 Q1339.72 1884.22 1332.08 1884.22 Q1324.41 1884.22 1320.05 1879.26 Q1315.72 1874.26 1315.72 1865.51 Q1315.72 1856.72 1320.05 1851.76 Q1324.41 1846.79 1332.08 1846.79 Z" fill="#000000" fill-rule="nonzero" fill-opacity="1" /><path clip-path="url(#clip620)" d="M1358.15 1833.78 L1364 1833.78 L1364 1883.3 L1358.15 1883.3 L1358.15 1833.78 Z" fill="#000000" fill-rule="nonzero" fill-opacity="1" /><path clip-path="url(#clip620)" d="M1399.72 1853.06 L1399.72 1833.78 L1405.57 1833.78 L1405.57 1883.3 L1399.72 1883.3 L1399.72 1877.95 Q1397.87 1881.14 1395.04 1882.7 Q1392.24 1884.22 1388.29 1884.22 Q1381.83 1884.22 1377.75 1879.07 Q1373.71 1873.91 1373.71 1865.51 Q1373.71 1857.11 1377.75 1851.95 Q1381.83 1846.79 1388.29 1846.79 Q1392.24 1846.79 1395.04 1848.35 Q1397.87 1849.88 1399.72 1853.06 M1379.76 1865.51 Q1379.76 1871.97 1382.4 1875.66 Q1385.07 1879.32 1389.72 1879.32 Q1394.37 1879.32 1397.04 1875.66 Q1399.72 1871.97 1399.72 1865.51 Q1399.72 1859.05 1397.04 1855.39 Q1394.37 1851.7 1389.72 1851.7 Q1385.07 1851.7 1382.4 1855.39 Q1379.76 1859.05 1379.76 1865.51 Z" fill="#000000" fill-rule="nonzero" fill-opacity="1" /><path clip-path="url(#clip620)" d="M1461.81 1853.06 L1461.81 1833.78 L1467.67 1833.78 L1467.67 1883.3 L1461.81 1883.3 L1461.81 1877.95 Q1459.97 1881.14 1457.13 1882.7 Q1454.33 1884.22 1450.39 1884.22 Q1443.93 1884.22 1439.85 1879.07 Q1435.81 1873.91 1435.81 1865.51 Q1435.81 1857.11 1439.85 1851.95 Q1443.93 1846.79 1450.39 1846.79 Q1454.33 1846.79 1457.13 1848.35 Q1459.97 1849.88 1461.81 1853.06 M1441.86 1865.51 Q1441.86 1871.97 1444.5 1875.66 Q1447.17 1879.32 1451.82 1879.32 Q1456.47 1879.32 1459.14 1875.66 Q1461.81 1871.97 1461.81 1865.51 Q1461.81 1859.05 1459.14 1855.39 Q1456.47 1851.7 1451.82 1851.7 Q1447.17 1851.7 1444.5 1855.39 Q1441.86 1859.05 1441.86 1865.51 Z" fill="#000000" fill-rule="nonzero" fill-opacity="1" /><path clip-path="url(#clip620)" d="M1479.73 1847.65 L1485.59 1847.65 L1485.59 1883.3 L1479.73 1883.3 L1479.73 1847.65 M1479.73 1833.78 L1485.59 1833.78 L1485.59 1841.19 L1479.73 1841.19 L1479.73 1833.78 Z" fill="#000000" fill-rule="nonzero" fill-opacity="1" /><path clip-path="url(#clip620)" d="M1525.6 1854.5 Q1527.79 1850.55 1530.85 1848.67 Q1533.9 1846.79 1538.04 1846.79 Q1543.61 1846.79 1546.64 1850.71 Q1549.66 1854.59 1549.66 1861.78 L1549.66 1883.3 L1543.77 1883.3 L1543.77 1861.98 Q1543.77 1856.85 1541.96 1854.37 Q1540.14 1851.89 1536.42 1851.89 Q1531.87 1851.89 1529.23 1854.91 Q1526.58 1857.93 1526.58 1863.15 L1526.58 1883.3 L1520.7 1883.3 L1520.7 1861.98 Q1520.7 1856.82 1518.88 1854.37 Q1517.07 1851.89 1513.28 1851.89 Q1508.79 1851.89 1506.15 1854.94 Q1503.51 1857.97 1503.51 1863.15 L1503.51 1883.3 L1497.62 1883.3 L1497.62 1847.65 L1503.51 1847.65 L1503.51 1853.19 Q1505.51 1849.91 1508.31 1848.35 Q1511.12 1846.79 1514.97 1846.79 Q1518.85 1846.79 1521.56 1848.77 Q1524.29 1850.74 1525.6 1854.5 Z" fill="#000000" fill-rule="nonzero" fill-opacity="1" /><path clip-path="url(#clip620)" d="M1591.83 1864.01 L1591.83 1866.88 L1564.91 1866.88 Q1565.29 1872.92 1568.53 1876.11 Q1571.81 1879.26 1577.64 1879.26 Q1581.01 1879.26 1584.16 1878.43 Q1587.34 1877.6 1590.46 1875.95 L1590.46 1881.49 Q1587.31 1882.82 1584 1883.52 Q1580.69 1884.22 1577.29 1884.22 Q1568.76 1884.22 1563.76 1879.26 Q1558.79 1874.29 1558.79 1865.83 Q1558.79 1857.07 1563.51 1851.95 Q1568.25 1846.79 1576.27 1846.79 Q1583.46 1846.79 1587.63 1851.44 Q1591.83 1856.06 1591.83 1864.01 M1585.98 1862.29 Q1585.91 1857.49 1583.27 1854.62 Q1580.66 1851.76 1576.33 1851.76 Q1571.43 1851.76 1568.47 1854.53 Q1565.54 1857.3 1565.1 1862.33 L1585.98 1862.29 Z" fill="#000000" fill-rule="nonzero" fill-opacity="1" /><path clip-path="url(#clip620)" d="M1631.08 1861.78 L1631.08 1883.3 L1625.22 1883.3 L1625.22 1861.98 Q1625.22 1856.92 1623.25 1854.4 Q1621.27 1851.89 1617.33 1851.89 Q1612.59 1851.89 1609.85 1854.91 Q1607.11 1857.93 1607.11 1863.15 L1607.11 1883.3 L1601.22 1883.3 L1601.22 1847.65 L1607.11 1847.65 L1607.11 1853.19 Q1609.21 1849.98 1612.04 1848.39 Q1614.91 1846.79 1618.63 1846.79 Q1624.78 1846.79 1627.93 1850.61 Q1631.08 1854.4 1631.08 1861.78 Z" fill="#000000" fill-rule="nonzero" fill-opacity="1" /><path clip-path="url(#clip620)" d="M1665.48 1848.7 L1665.48 1854.24 Q1663 1852.97 1660.33 1852.33 Q1657.65 1851.7 1654.79 1851.7 Q1650.43 1851.7 1648.23 1853.03 Q1646.07 1854.37 1646.07 1857.04 Q1646.07 1859.08 1647.63 1860.26 Q1649.19 1861.4 1653.9 1862.45 L1655.9 1862.9 Q1662.14 1864.24 1664.75 1866.69 Q1667.39 1869.11 1667.39 1873.47 Q1667.39 1878.43 1663.45 1881.33 Q1659.53 1884.22 1652.66 1884.22 Q1649.79 1884.22 1646.67 1883.65 Q1643.59 1883.11 1640.15 1882 L1640.15 1875.95 Q1643.4 1877.64 1646.55 1878.49 Q1649.7 1879.32 1652.78 1879.32 Q1656.92 1879.32 1659.15 1877.92 Q1661.38 1876.49 1661.38 1873.91 Q1661.38 1871.52 1659.75 1870.25 Q1658.16 1868.98 1652.72 1867.8 L1650.68 1867.32 Q1645.24 1866.18 1642.82 1863.82 Q1640.4 1861.43 1640.4 1857.3 Q1640.4 1852.27 1643.97 1849.53 Q1647.53 1846.79 1654.09 1846.79 Q1657.34 1846.79 1660.2 1847.27 Q1663.07 1847.75 1665.48 1848.7 Z" fill="#000000" fill-rule="nonzero" fill-opacity="1" /><path clip-path="url(#clip620)" d="M1676.72 1847.65 L1682.58 1847.65 L1682.58 1883.3 L1676.72 1883.3 L1676.72 1847.65 M1676.72 1833.78 L1682.58 1833.78 L1682.58 1841.19 L1676.72 1841.19 L1676.72 1833.78 Z" fill="#000000" fill-rule="nonzero" fill-opacity="1" /><path clip-path="url(#clip620)" d="M1708.64 1851.76 Q1703.93 1851.76 1701.2 1855.45 Q1698.46 1859.11 1698.46 1865.51 Q1698.46 1871.91 1701.16 1875.6 Q1703.9 1879.26 1708.64 1879.26 Q1713.32 1879.26 1716.06 1875.57 Q1718.8 1871.87 1718.8 1865.51 Q1718.8 1859.17 1716.06 1855.48 Q1713.32 1851.76 1708.64 1851.76 M1708.64 1846.79 Q1716.28 1846.79 1720.64 1851.76 Q1725 1856.72 1725 1865.51 Q1725 1874.26 1720.64 1879.26 Q1716.28 1884.22 1708.64 1884.22 Q1700.97 1884.22 1696.61 1879.26 Q1692.28 1874.26 1692.28 1865.51 Q1692.28 1856.72 1696.61 1851.76 Q1700.97 1846.79 1708.64 1846.79 Z" fill="#000000" fill-rule="nonzero" fill-opacity="1" /><path clip-path="url(#clip620)" d="M1764.34 1861.78 L1764.34 1883.3 L1758.49 1883.3 L1758.49 1861.98 Q1758.49 1856.92 1756.51 1854.4 Q1754.54 1851.89 1750.59 1851.89 Q1745.85 1851.89 1743.11 1854.91 Q1740.38 1857.93 1740.38 1863.15 L1740.38 1883.3 L1734.49 1883.3 L1734.49 1847.65 L1740.38 1847.65 L1740.38 1853.19 Q1742.48 1849.98 1745.31 1848.39 Q1748.17 1846.79 1751.9 1846.79 Q1758.04 1846.79 1761.19 1850.61 Q1764.34 1854.4 1764.34 1861.78 Z" fill="#000000" fill-rule="nonzero" fill-opacity="1" /><polyline clip-path="url(#clip620)" style="stroke:#000000; stroke-linecap:round; stroke-linejoin:round; stroke-width:4; stroke-opacity:1; fill:none" points="255.816,1734.12 255.816,47.2441 "/>
<polyline clip-path="url(#clip620)" style="stroke:#000000; stroke-linecap:round; stroke-linejoin:round; stroke-width:4; stroke-opacity:1; fill:none" points="255.816,1714.66 274.714,1714.66 "/>
<polyline clip-path="url(#clip620)" style="stroke:#000000; stroke-linecap:round; stroke-linejoin:round; stroke-width:4; stroke-opacity:1; fill:none" points="255.816,1331.52 274.714,1331.52 "/>
<polyline clip-path="url(#clip620)" style="stroke:#000000; stroke-linecap:round; stroke-linejoin:round; stroke-width:4; stroke-opacity:1; fill:none" points="255.816,948.385 274.714,948.385 "/>
<polyline clip-path="url(#clip620)" style="stroke:#000000; stroke-linecap:round; stroke-linejoin:round; stroke-width:4; stroke-opacity:1; fill:none" points="255.816,565.248 274.714,565.248 "/>
<polyline clip-path="url(#clip620)" style="stroke:#000000; stroke-linecap:round; stroke-linejoin:round; stroke-width:4; stroke-opacity:1; fill:none" points="255.816,182.111 274.714,182.111 "/>
<path clip-path="url(#clip620)" d="M128.159 1700.46 Q124.548 1700.46 122.719 1704.02 Q120.913 1707.56 120.913 1714.69 Q120.913 1721.8 122.719 1725.37 Q124.548 1728.91 128.159 1728.91 Q131.793 1728.91 133.599 1725.37 Q135.427 1721.8 135.427 1714.69 Q135.427 1707.56 133.599 1704.02 Q131.793 1700.46 128.159 1700.46 M128.159 1696.75 Q133.969 1696.75 137.025 1701.36 Q140.103 1705.94 140.103 1714.69 Q140.103 1723.42 137.025 1728.03 Q133.969 1732.61 128.159 1732.61 Q122.349 1732.61 119.27 1728.03 Q116.214 1723.42 116.214 1714.69 Q116.214 1705.94 119.27 1701.36 Q122.349 1696.75 128.159 1696.75 Z" fill="#000000" fill-rule="nonzero" fill-opacity="1" /><path clip-path="url(#clip620)" d="M148.321 1726.06 L153.205 1726.06 L153.205 1731.94 L148.321 1731.94 L148.321 1726.06 Z" fill="#000000" fill-rule="nonzero" fill-opacity="1" /><path clip-path="url(#clip620)" d="M173.39 1700.46 Q169.779 1700.46 167.95 1704.02 Q166.145 1707.56 166.145 1714.69 Q166.145 1721.8 167.95 1725.37 Q169.779 1728.91 173.39 1728.91 Q177.024 1728.91 178.83 1725.37 Q180.659 1721.8 180.659 1714.69 Q180.659 1707.56 178.83 1704.02 Q177.024 1700.46 173.39 1700.46 M173.39 1696.75 Q179.2 1696.75 182.256 1701.36 Q185.334 1705.94 185.334 1714.69 Q185.334 1723.42 182.256 1728.03 Q179.2 1732.61 173.39 1732.61 Q167.58 1732.61 164.501 1728.03 Q161.446 1723.42 161.446 1714.69 Q161.446 1705.94 164.501 1701.36 Q167.58 1696.75 173.39 1696.75 Z" fill="#000000" fill-rule="nonzero" fill-opacity="1" /><path clip-path="url(#clip620)" d="M203.552 1700.46 Q199.941 1700.46 198.112 1704.02 Q196.307 1707.56 196.307 1714.69 Q196.307 1721.8 198.112 1725.37 Q199.941 1728.91 203.552 1728.91 Q207.186 1728.91 208.992 1725.37 Q210.82 1721.8 210.82 1714.69 Q210.82 1707.56 208.992 1704.02 Q207.186 1700.46 203.552 1700.46 M203.552 1696.75 Q209.362 1696.75 212.418 1701.36 Q215.496 1705.94 215.496 1714.69 Q215.496 1723.42 212.418 1728.03 Q209.362 1732.61 203.552 1732.61 Q197.742 1732.61 194.663 1728.03 Q191.608 1723.42 191.608 1714.69 Q191.608 1705.94 194.663 1701.36 Q197.742 1696.75 203.552 1696.75 Z" fill="#000000" fill-rule="nonzero" fill-opacity="1" /><path clip-path="url(#clip620)" d="M129.154 1317.32 Q125.543 1317.32 123.714 1320.89 Q121.909 1324.43 121.909 1331.56 Q121.909 1338.66 123.714 1342.23 Q125.543 1345.77 129.154 1345.77 Q132.788 1345.77 134.594 1342.23 Q136.423 1338.66 136.423 1331.56 Q136.423 1324.43 134.594 1320.89 Q132.788 1317.32 129.154 1317.32 M129.154 1313.62 Q134.964 1313.62 138.02 1318.22 Q141.099 1322.81 141.099 1331.56 Q141.099 1340.28 138.02 1344.89 Q134.964 1349.47 129.154 1349.47 Q123.344 1349.47 120.265 1344.89 Q117.21 1340.28 117.21 1331.56 Q117.21 1322.81 120.265 1318.22 Q123.344 1313.62 129.154 1313.62 Z" fill="#000000" fill-rule="nonzero" fill-opacity="1" /><path clip-path="url(#clip620)" d="M149.316 1342.92 L154.2 1342.92 L154.2 1348.8 L149.316 1348.8 L149.316 1342.92 Z" fill="#000000" fill-rule="nonzero" fill-opacity="1" /><path clip-path="url(#clip620)" d="M174.385 1317.32 Q170.774 1317.32 168.946 1320.89 Q167.14 1324.43 167.14 1331.56 Q167.14 1338.66 168.946 1342.23 Q170.774 1345.77 174.385 1345.77 Q178.02 1345.77 179.825 1342.23 Q181.654 1338.66 181.654 1331.56 Q181.654 1324.43 179.825 1320.89 Q178.02 1317.32 174.385 1317.32 M174.385 1313.62 Q180.196 1313.62 183.251 1318.22 Q186.33 1322.81 186.33 1331.56 Q186.33 1340.28 183.251 1344.89 Q180.196 1349.47 174.385 1349.47 Q168.575 1349.47 165.497 1344.89 Q162.441 1340.28 162.441 1331.56 Q162.441 1322.81 165.497 1318.22 Q168.575 1313.62 174.385 1313.62 Z" fill="#000000" fill-rule="nonzero" fill-opacity="1" /><path clip-path="url(#clip620)" d="M194.594 1314.24 L212.95 1314.24 L212.95 1318.18 L198.876 1318.18 L198.876 1326.65 Q199.895 1326.3 200.913 1326.14 Q201.932 1325.96 202.95 1325.96 Q208.737 1325.96 212.117 1329.13 Q215.496 1332.3 215.496 1337.71 Q215.496 1343.29 212.024 1346.4 Q208.552 1349.47 202.233 1349.47 Q200.057 1349.47 197.788 1349.1 Q195.543 1348.73 193.135 1347.99 L193.135 1343.29 Q195.219 1344.43 197.441 1344.98 Q199.663 1345.54 202.14 1345.54 Q206.145 1345.54 208.482 1343.43 Q210.82 1341.33 210.82 1337.71 Q210.82 1334.1 208.482 1332 Q206.145 1329.89 202.14 1329.89 Q200.265 1329.89 198.39 1330.31 Q196.538 1330.72 194.594 1331.6 L194.594 1314.24 Z" fill="#000000" fill-rule="nonzero" fill-opacity="1" /><path clip-path="url(#clip620)" d="M128.159 934.184 Q124.548 934.184 122.719 937.749 Q120.913 941.29 120.913 948.42 Q120.913 955.526 122.719 959.091 Q124.548 962.633 128.159 962.633 Q131.793 962.633 133.599 959.091 Q135.427 955.526 135.427 948.42 Q135.427 941.29 133.599 937.749 Q131.793 934.184 128.159 934.184 M128.159 930.48 Q133.969 930.48 137.025 935.087 Q140.103 939.67 140.103 948.42 Q140.103 957.147 137.025 961.753 Q133.969 966.337 128.159 966.337 Q122.349 966.337 119.27 961.753 Q116.214 957.147 116.214 948.42 Q116.214 939.67 119.27 935.087 Q122.349 930.48 128.159 930.48 Z" fill="#000000" fill-rule="nonzero" fill-opacity="1" /><path clip-path="url(#clip620)" d="M148.321 959.786 L153.205 959.786 L153.205 965.665 L148.321 965.665 L148.321 959.786 Z" fill="#000000" fill-rule="nonzero" fill-opacity="1" /><path clip-path="url(#clip620)" d="M164.2 961.73 L171.839 961.73 L171.839 935.365 L163.529 937.031 L163.529 932.772 L171.793 931.105 L176.469 931.105 L176.469 961.73 L184.108 961.73 L184.108 965.665 L164.2 965.665 L164.2 961.73 Z" fill="#000000" fill-rule="nonzero" fill-opacity="1" /><path clip-path="url(#clip620)" d="M203.552 934.184 Q199.941 934.184 198.112 937.749 Q196.307 941.29 196.307 948.42 Q196.307 955.526 198.112 959.091 Q199.941 962.633 203.552 962.633 Q207.186 962.633 208.992 959.091 Q210.82 955.526 210.82 948.42 Q210.82 941.29 208.992 937.749 Q207.186 934.184 203.552 934.184 M203.552 930.48 Q209.362 930.48 212.418 935.087 Q215.496 939.67 215.496 948.42 Q215.496 957.147 212.418 961.753 Q209.362 966.337 203.552 966.337 Q197.742 966.337 194.663 961.753 Q191.608 957.147 191.608 948.42 Q191.608 939.67 194.663 935.087 Q197.742 930.48 203.552 930.48 Z" fill="#000000" fill-rule="nonzero" fill-opacity="1" /><path clip-path="url(#clip620)" d="M129.154 551.047 Q125.543 551.047 123.714 554.612 Q121.909 558.153 121.909 565.283 Q121.909 572.389 123.714 575.954 Q125.543 579.496 129.154 579.496 Q132.788 579.496 134.594 575.954 Q136.423 572.389 136.423 565.283 Q136.423 558.153 134.594 554.612 Q132.788 551.047 129.154 551.047 M129.154 547.343 Q134.964 547.343 138.02 551.95 Q141.099 556.533 141.099 565.283 Q141.099 574.01 138.02 578.616 Q134.964 583.199 129.154 583.199 Q123.344 583.199 120.265 578.616 Q117.21 574.01 117.21 565.283 Q117.21 556.533 120.265 551.95 Q123.344 547.343 129.154 547.343 Z" fill="#000000" fill-rule="nonzero" fill-opacity="1" /><path clip-path="url(#clip620)" d="M149.316 576.648 L154.2 576.648 L154.2 582.528 L149.316 582.528 L149.316 576.648 Z" fill="#000000" fill-rule="nonzero" fill-opacity="1" /><path clip-path="url(#clip620)" d="M165.196 578.593 L172.835 578.593 L172.835 552.227 L164.524 553.894 L164.524 549.635 L172.788 547.968 L177.464 547.968 L177.464 578.593 L185.103 578.593 L185.103 582.528 L165.196 582.528 L165.196 578.593 Z" fill="#000000" fill-rule="nonzero" fill-opacity="1" /><path clip-path="url(#clip620)" d="M194.594 547.968 L212.95 547.968 L212.95 551.903 L198.876 551.903 L198.876 560.375 Q199.895 560.028 200.913 559.866 Q201.932 559.681 202.95 559.681 Q208.737 559.681 212.117 562.852 Q215.496 566.024 215.496 571.44 Q215.496 577.019 212.024 580.121 Q208.552 583.199 202.233 583.199 Q200.057 583.199 197.788 582.829 Q195.543 582.459 193.135 581.718 L193.135 577.019 Q195.219 578.153 197.441 578.709 Q199.663 579.264 202.14 579.264 Q206.145 579.264 208.482 577.158 Q210.82 575.051 210.82 571.44 Q210.82 567.829 208.482 565.723 Q206.145 563.616 202.14 563.616 Q200.265 563.616 198.39 564.033 Q196.538 564.449 194.594 565.329 L194.594 547.968 Z" fill="#000000" fill-rule="nonzero" fill-opacity="1" /><path clip-path="url(#clip620)" d="M128.159 167.91 Q124.548 167.91 122.719 171.474 Q120.913 175.016 120.913 182.146 Q120.913 189.252 122.719 192.817 Q124.548 196.358 128.159 196.358 Q131.793 196.358 133.599 192.817 Q135.427 189.252 135.427 182.146 Q135.427 175.016 133.599 171.474 Q131.793 167.91 128.159 167.91 M128.159 164.206 Q133.969 164.206 137.025 168.812 Q140.103 173.396 140.103 182.146 Q140.103 190.872 137.025 195.479 Q133.969 200.062 128.159 200.062 Q122.349 200.062 119.27 195.479 Q116.214 190.872 116.214 182.146 Q116.214 173.396 119.27 168.812 Q122.349 164.206 128.159 164.206 Z" fill="#000000" fill-rule="nonzero" fill-opacity="1" /><path clip-path="url(#clip620)" d="M148.321 193.511 L153.205 193.511 L153.205 199.391 L148.321 199.391 L148.321 193.511 Z" fill="#000000" fill-rule="nonzero" fill-opacity="1" /><path clip-path="url(#clip620)" d="M167.418 195.456 L183.737 195.456 L183.737 199.391 L161.793 199.391 L161.793 195.456 Q164.455 192.701 169.038 188.072 Q173.645 183.419 174.825 182.076 Q177.071 179.553 177.95 177.817 Q178.853 176.058 178.853 174.368 Q178.853 171.613 176.909 169.877 Q174.987 168.141 171.885 168.141 Q169.686 168.141 167.233 168.905 Q164.802 169.669 162.024 171.22 L162.024 166.498 Q164.848 165.363 167.302 164.785 Q169.756 164.206 171.793 164.206 Q177.163 164.206 180.358 166.891 Q183.552 169.576 183.552 174.067 Q183.552 176.197 182.742 178.118 Q181.955 180.016 179.848 182.609 Q179.27 183.28 176.168 186.497 Q173.066 189.692 167.418 195.456 Z" fill="#000000" fill-rule="nonzero" fill-opacity="1" /><path clip-path="url(#clip620)" d="M203.552 167.91 Q199.941 167.91 198.112 171.474 Q196.307 175.016 196.307 182.146 Q196.307 189.252 198.112 192.817 Q199.941 196.358 203.552 196.358 Q207.186 196.358 208.992 192.817 Q210.82 189.252 210.82 182.146 Q210.82 175.016 208.992 171.474 Q207.186 167.91 203.552 167.91 M203.552 164.206 Q209.362 164.206 212.418 168.812 Q215.496 173.396 215.496 182.146 Q215.496 190.872 212.418 195.479 Q209.362 200.062 203.552 200.062 Q197.742 200.062 194.663 195.479 Q191.608 190.872 191.608 182.146 Q191.608 173.396 194.663 168.812 Q197.742 164.206 203.552 164.206 Z" fill="#000000" fill-rule="nonzero" fill-opacity="1" /><path clip-path="url(#clip620)" d="M14.1184 1068.84 L14.1184 1028.64 L19.5293 1028.64 L19.5293 1045.51 L61.6384 1045.51 L61.6384 1051.97 L19.5293 1051.97 L19.5293 1068.84 L14.1184 1068.84 Z" fill="#000000" fill-rule="nonzero" fill-opacity="1" /><path clip-path="url(#clip620)" d="M25.9905 1024.69 L25.9905 1018.84 L61.6384 1018.84 L61.6384 1024.69 L25.9905 1024.69 M12.1132 1024.69 L12.1132 1018.84 L19.5293 1018.84 L19.5293 1024.69 L12.1132 1024.69 Z" fill="#000000" fill-rule="nonzero" fill-opacity="1" /><path clip-path="url(#clip620)" d="M32.8336 978.83 Q28.8869 976.633 27.009 973.578 Q25.1311 970.522 25.1311 966.385 Q25.1311 960.815 29.046 957.791 Q32.9291 954.767 40.1224 954.767 L61.6384 954.767 L61.6384 960.656 L40.3133 960.656 Q35.1889 960.656 32.7063 962.47 Q30.2237 964.284 30.2237 968.008 Q30.2237 972.559 33.2474 975.201 Q36.2711 977.843 41.491 977.843 L61.6384 977.843 L61.6384 983.731 L40.3133 983.731 Q35.1571 983.731 32.7063 985.545 Q30.2237 987.36 30.2237 991.147 Q30.2237 995.635 33.2792 998.277 Q36.3029 1000.92 41.491 1000.92 L61.6384 1000.92 L61.6384 1006.81 L25.9905 1006.81 L25.9905 1000.92 L31.5287 1000.92 Q28.2503 998.913 26.6907 996.113 Q25.1311 993.312 25.1311 989.46 Q25.1311 985.577 27.1045 982.872 Q29.0779 980.135 32.8336 978.83 Z" fill="#000000" fill-rule="nonzero" fill-opacity="1" /><path clip-path="url(#clip620)" d="M42.3504 912.594 L45.2149 912.594 L45.2149 939.521 Q51.2623 939.139 54.4452 935.893 Q57.5962 932.615 57.5962 926.79 Q57.5962 923.416 56.7687 920.265 Q55.9411 917.082 54.2861 913.963 L59.8242 913.963 Q61.161 917.114 61.8612 920.424 Q62.5615 923.734 62.5615 927.14 Q62.5615 935.67 57.5962 940.667 Q52.631 945.633 44.1646 945.633 Q35.4117 945.633 30.2873 940.922 Q25.1311 936.179 25.1311 928.159 Q25.1311 920.965 29.7781 916.796 Q34.3932 912.594 42.3504 912.594 M40.6316 918.451 Q35.8255 918.515 32.9609 921.156 Q30.0964 923.766 30.0964 928.095 Q30.0964 932.997 32.8654 935.957 Q35.6345 938.885 40.6634 939.33 L40.6316 918.451 Z" fill="#000000" fill-rule="nonzero" fill-opacity="1" /><path clip-path="url(#clip620)" d="M12.1769 868.194 Q19.4975 872.459 26.6589 874.528 Q33.8203 876.596 41.1727 876.596 Q48.5251 876.596 55.7502 874.528 Q62.9434 872.427 70.2321 868.194 L70.2321 873.286 Q62.7524 878.061 55.5274 880.448 Q48.3023 882.803 41.1727 882.803 Q34.0749 882.803 26.8817 880.448 Q19.6884 878.092 12.1769 873.286 L12.1769 868.194 Z" fill="#000000" fill-rule="nonzero" fill-opacity="1" /><path clip-path="url(#clip620)" d="M27.0408 834.105 L32.579 834.105 Q31.3059 836.588 30.6693 839.262 Q30.0327 841.935 30.0327 844.8 Q30.0327 849.16 31.3695 851.356 Q32.7063 853.521 35.3799 853.521 Q37.4169 853.521 38.5946 851.961 Q39.7404 850.402 40.7908 845.691 L41.2364 843.686 Q42.5732 837.447 45.0239 834.837 Q47.4429 832.196 51.8034 832.196 Q56.7687 832.196 59.6651 836.142 Q62.5615 840.057 62.5615 846.932 Q62.5615 849.797 61.9886 852.916 Q61.4475 856.003 60.3335 859.441 L54.2861 859.441 Q55.973 856.194 56.8323 853.043 Q57.6599 849.892 57.6599 846.805 Q57.6599 842.667 56.2594 840.439 Q54.8271 838.211 52.249 838.211 Q49.8619 838.211 48.5887 839.834 Q47.3156 841.426 46.1379 846.869 L45.6605 848.906 Q44.5147 854.348 42.1594 856.767 Q39.7722 859.186 35.6345 859.186 Q30.6056 859.186 27.8684 855.621 Q25.1311 852.057 25.1311 845.5 Q25.1311 842.253 25.6085 839.389 Q26.086 836.524 27.0408 834.105 Z" fill="#000000" fill-rule="nonzero" fill-opacity="1" /><path clip-path="url(#clip620)" d="M42.3504 792.378 L45.2149 792.378 L45.2149 819.305 Q51.2623 818.923 54.4452 815.677 Q57.5962 812.398 57.5962 806.574 Q57.5962 803.2 56.7687 800.049 Q55.9411 796.866 54.2861 793.747 L59.8242 793.747 Q61.161 796.898 61.8612 800.208 Q62.5615 803.518 62.5615 806.924 Q62.5615 815.454 57.5962 820.451 Q52.631 825.416 44.1646 825.416 Q35.4117 825.416 30.2873 820.706 Q25.1311 815.963 25.1311 807.942 Q25.1311 800.749 29.7781 796.579 Q34.3932 792.378 42.3504 792.378 M40.6316 798.235 Q35.8255 798.298 32.9609 800.94 Q30.0964 803.55 30.0964 807.879 Q30.0964 812.78 32.8654 815.74 Q35.6345 818.668 40.6634 819.114 L40.6316 798.235 Z" fill="#000000" fill-rule="nonzero" fill-opacity="1" /><path clip-path="url(#clip620)" d="M27.3591 757.112 L32.8336 757.112 Q31.465 759.595 30.7966 762.109 Q30.0964 764.592 30.0964 767.138 Q30.0964 772.835 33.7248 775.986 Q37.3214 779.137 43.8463 779.137 Q50.3711 779.137 53.9996 775.986 Q57.5962 772.835 57.5962 767.138 Q57.5962 764.592 56.9278 762.109 Q56.2276 759.595 54.859 757.112 L60.2698 757.112 Q61.4156 759.563 61.9886 762.205 Q62.5615 764.815 62.5615 767.775 Q62.5615 775.827 57.5007 780.57 Q52.44 785.312 43.8463 785.312 Q35.1253 785.312 30.1282 780.538 Q25.1311 775.732 25.1311 767.393 Q25.1311 764.687 25.704 762.109 Q26.2451 759.531 27.3591 757.112 Z" fill="#000000" fill-rule="nonzero" fill-opacity="1" /><path clip-path="url(#clip620)" d="M53.554 746.099 L53.554 739.384 L61.6384 739.384 L61.6384 746.099 L53.554 746.099 Z" fill="#000000" fill-rule="nonzero" fill-opacity="1" /><path clip-path="url(#clip620)" d="M12.1769 727.13 L12.1769 722.037 Q19.6884 717.263 26.8817 714.907 Q34.0749 712.52 41.1727 712.52 Q48.3023 712.52 55.5274 714.907 Q62.7524 717.263 70.2321 722.037 L70.2321 727.13 Q62.9434 722.896 55.7502 720.828 Q48.5251 718.727 41.1727 718.727 Q33.8203 718.727 26.6589 720.828 Q19.4975 722.896 12.1769 727.13 Z" fill="#000000" fill-rule="nonzero" fill-opacity="1" /><polyline clip-path="url(#clip622)" style="stroke:#332288; stroke-linecap:round; stroke-linejoin:round; stroke-width:8; stroke-opacity:1; fill:none" points="323.315,1686.38 389.489,1658.48 477.722,1641.79 588.014,1609.66 720.363,1573.16 874.771,1505.73 1051.24,1459.07 1249.76,1324.68 1470.34,1201.26 1712.99,984.768 1977.68,806.084 2264.44,456.82 2573.26,94.9858 "/>
<polyline clip-path="url(#clip622)" style="stroke:#44aa99; stroke-linecap:round; stroke-linejoin:round; stroke-width:8; stroke-opacity:1; fill:none" points="323.315,1654.57 389.489,1646.92 477.722,1643.1 588.014,1624.25 720.363,1615.11 874.771,1601.3 1051.24,1594.47 1249.76,1555.49 1470.34,1515.57 1712.99,1499.89 1977.68,1468.12 2264.44,1440.61 2573.26,1425.79 "/>
<path clip-path="url(#clip620)" d="M2171.63 1677.89 L2561.26 1677.89 L2561.26 1522.37 L2171.63 1522.37  Z" fill="#ffffff" fill-rule="evenodd" fill-opacity="1"/>
<polyline clip-path="url(#clip620)" style="stroke:#000000; stroke-linecap:round; stroke-linejoin:round; stroke-width:4; stroke-opacity:1; fill:none" points="2171.63,1677.89 2561.26,1677.89 2561.26,1522.37 2171.63,1522.37 2171.63,1677.89 "/>
<polyline clip-path="url(#clip620)" style="stroke:#332288; stroke-linecap:round; stroke-linejoin:round; stroke-width:8; stroke-opacity:1; fill:none" points="2198.13,1574.21 2357.13,1574.21 "/>
<path clip-path="url(#clip620)" d="M2388.3 1560.77 L2388.3 1587.65 L2393.95 1587.65 Q2401.1 1587.65 2404.41 1584.4 Q2407.75 1581.16 2407.75 1574.17 Q2407.75 1567.23 2404.41 1564.01 Q2401.1 1560.77 2393.95 1560.77 L2388.3 1560.77 M2383.63 1556.93 L2393.23 1556.93 Q2403.28 1556.93 2407.98 1561.12 Q2412.68 1565.28 2412.68 1574.17 Q2412.68 1583.11 2407.95 1587.3 Q2403.23 1591.49 2393.23 1591.49 L2383.63 1591.49 L2383.63 1556.93 Z" fill="#000000" fill-rule="nonzero" fill-opacity="1" /><path clip-path="url(#clip620)" d="M2446.01 1559.59 L2446.01 1564.52 Q2443.65 1562.32 2440.96 1561.23 Q2438.3 1560.15 2435.29 1560.15 Q2429.37 1560.15 2426.22 1563.78 Q2423.07 1567.39 2423.07 1574.24 Q2423.07 1581.07 2426.22 1584.71 Q2429.37 1588.32 2435.29 1588.32 Q2438.3 1588.32 2440.96 1587.23 Q2443.65 1586.14 2446.01 1583.94 L2446.01 1588.83 Q2443.56 1590.49 2440.8 1591.33 Q2438.07 1592.16 2435.01 1592.16 Q2427.17 1592.16 2422.65 1587.37 Q2418.14 1582.55 2418.14 1574.24 Q2418.14 1565.91 2422.65 1561.12 Q2427.17 1556.3 2435.01 1556.3 Q2438.12 1556.3 2440.85 1557.14 Q2443.6 1557.95 2446.01 1559.59 Z" fill="#000000" fill-rule="nonzero" fill-opacity="1" /><path clip-path="url(#clip620)" d="M2464.78 1561.53 L2458.44 1578.73 L2471.15 1578.73 L2464.78 1561.53 M2462.14 1556.93 L2467.44 1556.93 L2480.62 1591.49 L2475.75 1591.49 L2472.61 1582.62 L2457.03 1582.62 L2453.88 1591.49 L2448.95 1591.49 L2462.14 1556.93 Z" fill="#000000" fill-rule="nonzero" fill-opacity="1" /><polyline clip-path="url(#clip620)" style="stroke:#44aa99; stroke-linecap:round; stroke-linejoin:round; stroke-width:8; stroke-opacity:1; fill:none" points="2198.13,1626.05 2357.13,1626.05 "/>
<path clip-path="url(#clip620)" d="M2388.3 1612.61 L2388.3 1639.49 L2393.95 1639.49 Q2401.1 1639.49 2404.41 1636.24 Q2407.75 1633 2407.75 1626.01 Q2407.75 1619.07 2404.41 1615.85 Q2401.1 1612.61 2393.95 1612.61 L2388.3 1612.61 M2383.63 1608.77 L2393.23 1608.77 Q2403.28 1608.77 2407.98 1612.96 Q2412.68 1617.12 2412.68 1626.01 Q2412.68 1634.95 2407.95 1639.14 Q2403.23 1643.33 2393.23 1643.33 L2383.63 1643.33 L2383.63 1608.77 Z" fill="#000000" fill-rule="nonzero" fill-opacity="1" /><path clip-path="url(#clip620)" d="M2446.01 1611.43 L2446.01 1616.36 Q2443.65 1614.16 2440.96 1613.07 Q2438.3 1611.99 2435.29 1611.99 Q2429.37 1611.99 2426.22 1615.62 Q2423.07 1619.23 2423.07 1626.08 Q2423.07 1632.91 2426.22 1636.55 Q2429.37 1640.16 2435.29 1640.16 Q2438.3 1640.16 2440.96 1639.07 Q2443.65 1637.98 2446.01 1635.78 L2446.01 1640.67 Q2443.56 1642.33 2440.8 1643.17 Q2438.07 1644 2435.01 1644 Q2427.17 1644 2422.65 1639.21 Q2418.14 1634.39 2418.14 1626.08 Q2418.14 1617.75 2422.65 1612.96 Q2427.17 1608.14 2435.01 1608.14 Q2438.12 1608.14 2440.85 1608.98 Q2443.6 1609.79 2446.01 1611.43 Z" fill="#000000" fill-rule="nonzero" fill-opacity="1" /><path clip-path="url(#clip620)" d="M2457.91 1612.61 L2457.91 1625.6 L2463.79 1625.6 Q2467.05 1625.6 2468.83 1623.91 Q2470.62 1622.22 2470.62 1619.09 Q2470.62 1615.99 2468.83 1614.3 Q2467.05 1612.61 2463.79 1612.61 L2457.91 1612.61 M2453.23 1608.77 L2463.79 1608.77 Q2469.6 1608.77 2472.56 1611.41 Q2475.55 1614.02 2475.55 1619.09 Q2475.55 1624.21 2472.56 1626.82 Q2469.6 1629.44 2463.79 1629.44 L2457.91 1629.44 L2457.91 1643.33 L2453.23 1643.33 L2453.23 1608.77 Z" fill="#000000" fill-rule="nonzero" fill-opacity="1" /><path clip-path="url(#clip620)" d="M2486.49 1612.61 L2486.49 1625.6 L2492.37 1625.6 Q2495.64 1625.6 2497.42 1623.91 Q2499.2 1622.22 2499.2 1619.09 Q2499.2 1615.99 2497.42 1614.3 Q2495.64 1612.61 2492.37 1612.61 L2486.49 1612.61 M2481.82 1608.77 L2492.37 1608.77 Q2498.18 1608.77 2501.15 1611.41 Q2504.13 1614.02 2504.13 1619.09 Q2504.13 1624.21 2501.15 1626.82 Q2498.18 1629.44 2492.37 1629.44 L2486.49 1629.44 L2486.49 1643.33 L2481.82 1643.33 L2481.82 1608.77 Z" fill="#000000" fill-rule="nonzero" fill-opacity="1" /><path clip-path="url(#clip620)" d="M2518.93 1613.37 L2512.58 1630.57 L2525.29 1630.57 L2518.93 1613.37 M2516.29 1608.77 L2521.59 1608.77 L2534.76 1643.33 L2529.9 1643.33 L2526.75 1634.46 L2511.17 1634.46 L2508.02 1643.33 L2503.09 1643.33 L2516.29 1608.77 Z" fill="#000000" fill-rule="nonzero" fill-opacity="1" /></svg>
