<?xml version="1.0" encoding="utf-8"?>
<svg xmlns="http://www.w3.org/2000/svg" xmlns:xlink="http://www.w3.org/1999/xlink" width="672" height="480" viewBox="0 0 2688 1920">
<defs>
  <clipPath id="clip650">
    <rect x="0" y="0" width="2688" height="1920"/>
  </clipPath>
</defs>
<path clip-path="url(#clip650)" d="M0 1920 L2688 1920 L2688 -4.26326e-14 L0 -4.26326e-14  Z" fill="#ffffff" fill-rule="evenodd" fill-opacity="1"/>
<defs>
  <clipPath id="clip651">
    <rect x="537" y="0" width="1883" height="1883"/>
  </clipPath>
</defs>
<path clip-path="url(#clip650)" d="M255.469 1734.12 L2640.76 1734.12 L2640.76 47.2441 L255.469 47.2441  Z" fill="#ffffff" fill-rule="evenodd" fill-opacity="1"/>
<defs>
  <clipPath id="clip652">
    <rect x="255" y="47" width="2386" height="1688"/>
  </clipPath>
</defs>
<polyline clip-path="url(#clip652)" style="stroke:#000000; stroke-linecap:round; stroke-linejoin:round; stroke-width:2; stroke-opacity:0.1; fill:none" points="312.511,1734.12 312.511,47.2441 "/>
<polyline clip-path="url(#clip652)" style="stroke:#000000; stroke-linecap:round; stroke-linejoin:round; stroke-width:2; stroke-opacity:0.1; fill:none" points="1010.27,1734.12 1010.27,47.2441 "/>
<polyline clip-path="url(#clip652)" style="stroke:#000000; stroke-linecap:round; stroke-linejoin:round; stroke-width:2; stroke-opacity:0.1; fill:none" points="1708.03,1734.12 1708.03,47.2441 "/>
<polyline clip-path="url(#clip652)" style="stroke:#000000; stroke-linecap:round; stroke-linejoin:round; stroke-width:2; stroke-opacity:0.1; fill:none" points="2405.79,1734.12 2405.79,47.2441 "/>
<polyline clip-path="url(#clip652)" style="stroke:#000000; stroke-linecap:round; stroke-linejoin:round; stroke-width:2; stroke-opacity:0.1; fill:none" points="255.469,1572.7 2640.76,1572.7 "/>
<polyline clip-path="url(#clip652)" style="stroke:#000000; stroke-linecap:round; stroke-linejoin:round; stroke-width:2; stroke-opacity:0.1; fill:none" points="255.469,1288.53 2640.76,1288.53 "/>
<polyline clip-path="url(#clip652)" style="stroke:#000000; stroke-linecap:round; stroke-linejoin:round; stroke-width:2; stroke-opacity:0.1; fill:none" points="255.469,1004.35 2640.76,1004.35 "/>
<polyline clip-path="url(#clip652)" style="stroke:#000000; stroke-linecap:round; stroke-linejoin:round; stroke-width:2; stroke-opacity:0.1; fill:none" points="255.469,720.175 2640.76,720.175 "/>
<polyline clip-path="url(#clip652)" style="stroke:#000000; stroke-linecap:round; stroke-linejoin:round; stroke-width:2; stroke-opacity:0.1; fill:none" points="255.469,435.998 2640.76,435.998 "/>
<polyline clip-path="url(#clip652)" style="stroke:#000000; stroke-linecap:round; stroke-linejoin:round; stroke-width:2; stroke-opacity:0.1; fill:none" points="255.469,151.821 2640.76,151.821 "/>
<polyline clip-path="url(#clip650)" style="stroke:#000000; stroke-linecap:round; stroke-linejoin:round; stroke-width:4; stroke-opacity:1; fill:none" points="255.469,1734.12 2640.76,1734.12 "/>
<polyline clip-path="url(#clip650)" style="stroke:#000000; stroke-linecap:round; stroke-linejoin:round; stroke-width:4; stroke-opacity:1; fill:none" points="312.511,1734.12 312.511,1715.22 "/>
<polyline clip-path="url(#clip650)" style="stroke:#000000; stroke-linecap:round; stroke-linejoin:round; stroke-width:4; stroke-opacity:1; fill:none" points="1010.27,1734.12 1010.27,1715.22 "/>
<polyline clip-path="url(#clip650)" style="stroke:#000000; stroke-linecap:round; stroke-linejoin:round; stroke-width:4; stroke-opacity:1; fill:none" points="1708.03,1734.12 1708.03,1715.22 "/>
<polyline clip-path="url(#clip650)" style="stroke:#000000; stroke-linecap:round; stroke-linejoin:round; stroke-width:4; stroke-opacity:1; fill:none" points="2405.79,1734.12 2405.79,1715.22 "/>
<path clip-path="url(#clip650)" d="M312.511 1767.34 Q308.9 1767.34 307.071 1770.9 Q305.266 1774.45 305.266 1781.58 Q305.266 1788.68 307.071 1792.25 Q308.9 1795.79 312.511 1795.79 Q316.145 1795.79 317.951 1792.25 Q319.779 1788.68 319.779 1781.58 Q319.779 1774.45 317.951 1770.9 Q316.145 1767.34 312.511 1767.34 M312.511 1763.64 Q318.321 1763.64 321.377 1768.24 Q324.455 1772.83 324.455 1781.58 Q324.455 1790.3 321.377 1794.91 Q318.321 1799.49 312.511 1799.49 Q306.701 1799.49 303.622 1794.91 Q300.566 1790.3 300.566 1781.58 Q300.566 1772.83 303.622 1768.24 Q306.701 1763.64 312.511 1763.64 Z" fill="#000000" fill-rule="nonzero" fill-opacity="1" /><path clip-path="url(#clip650)" d="M954.795 1794.89 L962.434 1794.89 L962.434 1768.52 L954.124 1770.19 L954.124 1765.93 L962.387 1764.26 L967.063 1764.26 L967.063 1794.89 L974.702 1794.89 L974.702 1798.82 L954.795 1798.82 L954.795 1794.89 Z" fill="#000000" fill-rule="nonzero" fill-opacity="1" /><path clip-path="url(#clip650)" d="M994.147 1767.34 Q990.535 1767.34 988.707 1770.9 Q986.901 1774.45 986.901 1781.58 Q986.901 1788.68 988.707 1792.25 Q990.535 1795.79 994.147 1795.79 Q997.781 1795.79 999.586 1792.25 Q1001.42 1788.68 1001.42 1781.58 Q1001.42 1774.45 999.586 1770.9 Q997.781 1767.34 994.147 1767.34 M994.147 1763.64 Q999.957 1763.64 1003.01 1768.24 Q1006.09 1772.83 1006.09 1781.58 Q1006.09 1790.3 1003.01 1794.91 Q999.957 1799.49 994.147 1799.49 Q988.336 1799.49 985.258 1794.91 Q982.202 1790.3 982.202 1781.58 Q982.202 1772.83 985.258 1768.24 Q988.336 1763.64 994.147 1763.64 Z" fill="#000000" fill-rule="nonzero" fill-opacity="1" /><path clip-path="url(#clip650)" d="M1024.31 1767.34 Q1020.7 1767.34 1018.87 1770.9 Q1017.06 1774.45 1017.06 1781.58 Q1017.06 1788.68 1018.87 1792.25 Q1020.7 1795.79 1024.31 1795.79 Q1027.94 1795.79 1029.75 1792.25 Q1031.58 1788.68 1031.58 1781.58 Q1031.58 1774.45 1029.75 1770.9 Q1027.94 1767.34 1024.31 1767.34 M1024.31 1763.64 Q1030.12 1763.64 1033.17 1768.24 Q1036.25 1772.83 1036.25 1781.58 Q1036.25 1790.3 1033.17 1794.91 Q1030.12 1799.49 1024.31 1799.49 Q1018.5 1799.49 1015.42 1794.91 Q1012.36 1790.3 1012.36 1781.58 Q1012.36 1772.83 1015.42 1768.24 Q1018.5 1763.64 1024.31 1763.64 Z" fill="#000000" fill-rule="nonzero" fill-opacity="1" /><path clip-path="url(#clip650)" d="M1054.47 1767.34 Q1050.86 1767.34 1049.03 1770.9 Q1047.22 1774.45 1047.22 1781.58 Q1047.22 1788.68 1049.03 1792.25 Q1050.86 1795.79 1054.47 1795.79 Q1058.1 1795.79 1059.91 1792.25 Q1061.74 1788.68 1061.74 1781.58 Q1061.74 1774.45 1059.91 1770.9 Q1058.1 1767.34 1054.47 1767.34 M1054.47 1763.64 Q1060.28 1763.64 1063.34 1768.24 Q1066.41 1772.83 1066.41 1781.58 Q1066.41 1790.3 1063.34 1794.91 Q1060.28 1799.49 1054.47 1799.49 Q1048.66 1799.49 1045.58 1794.91 Q1042.53 1790.3 1042.53 1781.58 Q1042.53 1772.83 1045.58 1768.24 Q1048.66 1763.64 1054.47 1763.64 Z" fill="#000000" fill-rule="nonzero" fill-opacity="1" /><path clip-path="url(#clip650)" d="M1656.64 1794.89 L1672.96 1794.89 L1672.96 1798.82 L1651.01 1798.82 L1651.01 1794.89 Q1653.68 1792.13 1658.26 1787.5 Q1662.87 1782.85 1664.05 1781.51 Q1666.29 1778.98 1667.17 1777.25 Q1668.07 1775.49 1668.07 1773.8 Q1668.07 1771.04 1666.13 1769.31 Q1664.21 1767.57 1661.11 1767.57 Q1658.91 1767.57 1656.45 1768.34 Q1654.02 1769.1 1651.25 1770.65 L1651.25 1765.93 Q1654.07 1764.79 1656.52 1764.21 Q1658.98 1763.64 1661.01 1763.64 Q1666.38 1763.64 1669.58 1766.32 Q1672.77 1769.01 1672.77 1773.5 Q1672.77 1775.63 1671.96 1777.55 Q1671.18 1779.45 1669.07 1782.04 Q1668.49 1782.71 1665.39 1785.93 Q1662.29 1789.12 1656.64 1794.89 Z" fill="#000000" fill-rule="nonzero" fill-opacity="1" /><path clip-path="url(#clip650)" d="M1692.77 1767.34 Q1689.16 1767.34 1687.33 1770.9 Q1685.53 1774.45 1685.53 1781.58 Q1685.53 1788.68 1687.33 1792.25 Q1689.16 1795.79 1692.77 1795.79 Q1696.41 1795.79 1698.21 1792.25 Q1700.04 1788.68 1700.04 1781.58 Q1700.04 1774.45 1698.21 1770.9 Q1696.41 1767.34 1692.77 1767.34 M1692.77 1763.64 Q1698.58 1763.64 1701.64 1768.24 Q1704.72 1772.83 1704.72 1781.58 Q1704.72 1790.3 1701.64 1794.91 Q1698.58 1799.49 1692.77 1799.49 Q1686.96 1799.49 1683.88 1794.91 Q1680.83 1790.3 1680.83 1781.58 Q1680.83 1772.83 1683.88 1768.24 Q1686.96 1763.64 1692.77 1763.64 Z" fill="#000000" fill-rule="nonzero" fill-opacity="1" /><path clip-path="url(#clip650)" d="M1722.93 1767.34 Q1719.32 1767.34 1717.5 1770.9 Q1715.69 1774.45 1715.69 1781.58 Q1715.69 1788.68 1717.5 1792.25 Q1719.32 1795.79 1722.93 1795.79 Q1726.57 1795.79 1728.37 1792.25 Q1730.2 1788.68 1730.2 1781.58 Q1730.2 1774.45 1728.37 1770.9 Q1726.57 1767.34 1722.93 1767.34 M1722.93 1763.64 Q1728.74 1763.64 1731.8 1768.24 Q1734.88 1772.83 1734.88 1781.58 Q1734.88 1790.3 1731.8 1794.91 Q1728.74 1799.49 1722.93 1799.49 Q1717.12 1799.49 1714.05 1794.91 Q1710.99 1790.3 1710.99 1781.58 Q1710.99 1772.83 1714.05 1768.24 Q1717.12 1763.64 1722.93 1763.64 Z" fill="#000000" fill-rule="nonzero" fill-opacity="1" /><path clip-path="url(#clip650)" d="M1753.1 1767.34 Q1749.49 1767.34 1747.66 1770.9 Q1745.85 1774.45 1745.85 1781.58 Q1745.85 1788.68 1747.66 1792.25 Q1749.49 1795.79 1753.1 1795.79 Q1756.73 1795.79 1758.54 1792.25 Q1760.37 1788.68 1760.37 1781.58 Q1760.37 1774.45 1758.54 1770.9 Q1756.73 1767.34 1753.1 1767.34 M1753.1 1763.64 Q1758.91 1763.64 1761.96 1768.24 Q1765.04 1772.83 1765.04 1781.58 Q1765.04 1790.3 1761.96 1794.91 Q1758.91 1799.49 1753.1 1799.49 Q1747.29 1799.49 1744.21 1794.91 Q1741.15 1790.3 1741.15 1781.58 Q1741.15 1772.83 1744.21 1768.24 Q1747.29 1763.64 1753.1 1763.64 Z" fill="#000000" fill-rule="nonzero" fill-opacity="1" /><path clip-path="url(#clip650)" d="M2364.47 1780.19 Q2367.82 1780.9 2369.7 1783.17 Q2371.6 1785.44 2371.6 1788.77 Q2371.6 1793.89 2368.08 1796.69 Q2364.56 1799.49 2358.08 1799.49 Q2355.9 1799.49 2353.59 1799.05 Q2351.3 1798.64 2348.84 1797.78 L2348.84 1793.27 Q2350.79 1794.4 2353.1 1794.98 Q2355.42 1795.56 2357.94 1795.56 Q2362.34 1795.56 2364.63 1793.82 Q2366.94 1792.08 2366.94 1788.77 Q2366.94 1785.72 2364.79 1784.01 Q2362.66 1782.27 2358.84 1782.27 L2354.81 1782.27 L2354.81 1778.43 L2359.03 1778.43 Q2362.48 1778.43 2364.3 1777.06 Q2366.13 1775.67 2366.13 1773.08 Q2366.13 1770.42 2364.24 1769.01 Q2362.36 1767.57 2358.84 1767.57 Q2356.92 1767.57 2354.72 1767.99 Q2352.52 1768.4 2349.88 1769.28 L2349.88 1765.12 Q2352.55 1764.38 2354.86 1764.01 Q2357.2 1763.64 2359.26 1763.64 Q2364.58 1763.64 2367.68 1766.07 Q2370.79 1768.47 2370.79 1772.59 Q2370.79 1775.46 2369.14 1777.46 Q2367.5 1779.42 2364.47 1780.19 Z" fill="#000000" fill-rule="nonzero" fill-opacity="1" /><path clip-path="url(#clip650)" d="M2390.46 1767.34 Q2386.85 1767.34 2385.02 1770.9 Q2383.22 1774.45 2383.22 1781.58 Q2383.22 1788.68 2385.02 1792.25 Q2386.85 1795.79 2390.46 1795.79 Q2394.1 1795.79 2395.9 1792.25 Q2397.73 1788.68 2397.73 1781.58 Q2397.73 1774.45 2395.9 1770.9 Q2394.1 1767.34 2390.46 1767.34 M2390.46 1763.64 Q2396.27 1763.64 2399.33 1768.24 Q2402.41 1772.83 2402.41 1781.58 Q2402.41 1790.3 2399.33 1794.91 Q2396.27 1799.49 2390.46 1799.49 Q2384.65 1799.49 2381.57 1794.91 Q2378.52 1790.3 2378.52 1781.58 Q2378.52 1772.83 2381.57 1768.24 Q2384.65 1763.64 2390.46 1763.64 Z" fill="#000000" fill-rule="nonzero" fill-opacity="1" /><path clip-path="url(#clip650)" d="M2420.62 1767.34 Q2417.01 1767.34 2415.18 1770.9 Q2413.38 1774.45 2413.38 1781.58 Q2413.38 1788.68 2415.18 1792.25 Q2417.01 1795.79 2420.62 1795.79 Q2424.26 1795.79 2426.06 1792.25 Q2427.89 1788.68 2427.89 1781.58 Q2427.89 1774.45 2426.06 1770.9 Q2424.26 1767.34 2420.62 1767.34 M2420.62 1763.64 Q2426.43 1763.64 2429.49 1768.24 Q2432.57 1772.83 2432.57 1781.58 Q2432.57 1790.3 2429.49 1794.91 Q2426.43 1799.49 2420.62 1799.49 Q2414.81 1799.49 2411.73 1794.91 Q2408.68 1790.3 2408.68 1781.58 Q2408.68 1772.83 2411.73 1768.24 Q2414.81 1763.64 2420.62 1763.64 Z" fill="#000000" fill-rule="nonzero" fill-opacity="1" /><path clip-path="url(#clip650)" d="M2450.79 1767.34 Q2447.17 1767.34 2445.35 1770.9 Q2443.54 1774.45 2443.54 1781.58 Q2443.54 1788.68 2445.35 1792.25 Q2447.17 1795.79 2450.79 1795.79 Q2454.42 1795.79 2456.23 1792.25 Q2458.05 1788.68 2458.05 1781.58 Q2458.05 1774.45 2456.23 1770.9 Q2454.42 1767.34 2450.79 1767.34 M2450.79 1763.64 Q2456.6 1763.64 2459.65 1768.24 Q2462.73 1772.83 2462.73 1781.58 Q2462.73 1790.3 2459.65 1794.91 Q2456.6 1799.49 2450.79 1799.49 Q2444.98 1799.49 2441.9 1794.91 Q2438.84 1790.3 2438.84 1781.58 Q2438.84 1772.83 2441.9 1768.24 Q2444.98 1763.64 2450.79 1763.64 Z" fill="#000000" fill-rule="nonzero" fill-opacity="1" /><path clip-path="url(#clip650)" d="M1160.03 1854.5 Q1162.23 1850.55 1165.28 1848.67 Q1168.34 1846.79 1172.48 1846.79 Q1178.05 1846.79 1181.07 1850.71 Q1184.09 1854.59 1184.09 1861.78 L1184.09 1883.3 L1178.21 1883.3 L1178.21 1861.98 Q1178.21 1856.85 1176.39 1854.37 Q1174.58 1851.89 1170.85 1851.89 Q1166.3 1851.89 1163.66 1854.91 Q1161.02 1857.93 1161.02 1863.15 L1161.02 1883.3 L1155.13 1883.3 L1155.13 1861.98 Q1155.13 1856.82 1153.32 1854.37 Q1151.5 1851.89 1147.71 1851.89 Q1143.23 1851.89 1140.59 1854.94 Q1137.94 1857.97 1137.94 1863.15 L1137.94 1883.3 L1132.06 1883.3 L1132.06 1847.65 L1137.94 1847.65 L1137.94 1853.19 Q1139.95 1849.91 1142.75 1848.35 Q1145.55 1846.79 1149.4 1846.79 Q1153.28 1846.79 1155.99 1848.77 Q1158.73 1850.74 1160.03 1854.5 Z" fill="#000000" fill-rule="nonzero" fill-opacity="1" /><path clip-path="url(#clip650)" d="M1211.98 1865.38 Q1204.88 1865.38 1202.14 1867 Q1199.4 1868.63 1199.4 1872.54 Q1199.4 1875.66 1201.44 1877.51 Q1203.51 1879.32 1207.04 1879.32 Q1211.91 1879.32 1214.84 1875.88 Q1217.8 1872.42 1217.8 1866.69 L1217.8 1865.38 L1211.98 1865.38 M1223.66 1862.96 L1223.66 1883.3 L1217.8 1883.3 L1217.8 1877.89 Q1215.8 1881.14 1212.8 1882.7 Q1209.81 1884.22 1205.48 1884.22 Q1200.01 1884.22 1196.76 1881.17 Q1193.55 1878.08 1193.55 1872.92 Q1193.55 1866.91 1197.56 1863.85 Q1201.6 1860.8 1209.59 1860.8 L1217.8 1860.8 L1217.8 1860.23 Q1217.8 1856.18 1215.13 1853.99 Q1212.49 1851.76 1207.68 1851.76 Q1204.62 1851.76 1201.73 1852.49 Q1198.83 1853.22 1196.16 1854.69 L1196.16 1849.28 Q1199.37 1848.03 1202.4 1847.43 Q1205.42 1846.79 1208.28 1846.79 Q1216.02 1846.79 1219.84 1850.8 Q1223.66 1854.81 1223.66 1862.96 Z" fill="#000000" fill-rule="nonzero" fill-opacity="1" /><path clip-path="url(#clip650)" d="M1265.35 1861.78 L1265.35 1883.3 L1259.5 1883.3 L1259.5 1861.98 Q1259.5 1856.92 1257.52 1854.4 Q1255.55 1851.89 1251.6 1851.89 Q1246.86 1851.89 1244.12 1854.91 Q1241.39 1857.93 1241.39 1863.15 L1241.39 1883.3 L1235.5 1883.3 L1235.5 1847.65 L1241.39 1847.65 L1241.39 1853.19 Q1243.49 1849.98 1246.32 1848.39 Q1249.18 1846.79 1252.91 1846.79 Q1259.05 1846.79 1262.2 1850.61 Q1265.35 1854.4 1265.35 1861.78 Z" fill="#000000" fill-rule="nonzero" fill-opacity="1" /><path clip-path="url(#clip650)" d="M1277.03 1847.65 L1282.89 1847.65 L1282.89 1883.3 L1277.03 1883.3 L1277.03 1847.65 M1277.03 1833.78 L1282.89 1833.78 L1282.89 1841.19 L1277.03 1841.19 L1277.03 1833.78 Z" fill="#000000" fill-rule="nonzero" fill-opacity="1" /><path clip-path="url(#clip650)" d="M1313.19 1833.78 L1313.19 1838.65 L1307.59 1838.65 Q1304.44 1838.65 1303.2 1839.92 Q1301.99 1841.19 1301.99 1844.5 L1301.99 1847.65 L1311.63 1847.65 L1311.63 1852.2 L1301.99 1852.2 L1301.99 1883.3 L1296.1 1883.3 L1296.1 1852.2 L1290.5 1852.2 L1290.5 1847.65 L1296.1 1847.65 L1296.1 1845.17 Q1296.1 1839.22 1298.87 1836.51 Q1301.64 1833.78 1307.65 1833.78 L1313.19 1833.78 Z" fill="#000000" fill-rule="nonzero" fill-opacity="1" /><path clip-path="url(#clip650)" d="M1331.91 1851.76 Q1327.2 1851.76 1324.46 1855.45 Q1321.72 1859.11 1321.72 1865.51 Q1321.72 1871.91 1324.43 1875.6 Q1327.16 1879.26 1331.91 1879.26 Q1336.59 1879.26 1339.32 1875.57 Q1342.06 1871.87 1342.06 1865.51 Q1342.06 1859.17 1339.32 1855.48 Q1336.59 1851.76 1331.91 1851.76 M1331.91 1846.79 Q1339.55 1846.79 1343.91 1851.76 Q1348.27 1856.72 1348.27 1865.51 Q1348.27 1874.26 1343.91 1879.26 Q1339.55 1884.22 1331.91 1884.22 Q1324.24 1884.22 1319.88 1879.26 Q1315.55 1874.26 1315.55 1865.51 Q1315.55 1856.72 1319.88 1851.76 Q1324.24 1846.79 1331.91 1846.79 Z" fill="#000000" fill-rule="nonzero" fill-opacity="1" /><path clip-path="url(#clip650)" d="M1357.97 1833.78 L1363.83 1833.78 L1363.83 1883.3 L1357.97 1883.3 L1357.97 1833.78 Z" fill="#000000" fill-rule="nonzero" fill-opacity="1" /><path clip-path="url(#clip650)" d="M1399.54 1853.06 L1399.54 1833.78 L1405.4 1833.78 L1405.4 1883.3 L1399.54 1883.3 L1399.54 1877.95 Q1397.7 1881.14 1394.86 1882.7 Q1392.06 1884.22 1388.12 1884.22 Q1381.65 1884.22 1377.58 1879.07 Q1373.54 1873.91 1373.54 1865.51 Q1373.54 1857.11 1377.58 1851.95 Q1381.65 1846.79 1388.12 1846.79 Q1392.06 1846.79 1394.86 1848.35 Q1397.7 1849.88 1399.54 1853.06 M1379.59 1865.51 Q1379.59 1871.97 1382.23 1875.66 Q1384.9 1879.32 1389.55 1879.32 Q1394.19 1879.32 1396.87 1875.66 Q1399.54 1871.97 1399.54 1865.51 Q1399.54 1859.05 1396.87 1855.39 Q1394.19 1851.7 1389.55 1851.7 Q1384.9 1851.7 1382.23 1855.39 Q1379.59 1859.05 1379.59 1865.51 Z" fill="#000000" fill-rule="nonzero" fill-opacity="1" /><path clip-path="url(#clip650)" d="M1461.64 1853.06 L1461.64 1833.78 L1467.5 1833.78 L1467.5 1883.3 L1461.64 1883.3 L1461.64 1877.95 Q1459.79 1881.14 1456.96 1882.7 Q1454.16 1884.22 1450.21 1884.22 Q1443.75 1884.22 1439.68 1879.07 Q1435.64 1873.91 1435.64 1865.51 Q1435.64 1857.11 1439.68 1851.95 Q1443.75 1846.79 1450.21 1846.79 Q1454.16 1846.79 1456.96 1848.35 Q1459.79 1849.88 1461.64 1853.06 M1441.68 1865.51 Q1441.68 1871.97 1444.32 1875.66 Q1447 1879.32 1451.65 1879.32 Q1456.29 1879.32 1458.97 1875.66 Q1461.64 1871.97 1461.64 1865.51 Q1461.64 1859.05 1458.97 1855.39 Q1456.29 1851.7 1451.65 1851.7 Q1447 1851.7 1444.32 1855.39 Q1441.68 1859.05 1441.68 1865.51 Z" fill="#000000" fill-rule="nonzero" fill-opacity="1" /><path clip-path="url(#clip650)" d="M1479.56 1847.65 L1485.42 1847.65 L1485.42 1883.3 L1479.56 1883.3 L1479.56 1847.65 M1479.56 1833.78 L1485.42 1833.78 L1485.42 1841.19 L1479.56 1841.19 L1479.56 1833.78 Z" fill="#000000" fill-rule="nonzero" fill-opacity="1" /><path clip-path="url(#clip650)" d="M1525.42 1854.5 Q1527.62 1850.55 1530.68 1848.67 Q1533.73 1846.79 1537.87 1846.79 Q1543.44 1846.79 1546.46 1850.71 Q1549.49 1854.59 1549.49 1861.78 L1549.49 1883.3 L1543.6 1883.3 L1543.6 1861.98 Q1543.6 1856.85 1541.78 1854.37 Q1539.97 1851.89 1536.25 1851.89 Q1531.69 1851.89 1529.05 1854.91 Q1526.41 1857.93 1526.41 1863.15 L1526.41 1883.3 L1520.52 1883.3 L1520.52 1861.98 Q1520.52 1856.82 1518.71 1854.37 Q1516.89 1851.89 1513.11 1851.89 Q1508.62 1851.89 1505.98 1854.94 Q1503.34 1857.97 1503.34 1863.15 L1503.34 1883.3 L1497.45 1883.3 L1497.45 1847.65 L1503.34 1847.65 L1503.34 1853.19 Q1505.34 1849.91 1508.14 1848.35 Q1510.94 1846.79 1514.79 1846.79 Q1518.68 1846.79 1521.38 1848.77 Q1524.12 1850.74 1525.42 1854.5 Z" fill="#000000" fill-rule="nonzero" fill-opacity="1" /><path clip-path="url(#clip650)" d="M1591.66 1864.01 L1591.66 1866.88 L1564.73 1866.88 Q1565.11 1872.92 1568.36 1876.11 Q1571.64 1879.26 1577.46 1879.26 Q1580.84 1879.26 1583.99 1878.43 Q1587.17 1877.6 1590.29 1875.95 L1590.29 1881.49 Q1587.14 1882.82 1583.83 1883.52 Q1580.52 1884.22 1577.11 1884.22 Q1568.58 1884.22 1563.59 1879.26 Q1558.62 1874.29 1558.62 1865.83 Q1558.62 1857.07 1563.33 1851.95 Q1568.07 1846.79 1576.1 1846.79 Q1583.29 1846.79 1587.46 1851.44 Q1591.66 1856.06 1591.66 1864.01 M1585.8 1862.29 Q1585.74 1857.49 1583.1 1854.62 Q1580.49 1851.76 1576.16 1851.76 Q1571.26 1851.76 1568.3 1854.53 Q1565.37 1857.3 1564.92 1862.33 L1585.8 1862.29 Z" fill="#000000" fill-rule="nonzero" fill-opacity="1" /><path clip-path="url(#clip650)" d="M1630.9 1861.78 L1630.9 1883.3 L1625.05 1883.3 L1625.05 1861.98 Q1625.05 1856.92 1623.07 1854.4 Q1621.1 1851.89 1617.15 1851.89 Q1612.41 1851.89 1609.67 1854.91 Q1606.94 1857.93 1606.94 1863.15 L1606.94 1883.3 L1601.05 1883.3 L1601.05 1847.65 L1606.94 1847.65 L1606.94 1853.19 Q1609.04 1849.98 1611.87 1848.39 Q1614.73 1846.79 1618.46 1846.79 Q1624.6 1846.79 1627.75 1850.61 Q1630.9 1854.4 1630.9 1861.78 Z" fill="#000000" fill-rule="nonzero" fill-opacity="1" /><path clip-path="url(#clip650)" d="M1665.31 1848.7 L1665.31 1854.24 Q1662.83 1852.97 1660.15 1852.33 Q1657.48 1851.7 1654.62 1851.7 Q1650.26 1851.7 1648.06 1853.03 Q1645.9 1854.37 1645.9 1857.04 Q1645.9 1859.08 1647.45 1860.26 Q1649.01 1861.4 1653.72 1862.45 L1655.73 1862.9 Q1661.97 1864.24 1664.58 1866.69 Q1667.22 1869.11 1667.22 1873.47 Q1667.22 1878.43 1663.27 1881.33 Q1659.36 1884.22 1652.48 1884.22 Q1649.62 1884.22 1646.5 1883.65 Q1643.41 1883.11 1639.97 1882 L1639.97 1875.95 Q1643.22 1877.64 1646.37 1878.49 Q1649.52 1879.32 1652.61 1879.32 Q1656.75 1879.32 1658.98 1877.92 Q1661.2 1876.49 1661.2 1873.91 Q1661.2 1871.52 1659.58 1870.25 Q1657.99 1868.98 1652.55 1867.8 L1650.51 1867.32 Q1645.07 1866.18 1642.65 1863.82 Q1640.23 1861.43 1640.23 1857.3 Q1640.23 1852.27 1643.79 1849.53 Q1647.36 1846.79 1653.92 1846.79 Q1657.16 1846.79 1660.03 1847.27 Q1662.89 1847.75 1665.31 1848.7 Z" fill="#000000" fill-rule="nonzero" fill-opacity="1" /><path clip-path="url(#clip650)" d="M1676.55 1847.65 L1682.4 1847.65 L1682.4 1883.3 L1676.55 1883.3 L1676.55 1847.65 M1676.55 1833.78 L1682.4 1833.78 L1682.4 1841.19 L1676.55 1841.19 L1676.55 1833.78 Z" fill="#000000" fill-rule="nonzero" fill-opacity="1" /><path clip-path="url(#clip650)" d="M1708.47 1851.76 Q1703.76 1851.76 1701.02 1855.45 Q1698.28 1859.11 1698.28 1865.51 Q1698.28 1871.91 1700.99 1875.6 Q1703.73 1879.26 1708.47 1879.26 Q1713.15 1879.26 1715.89 1875.57 Q1718.62 1871.87 1718.62 1865.51 Q1718.62 1859.17 1715.89 1855.48 Q1713.15 1851.76 1708.47 1851.76 M1708.47 1846.79 Q1716.11 1846.79 1720.47 1851.76 Q1724.83 1856.72 1724.83 1865.51 Q1724.83 1874.26 1720.47 1879.26 Q1716.11 1884.22 1708.47 1884.22 Q1700.8 1884.22 1696.44 1879.26 Q1692.11 1874.26 1692.11 1865.51 Q1692.11 1856.72 1696.44 1851.76 Q1700.8 1846.79 1708.47 1846.79 Z" fill="#000000" fill-rule="nonzero" fill-opacity="1" /><path clip-path="url(#clip650)" d="M1764.17 1861.78 L1764.17 1883.3 L1758.31 1883.3 L1758.31 1861.98 Q1758.31 1856.92 1756.34 1854.4 Q1754.37 1851.89 1750.42 1851.89 Q1745.68 1851.89 1742.94 1854.91 Q1740.2 1857.93 1740.2 1863.15 L1740.2 1883.3 L1734.31 1883.3 L1734.31 1847.65 L1740.2 1847.65 L1740.2 1853.19 Q1742.3 1849.98 1745.14 1848.39 Q1748 1846.79 1751.72 1846.79 Q1757.87 1846.79 1761.02 1850.61 Q1764.17 1854.4 1764.17 1861.78 Z" fill="#000000" fill-rule="nonzero" fill-opacity="1" /><polyline clip-path="url(#clip650)" style="stroke:#000000; stroke-linecap:round; stroke-linejoin:round; stroke-width:4; stroke-opacity:1; fill:none" points="255.469,1734.12 255.469,47.2441 "/>
<polyline clip-path="url(#clip650)" style="stroke:#000000; stroke-linecap:round; stroke-linejoin:round; stroke-width:4; stroke-opacity:1; fill:none" points="255.469,1572.7 274.367,1572.7 "/>
<polyline clip-path="url(#clip650)" style="stroke:#000000; stroke-linecap:round; stroke-linejoin:round; stroke-width:4; stroke-opacity:1; fill:none" points="255.469,1288.53 274.367,1288.53 "/>
<polyline clip-path="url(#clip650)" style="stroke:#000000; stroke-linecap:round; stroke-linejoin:round; stroke-width:4; stroke-opacity:1; fill:none" points="255.469,1004.35 274.367,1004.35 "/>
<polyline clip-path="url(#clip650)" style="stroke:#000000; stroke-linecap:round; stroke-linejoin:round; stroke-width:4; stroke-opacity:1; fill:none" points="255.469,720.175 274.367,720.175 "/>
<polyline clip-path="url(#clip650)" style="stroke:#000000; stroke-linecap:round; stroke-linejoin:round; stroke-width:4; stroke-opacity:1; fill:none" points="255.469,435.998 274.367,435.998 "/>
<polyline clip-path="url(#clip650)" style="stroke:#000000; stroke-linecap:round; stroke-linejoin:round; stroke-width:4; stroke-opacity:1; fill:none" points="255.469,151.821 274.367,151.821 "/>
<path clip-path="url(#clip650)" d="M121.839 1586.05 L138.159 1586.05 L138.159 1589.98 L116.214 1589.98 L116.214 1586.05 Q118.876 1583.29 123.46 1578.67 Q128.066 1574.01 129.247 1572.67 Q131.492 1570.15 132.372 1568.41 Q133.275 1566.65 133.275 1564.96 Q133.275 1562.21 131.33 1560.47 Q129.409 1558.73 126.307 1558.73 Q124.108 1558.73 121.654 1559.5 Q119.224 1560.26 116.446 1561.81 L116.446 1557.09 Q119.27 1555.96 121.724 1555.38 Q124.177 1554.8 126.214 1554.8 Q131.585 1554.8 134.779 1557.48 Q137.974 1560.17 137.974 1564.66 Q137.974 1566.79 137.163 1568.71 Q136.376 1570.61 134.27 1573.2 Q133.691 1573.87 130.589 1577.09 Q127.488 1580.29 121.839 1586.05 Z" fill="#000000" fill-rule="nonzero" fill-opacity="1" /><path clip-path="url(#clip650)" d="M148.02 1555.42 L166.376 1555.42 L166.376 1559.36 L152.302 1559.36 L152.302 1567.83 Q153.321 1567.48 154.339 1567.32 Q155.358 1567.14 156.376 1567.14 Q162.163 1567.14 165.543 1570.31 Q168.922 1573.48 168.922 1578.9 Q168.922 1584.48 165.45 1587.58 Q161.978 1590.66 155.659 1590.66 Q153.483 1590.66 151.214 1590.29 Q148.969 1589.92 146.562 1589.17 L146.562 1584.48 Q148.645 1585.61 150.867 1586.17 Q153.089 1586.72 155.566 1586.72 Q159.571 1586.72 161.909 1584.61 Q164.247 1582.51 164.247 1578.9 Q164.247 1575.29 161.909 1573.18 Q159.571 1571.07 155.566 1571.07 Q153.691 1571.07 151.816 1571.49 Q149.964 1571.91 148.02 1572.79 L148.02 1555.42 Z" fill="#000000" fill-rule="nonzero" fill-opacity="1" /><path clip-path="url(#clip650)" d="M178.135 1584.11 L183.02 1584.11 L183.02 1589.98 L178.135 1589.98 L178.135 1584.11 Z" fill="#000000" fill-rule="nonzero" fill-opacity="1" /><path clip-path="url(#clip650)" d="M203.205 1558.5 Q199.594 1558.5 197.765 1562.07 Q195.959 1565.61 195.959 1572.74 Q195.959 1579.85 197.765 1583.41 Q199.594 1586.95 203.205 1586.95 Q206.839 1586.95 208.645 1583.41 Q210.473 1579.85 210.473 1572.74 Q210.473 1565.61 208.645 1562.07 Q206.839 1558.5 203.205 1558.5 M203.205 1554.8 Q209.015 1554.8 212.07 1559.41 Q215.149 1563.99 215.149 1572.74 Q215.149 1581.47 212.07 1586.07 Q209.015 1590.66 203.205 1590.66 Q197.395 1590.66 194.316 1586.07 Q191.26 1581.47 191.26 1572.74 Q191.26 1563.99 194.316 1559.41 Q197.395 1554.8 203.205 1554.8 Z" fill="#000000" fill-rule="nonzero" fill-opacity="1" /><path clip-path="url(#clip650)" d="M122.835 1301.87 L139.154 1301.87 L139.154 1305.81 L117.21 1305.81 L117.21 1301.87 Q119.872 1299.12 124.455 1294.49 Q129.062 1289.84 130.242 1288.49 Q132.488 1285.97 133.367 1284.23 Q134.27 1282.47 134.27 1280.78 Q134.27 1278.03 132.325 1276.29 Q130.404 1274.56 127.302 1274.56 Q125.103 1274.56 122.65 1275.32 Q120.219 1276.09 117.441 1277.64 L117.441 1272.91 Q120.265 1271.78 122.719 1271.2 Q125.173 1270.62 127.21 1270.62 Q132.58 1270.62 135.775 1273.31 Q138.969 1275.99 138.969 1280.48 Q138.969 1282.61 138.159 1284.53 Q137.372 1286.43 135.265 1289.03 Q134.687 1289.7 131.585 1292.91 Q128.483 1296.11 122.835 1301.87 Z" fill="#000000" fill-rule="nonzero" fill-opacity="1" /><path clip-path="url(#clip650)" d="M147.788 1271.25 L170.01 1271.25 L170.01 1273.24 L157.464 1305.81 L152.58 1305.81 L164.385 1275.18 L147.788 1275.18 L147.788 1271.25 Z" fill="#000000" fill-rule="nonzero" fill-opacity="1" /><path clip-path="url(#clip650)" d="M179.131 1299.93 L184.015 1299.93 L184.015 1305.81 L179.131 1305.81 L179.131 1299.93 Z" fill="#000000" fill-rule="nonzero" fill-opacity="1" /><path clip-path="url(#clip650)" d="M194.246 1271.25 L212.603 1271.25 L212.603 1275.18 L198.529 1275.18 L198.529 1283.66 Q199.547 1283.31 200.566 1283.15 Q201.584 1282.96 202.603 1282.96 Q208.39 1282.96 211.769 1286.13 Q215.149 1289.3 215.149 1294.72 Q215.149 1300.3 211.677 1303.4 Q208.205 1306.48 201.885 1306.48 Q199.709 1306.48 197.441 1306.11 Q195.196 1305.74 192.788 1305 L192.788 1300.3 Q194.871 1301.43 197.094 1301.99 Q199.316 1302.54 201.793 1302.54 Q205.797 1302.54 208.135 1300.44 Q210.473 1298.33 210.473 1294.72 Q210.473 1291.11 208.135 1289 Q205.797 1286.9 201.793 1286.9 Q199.918 1286.9 198.043 1287.31 Q196.191 1287.73 194.246 1288.61 L194.246 1271.25 Z" fill="#000000" fill-rule="nonzero" fill-opacity="1" /><path clip-path="url(#clip650)" d="M131.978 1003 Q135.335 1003.71 137.21 1005.98 Q139.108 1008.25 139.108 1011.58 Q139.108 1016.7 135.589 1019.5 Q132.071 1022.3 125.589 1022.3 Q123.413 1022.3 121.099 1021.86 Q118.807 1021.45 116.353 1020.59 L116.353 1016.08 Q118.298 1017.21 120.613 1017.79 Q122.927 1018.37 125.451 1018.37 Q129.849 1018.37 132.14 1016.63 Q134.455 1014.9 134.455 1011.58 Q134.455 1008.53 132.302 1006.82 Q130.173 1005.08 126.353 1005.08 L122.326 1005.08 L122.326 1001.24 L126.538 1001.24 Q129.988 1001.24 131.816 999.872 Q133.645 998.483 133.645 995.891 Q133.645 993.229 131.747 991.817 Q129.872 990.381 126.353 990.381 Q124.432 990.381 122.233 990.798 Q120.034 991.215 117.395 992.094 L117.395 987.928 Q120.057 987.187 122.372 986.817 Q124.71 986.446 126.77 986.446 Q132.094 986.446 135.196 988.877 Q138.298 991.284 138.298 995.405 Q138.298 998.275 136.654 1000.27 Q135.011 1002.23 131.978 1003 Z" fill="#000000" fill-rule="nonzero" fill-opacity="1" /><path clip-path="url(#clip650)" d="M157.973 990.15 Q154.362 990.15 152.534 993.715 Q150.728 997.256 150.728 1004.39 Q150.728 1011.49 152.534 1015.06 Q154.362 1018.6 157.973 1018.6 Q161.608 1018.6 163.413 1015.06 Q165.242 1011.49 165.242 1004.39 Q165.242 997.256 163.413 993.715 Q161.608 990.15 157.973 990.15 M157.973 986.446 Q163.784 986.446 166.839 991.053 Q169.918 995.636 169.918 1004.39 Q169.918 1013.11 166.839 1017.72 Q163.784 1022.3 157.973 1022.3 Q152.163 1022.3 149.085 1017.72 Q146.029 1013.11 146.029 1004.39 Q146.029 995.636 149.085 991.053 Q152.163 986.446 157.973 986.446 Z" fill="#000000" fill-rule="nonzero" fill-opacity="1" /><path clip-path="url(#clip650)" d="M178.135 1015.75 L183.02 1015.75 L183.02 1021.63 L178.135 1021.63 L178.135 1015.75 Z" fill="#000000" fill-rule="nonzero" fill-opacity="1" /><path clip-path="url(#clip650)" d="M203.205 990.15 Q199.594 990.15 197.765 993.715 Q195.959 997.256 195.959 1004.39 Q195.959 1011.49 197.765 1015.06 Q199.594 1018.6 203.205 1018.6 Q206.839 1018.6 208.645 1015.06 Q210.473 1011.49 210.473 1004.39 Q210.473 997.256 208.645 993.715 Q206.839 990.15 203.205 990.15 M203.205 986.446 Q209.015 986.446 212.07 991.053 Q215.149 995.636 215.149 1004.39 Q215.149 1013.11 212.07 1017.72 Q209.015 1022.3 203.205 1022.3 Q197.395 1022.3 194.316 1017.72 Q191.26 1013.11 191.26 1004.39 Q191.26 995.636 194.316 991.053 Q197.395 986.446 203.205 986.446 Z" fill="#000000" fill-rule="nonzero" fill-opacity="1" /><path clip-path="url(#clip650)" d="M132.974 718.82 Q136.33 719.538 138.205 721.806 Q140.103 724.075 140.103 727.408 Q140.103 732.524 136.585 735.325 Q133.066 738.126 126.585 738.126 Q124.409 738.126 122.094 737.686 Q119.802 737.269 117.349 736.413 L117.349 731.899 Q119.293 733.033 121.608 733.612 Q123.923 734.191 126.446 734.191 Q130.844 734.191 133.136 732.455 Q135.45 730.718 135.45 727.408 Q135.45 724.353 133.298 722.64 Q131.168 720.904 127.349 720.904 L123.321 720.904 L123.321 717.061 L127.534 717.061 Q130.983 717.061 132.812 715.695 Q134.64 714.306 134.64 711.714 Q134.64 709.052 132.742 707.64 Q130.867 706.205 127.349 706.205 Q125.427 706.205 123.228 706.621 Q121.029 707.038 118.39 707.918 L118.39 703.751 Q121.052 703.01 123.367 702.64 Q125.705 702.27 127.765 702.27 Q133.089 702.27 136.191 704.7 Q139.293 707.107 139.293 711.228 Q139.293 714.098 137.65 716.089 Q136.006 718.056 132.974 718.82 Z" fill="#000000" fill-rule="nonzero" fill-opacity="1" /><path clip-path="url(#clip650)" d="M152.997 733.519 L169.316 733.519 L169.316 737.455 L147.372 737.455 L147.372 733.519 Q150.034 730.765 154.617 726.135 Q159.223 721.482 160.404 720.14 Q162.649 717.617 163.529 715.881 Q164.432 714.121 164.432 712.432 Q164.432 709.677 162.487 707.941 Q160.566 706.205 157.464 706.205 Q155.265 706.205 152.811 706.969 Q150.381 707.732 147.603 709.283 L147.603 704.561 Q150.427 703.427 152.881 702.848 Q155.335 702.27 157.372 702.27 Q162.742 702.27 165.936 704.955 Q169.131 707.64 169.131 712.131 Q169.131 714.26 168.321 716.181 Q167.534 718.08 165.427 720.672 Q164.848 721.343 161.747 724.561 Q158.645 727.755 152.997 733.519 Z" fill="#000000" fill-rule="nonzero" fill-opacity="1" /><path clip-path="url(#clip650)" d="M179.131 731.575 L184.015 731.575 L184.015 737.455 L179.131 737.455 L179.131 731.575 Z" fill="#000000" fill-rule="nonzero" fill-opacity="1" /><path clip-path="url(#clip650)" d="M194.246 702.895 L212.603 702.895 L212.603 706.83 L198.529 706.83 L198.529 715.302 Q199.547 714.955 200.566 714.793 Q201.584 714.607 202.603 714.607 Q208.39 714.607 211.769 717.779 Q215.149 720.95 215.149 726.367 Q215.149 731.945 211.677 735.047 Q208.205 738.126 201.885 738.126 Q199.709 738.126 197.441 737.755 Q195.196 737.385 192.788 736.644 L192.788 731.945 Q194.871 733.08 197.094 733.635 Q199.316 734.191 201.793 734.191 Q205.797 734.191 208.135 732.084 Q210.473 729.978 210.473 726.367 Q210.473 722.756 208.135 720.649 Q205.797 718.543 201.793 718.543 Q199.918 718.543 198.043 718.959 Q196.191 719.376 194.246 720.256 L194.246 702.895 Z" fill="#000000" fill-rule="nonzero" fill-opacity="1" /><path clip-path="url(#clip650)" d="M131.978 434.644 Q135.335 435.361 137.21 437.63 Q139.108 439.898 139.108 443.232 Q139.108 448.347 135.589 451.148 Q132.071 453.949 125.589 453.949 Q123.413 453.949 121.099 453.509 Q118.807 453.093 116.353 452.236 L116.353 447.722 Q118.298 448.857 120.613 449.435 Q122.927 450.014 125.451 450.014 Q129.849 450.014 132.14 448.278 Q134.455 446.542 134.455 443.232 Q134.455 440.176 132.302 438.463 Q130.173 436.727 126.353 436.727 L122.326 436.727 L122.326 432.884 L126.538 432.884 Q129.988 432.884 131.816 431.519 Q133.645 430.13 133.645 427.537 Q133.645 424.875 131.747 423.463 Q129.872 422.028 126.353 422.028 Q124.432 422.028 122.233 422.445 Q120.034 422.861 117.395 423.741 L117.395 419.574 Q120.057 418.834 122.372 418.463 Q124.71 418.093 126.77 418.093 Q132.094 418.093 135.196 420.523 Q138.298 422.931 138.298 427.051 Q138.298 429.921 136.654 431.912 Q135.011 433.88 131.978 434.644 Z" fill="#000000" fill-rule="nonzero" fill-opacity="1" /><path clip-path="url(#clip650)" d="M148.02 418.718 L166.376 418.718 L166.376 422.653 L152.302 422.653 L152.302 431.125 Q153.321 430.778 154.339 430.616 Q155.358 430.431 156.376 430.431 Q162.163 430.431 165.543 433.602 Q168.922 436.773 168.922 442.19 Q168.922 447.769 165.45 450.87 Q161.978 453.949 155.659 453.949 Q153.483 453.949 151.214 453.579 Q148.969 453.208 146.562 452.468 L146.562 447.769 Q148.645 448.903 150.867 449.458 Q153.089 450.014 155.566 450.014 Q159.571 450.014 161.909 447.907 Q164.247 445.801 164.247 442.19 Q164.247 438.579 161.909 436.472 Q159.571 434.366 155.566 434.366 Q153.691 434.366 151.816 434.783 Q149.964 435.199 148.02 436.079 L148.02 418.718 Z" fill="#000000" fill-rule="nonzero" fill-opacity="1" /><path clip-path="url(#clip650)" d="M178.135 447.398 L183.02 447.398 L183.02 453.278 L178.135 453.278 L178.135 447.398 Z" fill="#000000" fill-rule="nonzero" fill-opacity="1" /><path clip-path="url(#clip650)" d="M203.205 421.797 Q199.594 421.797 197.765 425.361 Q195.959 428.903 195.959 436.033 Q195.959 443.139 197.765 446.704 Q199.594 450.245 203.205 450.245 Q206.839 450.245 208.645 446.704 Q210.473 443.139 210.473 436.033 Q210.473 428.903 208.645 425.361 Q206.839 421.797 203.205 421.797 M203.205 418.093 Q209.015 418.093 212.07 422.699 Q215.149 427.283 215.149 436.033 Q215.149 444.759 212.07 449.366 Q209.015 453.949 203.205 453.949 Q197.395 453.949 194.316 449.366 Q191.26 444.759 191.26 436.033 Q191.26 427.283 194.316 422.699 Q197.395 418.093 203.205 418.093 Z" fill="#000000" fill-rule="nonzero" fill-opacity="1" /><path clip-path="url(#clip650)" d="M132.974 150.467 Q136.33 151.185 138.205 153.453 Q140.103 155.722 140.103 159.055 Q140.103 164.171 136.585 166.972 Q133.066 169.772 126.585 169.772 Q124.409 169.772 122.094 169.333 Q119.802 168.916 117.349 168.059 L117.349 163.546 Q119.293 164.68 121.608 165.259 Q123.923 165.837 126.446 165.837 Q130.844 165.837 133.136 164.101 Q135.45 162.365 135.45 159.055 Q135.45 155.999 133.298 154.286 Q131.168 152.55 127.349 152.55 L123.321 152.55 L123.321 148.708 L127.534 148.708 Q130.983 148.708 132.812 147.342 Q134.64 145.953 134.64 143.361 Q134.64 140.698 132.742 139.286 Q130.867 137.851 127.349 137.851 Q125.427 137.851 123.228 138.268 Q121.029 138.685 118.39 139.564 L118.39 135.398 Q121.052 134.657 123.367 134.286 Q125.705 133.916 127.765 133.916 Q133.089 133.916 136.191 136.347 Q139.293 138.754 139.293 142.874 Q139.293 145.745 137.65 147.735 Q136.006 149.703 132.974 150.467 Z" fill="#000000" fill-rule="nonzero" fill-opacity="1" /><path clip-path="url(#clip650)" d="M147.788 134.541 L170.01 134.541 L170.01 136.532 L157.464 169.101 L152.58 169.101 L164.385 138.476 L147.788 138.476 L147.788 134.541 Z" fill="#000000" fill-rule="nonzero" fill-opacity="1" /><path clip-path="url(#clip650)" d="M179.131 163.222 L184.015 163.222 L184.015 169.101 L179.131 169.101 L179.131 163.222 Z" fill="#000000" fill-rule="nonzero" fill-opacity="1" /><path clip-path="url(#clip650)" d="M194.246 134.541 L212.603 134.541 L212.603 138.476 L198.529 138.476 L198.529 146.948 Q199.547 146.601 200.566 146.439 Q201.584 146.254 202.603 146.254 Q208.39 146.254 211.769 149.425 Q215.149 152.597 215.149 158.013 Q215.149 163.592 211.677 166.694 Q208.205 169.772 201.885 169.772 Q199.709 169.772 197.441 169.402 Q195.196 169.032 192.788 168.291 L192.788 163.592 Q194.871 164.726 197.094 165.282 Q199.316 165.837 201.793 165.837 Q205.797 165.837 208.135 163.731 Q210.473 161.624 210.473 158.013 Q210.473 154.402 208.135 152.296 Q205.797 150.189 201.793 150.189 Q199.918 150.189 198.043 150.606 Q196.191 151.023 194.246 151.902 L194.246 134.541 Z" fill="#000000" fill-rule="nonzero" fill-opacity="1" /><path clip-path="url(#clip650)" d="M14.1184 1041.12 L14.1184 1034.69 L61.6384 1034.69 L61.6384 1041.12 L14.1184 1041.12 Z" fill="#000000" fill-rule="nonzero" fill-opacity="1" /><path clip-path="url(#clip650)" d="M15.869 1016.36 L25.9905 1016.36 L25.9905 1004.29 L30.542 1004.29 L30.542 1016.36 L49.8937 1016.36 Q54.2542 1016.36 55.4955 1015.18 Q56.7368 1013.97 56.7368 1010.31 L56.7368 1004.29 L61.6384 1004.29 L61.6384 1010.31 Q61.6384 1017.09 59.124 1019.67 Q56.5777 1022.24 49.8937 1022.24 L30.542 1022.24 L30.542 1026.54 L25.9905 1026.54 L25.9905 1022.24 L15.869 1022.24 L15.869 1016.36 Z" fill="#000000" fill-rule="nonzero" fill-opacity="1" /><path clip-path="url(#clip650)" d="M42.3504 966.098 L45.2149 966.098 L45.2149 993.025 Q51.2623 992.643 54.4452 989.397 Q57.5962 986.118 57.5962 980.294 Q57.5962 976.92 56.7687 973.769 Q55.9411 970.586 54.2861 967.467 L59.8242 967.467 Q61.161 970.618 61.8612 973.928 Q62.5615 977.238 62.5615 980.644 Q62.5615 989.174 57.5962 994.171 Q52.631 999.136 44.1646 999.136 Q35.4117 999.136 30.2873 994.426 Q25.1311 989.683 25.1311 981.662 Q25.1311 974.469 29.7781 970.3 Q34.3932 966.098 42.3504 966.098 M40.6316 971.955 Q35.8255 972.018 32.9609 974.66 Q30.0964 977.27 30.0964 981.599 Q30.0964 986.5 32.8654 989.46 Q35.6345 992.389 40.6634 992.834 L40.6316 971.955 Z" fill="#000000" fill-rule="nonzero" fill-opacity="1" /><path clip-path="url(#clip650)" d="M31.465 935.829 Q30.8921 936.816 30.6375 937.994 Q30.351 939.139 30.351 940.54 Q30.351 945.505 33.5975 948.179 Q36.8122 950.821 42.8596 950.821 L61.6384 950.821 L61.6384 956.709 L25.9905 956.709 L25.9905 950.821 L31.5287 950.821 Q28.2821 948.974 26.7225 946.014 Q25.1311 943.054 25.1311 938.821 Q25.1311 938.216 25.2266 937.484 Q25.2903 936.752 25.4494 935.861 L31.465 935.829 Z" fill="#000000" fill-rule="nonzero" fill-opacity="1" /><path clip-path="url(#clip650)" d="M43.719 913.486 Q43.719 920.583 45.3422 923.321 Q46.9655 926.058 50.8804 926.058 Q53.9996 926.058 55.8457 924.021 Q57.6599 921.952 57.6599 918.419 Q57.6599 913.549 54.2224 910.621 Q50.7531 907.661 45.0239 907.661 L43.719 907.661 L43.719 913.486 M41.3 901.805 L61.6384 901.805 L61.6384 907.661 L56.2276 907.661 Q59.4741 909.666 61.0337 912.658 Q62.5615 915.65 62.5615 919.979 Q62.5615 925.453 59.5059 928.7 Q56.4186 931.914 51.2623 931.914 Q45.2467 931.914 42.1912 927.904 Q39.1357 923.862 39.1357 915.873 L39.1357 907.661 L38.5628 907.661 Q34.5205 907.661 32.3244 910.335 Q30.0964 912.976 30.0964 917.783 Q30.0964 920.838 30.8284 923.734 Q31.5605 926.631 33.0246 929.304 L27.6137 929.304 Q26.3724 926.09 25.7677 923.066 Q25.1311 920.042 25.1311 917.178 Q25.1311 909.443 29.1415 905.624 Q33.1519 901.805 41.3 901.805 Z" fill="#000000" fill-rule="nonzero" fill-opacity="1" /><path clip-path="url(#clip650)" d="M15.869 883.949 L25.9905 883.949 L25.9905 871.886 L30.542 871.886 L30.542 883.949 L49.8937 883.949 Q54.2542 883.949 55.4955 882.771 Q56.7368 881.562 56.7368 877.901 L56.7368 871.886 L61.6384 871.886 L61.6384 877.901 Q61.6384 884.681 59.124 887.259 Q56.5777 889.837 49.8937 889.837 L30.542 889.837 L30.542 894.134 L25.9905 894.134 L25.9905 889.837 L15.869 889.837 L15.869 883.949 Z" fill="#000000" fill-rule="nonzero" fill-opacity="1" /><path clip-path="url(#clip650)" d="M25.9905 864.183 L25.9905 858.327 L61.6384 858.327 L61.6384 864.183 L25.9905 864.183 M12.1132 864.183 L12.1132 858.327 L19.5293 858.327 L19.5293 864.183 L12.1132 864.183 Z" fill="#000000" fill-rule="nonzero" fill-opacity="1" /><path clip-path="url(#clip650)" d="M30.0964 832.259 Q30.0964 836.97 33.7885 839.707 Q37.4488 842.444 43.8463 842.444 Q50.2438 842.444 53.9359 839.739 Q57.5962 837.002 57.5962 832.259 Q57.5962 827.58 53.9041 824.843 Q50.212 822.106 43.8463 822.106 Q37.5124 822.106 33.8203 824.843 Q30.0964 827.58 30.0964 832.259 M25.1311 832.259 Q25.1311 824.62 30.0964 820.26 Q35.0616 815.899 43.8463 815.899 Q52.5991 815.899 57.5962 820.26 Q62.5615 824.62 62.5615 832.259 Q62.5615 839.93 57.5962 844.29 Q52.5991 848.619 43.8463 848.619 Q35.0616 848.619 30.0964 844.29 Q25.1311 839.93 25.1311 832.259 Z" fill="#000000" fill-rule="nonzero" fill-opacity="1" /><path clip-path="url(#clip650)" d="M40.1224 776.559 L61.6384 776.559 L61.6384 782.416 L40.3133 782.416 Q35.2526 782.416 32.7381 784.389 Q30.2237 786.363 30.2237 790.309 Q30.2237 795.052 33.2474 797.789 Q36.2711 800.526 41.491 800.526 L61.6384 800.526 L61.6384 806.414 L25.9905 806.414 L25.9905 800.526 L31.5287 800.526 Q28.314 798.426 26.7225 795.593 Q25.1311 792.728 25.1311 789.004 Q25.1311 782.861 28.9505 779.71 Q32.7381 776.559 40.1224 776.559 Z" fill="#000000" fill-rule="nonzero" fill-opacity="1" /><path clip-path="url(#clip650)" d="M27.0408 742.153 L32.579 742.153 Q31.3059 744.635 30.6693 747.309 Q30.0327 749.983 30.0327 752.847 Q30.0327 757.208 31.3695 759.404 Q32.7063 761.568 35.3799 761.568 Q37.4169 761.568 38.5946 760.008 Q39.7404 758.449 40.7908 753.738 L41.2364 751.733 Q42.5732 745.495 45.0239 742.885 Q47.4429 740.243 51.8034 740.243 Q56.7687 740.243 59.6651 744.19 Q62.5615 748.105 62.5615 754.98 Q62.5615 757.844 61.9886 760.963 Q61.4475 764.051 60.3335 767.488 L54.2861 767.488 Q55.973 764.242 56.8323 761.091 Q57.6599 757.94 57.6599 754.852 Q57.6599 750.715 56.2594 748.487 Q54.8271 746.259 52.249 746.259 Q49.8619 746.259 48.5887 747.882 Q47.3156 749.473 46.1379 754.916 L45.6605 756.953 Q44.5147 762.396 42.1594 764.815 Q39.7722 767.234 35.6345 767.234 Q30.6056 767.234 27.8684 763.669 Q25.1311 760.104 25.1311 753.547 Q25.1311 750.301 25.6085 747.436 Q26.086 744.572 27.0408 742.153 Z" fill="#000000" fill-rule="nonzero" fill-opacity="1" /><polyline clip-path="url(#clip652)" style="stroke:#332288; stroke-linecap:round; stroke-linejoin:round; stroke-width:8; stroke-opacity:1; fill:none" points="322.977,1686.38 350.888,1572.7 459.04,1572.7 884.673,1459.03 2573.25,1459.03 "/>
<polyline clip-path="url(#clip652)" style="stroke:#44aa99; stroke-linecap:round; stroke-linejoin:round; stroke-width:8; stroke-opacity:1; fill:none" points="322.977,322.327 350.888,94.9858 459.04,208.656 884.673,94.9858 2573.25,94.9858 "/>
<path clip-path="url(#clip650)" d="M2171.58 1677.89 L2561.25 1677.89 L2561.25 1522.37 L2171.58 1522.37  Z" fill="#ffffff" fill-rule="evenodd" fill-opacity="1"/>
<polyline clip-path="url(#clip650)" style="stroke:#000000; stroke-linecap:round; stroke-linejoin:round; stroke-width:4; stroke-opacity:1; fill:none" points="2171.58,1677.89 2561.25,1677.89 2561.25,1522.37 2171.58,1522.37 2171.58,1677.89 "/>
<polyline clip-path="url(#clip650)" style="stroke:#332288; stroke-linecap:round; stroke-linejoin:round; stroke-width:8; stroke-opacity:1; fill:none" points="2198.09,1574.21 2357.11,1574.21 "/>
<path clip-path="url(#clip650)" d="M2388.29 1560.77 L2388.29 1587.65 L2393.93 1587.65 Q2401.09 1587.65 2404.4 1584.4 Q2407.73 1581.16 2407.73 1574.17 Q2407.73 1567.23 2404.4 1564.01 Q2401.09 1560.77 2393.93 1560.77 L2388.29 1560.77 M2383.61 1556.93 L2393.22 1556.93 Q2403.26 1556.93 2407.96 1561.12 Q2412.66 1565.28 2412.66 1574.17 Q2412.66 1583.11 2407.94 1587.3 Q2403.22 1591.49 2393.22 1591.49 L2383.61 1591.49 L2383.61 1556.93 Z" fill="#000000" fill-rule="nonzero" fill-opacity="1" /><path clip-path="url(#clip650)" d="M2445.99 1559.59 L2445.99 1564.52 Q2443.63 1562.32 2440.95 1561.23 Q2438.29 1560.15 2435.28 1560.15 Q2429.35 1560.15 2426.2 1563.78 Q2423.05 1567.39 2423.05 1574.24 Q2423.05 1581.07 2426.2 1584.71 Q2429.35 1588.32 2435.28 1588.32 Q2438.29 1588.32 2440.95 1587.23 Q2443.63 1586.14 2445.99 1583.94 L2445.99 1588.83 Q2443.54 1590.49 2440.79 1591.33 Q2438.05 1592.16 2435 1592.16 Q2427.15 1592.16 2422.64 1587.37 Q2418.12 1582.55 2418.12 1574.24 Q2418.12 1565.91 2422.64 1561.12 Q2427.15 1556.3 2435 1556.3 Q2438.1 1556.3 2440.83 1557.14 Q2443.59 1557.95 2445.99 1559.59 Z" fill="#000000" fill-rule="nonzero" fill-opacity="1" /><path clip-path="url(#clip650)" d="M2464.77 1561.53 L2458.42 1578.73 L2471.13 1578.73 L2464.77 1561.53 M2462.13 1556.93 L2467.43 1556.93 L2480.6 1591.49 L2475.74 1591.49 L2472.59 1582.62 L2457.01 1582.62 L2453.86 1591.49 L2448.93 1591.49 L2462.13 1556.93 Z" fill="#000000" fill-rule="nonzero" fill-opacity="1" /><polyline clip-path="url(#clip650)" style="stroke:#44aa99; stroke-linecap:round; stroke-linejoin:round; stroke-width:8; stroke-opacity:1; fill:none" points="2198.09,1626.05 2357.11,1626.05 "/>
<path clip-path="url(#clip650)" d="M2388.29 1612.61 L2388.29 1639.49 L2393.93 1639.49 Q2401.09 1639.49 2404.4 1636.24 Q2407.73 1633 2407.73 1626.01 Q2407.73 1619.07 2404.4 1615.85 Q2401.09 1612.61 2393.93 1612.61 L2388.29 1612.61 M2383.61 1608.77 L2393.22 1608.77 Q2403.26 1608.77 2407.96 1612.96 Q2412.66 1617.12 2412.66 1626.01 Q2412.66 1634.95 2407.94 1639.14 Q2403.22 1643.33 2393.22 1643.33 L2383.61 1643.33 L2383.61 1608.77 Z" fill="#000000" fill-rule="nonzero" fill-opacity="1" /><path clip-path="url(#clip650)" d="M2445.99 1611.43 L2445.99 1616.36 Q2443.63 1614.16 2440.95 1613.07 Q2438.29 1611.99 2435.28 1611.99 Q2429.35 1611.99 2426.2 1615.62 Q2423.05 1619.23 2423.05 1626.08 Q2423.05 1632.91 2426.2 1636.55 Q2429.35 1640.16 2435.28 1640.16 Q2438.29 1640.16 2440.95 1639.07 Q2443.63 1637.98 2445.99 1635.78 L2445.99 1640.67 Q2443.54 1642.33 2440.79 1643.17 Q2438.05 1644 2435 1644 Q2427.15 1644 2422.64 1639.21 Q2418.12 1634.39 2418.12 1626.08 Q2418.12 1617.75 2422.64 1612.96 Q2427.15 1608.14 2435 1608.14 Q2438.1 1608.14 2440.83 1608.98 Q2443.59 1609.79 2445.99 1611.43 Z" fill="#000000" fill-rule="nonzero" fill-opacity="1" /><path clip-path="url(#clip650)" d="M2457.89 1612.61 L2457.89 1625.6 L2463.77 1625.6 Q2467.04 1625.6 2468.82 1623.91 Q2470.6 1622.22 2470.6 1619.09 Q2470.6 1615.99 2468.82 1614.3 Q2467.04 1612.61 2463.77 1612.61 L2457.89 1612.61 M2453.22 1608.77 L2463.77 1608.77 Q2469.58 1608.77 2472.54 1611.41 Q2475.53 1614.02 2475.53 1619.09 Q2475.53 1624.21 2472.54 1626.82 Q2469.58 1629.44 2463.77 1629.44 L2457.89 1629.44 L2457.89 1643.33 L2453.22 1643.33 L2453.22 1608.77 Z" fill="#000000" fill-rule="nonzero" fill-opacity="1" /><path clip-path="url(#clip650)" d="M2486.48 1612.61 L2486.48 1625.6 L2492.36 1625.6 Q2495.62 1625.6 2497.41 1623.91 Q2499.19 1622.22 2499.19 1619.09 Q2499.19 1615.99 2497.41 1614.3 Q2495.62 1612.61 2492.36 1612.61 L2486.48 1612.61 M2481.8 1608.77 L2492.36 1608.77 Q2498.17 1608.77 2501.13 1611.41 Q2504.12 1614.02 2504.12 1619.09 Q2504.12 1624.21 2501.13 1626.82 Q2498.17 1629.44 2492.36 1629.44 L2486.48 1629.44 L2486.48 1643.33 L2481.8 1643.33 L2481.8 1608.77 Z" fill="#000000" fill-rule="nonzero" fill-opacity="1" /><path clip-path="url(#clip650)" d="M2518.91 1613.37 L2512.57 1630.57 L2525.28 1630.57 L2518.91 1613.37 M2516.27 1608.77 L2521.57 1608.77 L2534.74 1643.33 L2529.88 1643.33 L2526.73 1634.46 L2511.16 1634.46 L2508.01 1643.33 L2503.08 1643.33 L2516.27 1608.77 Z" fill="#000000" fill-rule="nonzero" fill-opacity="1" /></svg>
